Atma-Medium.ufo
<glyph name="numbersign" format="1">
  <advance width="608"/>
  <unicode hex="0023"/>
  <outline>
    <contour>
      <point x="108" y="-35" type="curve"/>
      <point x="212" y="198"/>
      <point x="263" y="380"/>
      <point x="289" y="595" type="curve"/>
      <point x="266" y="612"/>
      <point x="238" y="620"/>
      <point x="217" y="622" type="curve"/>
      <point x="200" y="424"/>
      <point x="135" y="185"/>
      <point x="44" y="-11" type="curve"/>
      <point x="64" y="-24"/>
      <point x="81" y="-31"/>
    </contour>
    <contour>
      <point x="11" y="199" type="curve"/>
      <point x="214" y="157"/>
      <point x="391" y="149"/>
      <point x="579" y="163" type="curve"/>
      <point x="590" y="189"/>
      <point x="590" y="217"/>
      <point x="588" y="237" type="curve"/>
      <point x="416" y="218"/>
      <point x="186" y="226"/>
      <point x="18" y="264" type="curve"/>
      <point x="11" y="242"/>
      <point x="8" y="224"/>
    </contour>
    <contour>
      <point x="24" y="400" type="curve"/>
      <point x="227" y="358"/>
      <point x="404" y="350"/>
      <point x="592" y="365" type="curve"/>
      <point x="602" y="390"/>
      <point x="603" y="418"/>
      <point x="601" y="438" type="curve"/>
      <point x="429" y="420"/>
      <point x="199" y="427"/>
      <point x="31" y="465" type="curve"/>
      <point x="24" y="444"/>
      <point x="21" y="426"/>
    </contour>
    <contour>
      <point x="335" y="-39" type="curve"/>
      <point x="440" y="194"/>
      <point x="488" y="376"/>
      <point x="514" y="591" type="curve"/>
      <point x="491" y="608"/>
      <point x="463" y="615"/>
      <point x="442" y="617" type="curve"/>
      <point x="425" y="419"/>
      <point x="362" y="180"/>
      <point x="272" y="-16" type="curve"/>
      <point x="291" y="-29"/>
      <point x="308" y="-35"/>
    </contour>
  </outline>
</glyph>
<glyph name="ampersand" format="1">
  <advance width="779"/>
  <unicode hex="0026"/>
  <outline>
    <contour>
      <point x="741" y="22" type="curve"/>
      <point x="456" y="135"/>
      <point x="319" y="308"/>
      <point x="319" y="528" type="curve" smooth="yes"/>
      <point x="319" y="616"/>
      <point x="348" y="660"/>
      <point x="387" y="660" type="curve" smooth="yes"/>
      <point x="424" y="660"/>
      <point x="443" y="628"/>
      <point x="443" y="577" type="curve" smooth="yes"/>
      <point x="443" y="511"/>
      <point x="404" y="456"/>
      <point x="313" y="434" type="curve"/>
      <point x="318" y="389" type="line"/>
      <point x="454" y="414"/>
      <point x="539" y="480"/>
      <point x="539" y="586" type="curve" smooth="yes"/>
      <point x="539" y="666"/>
      <point x="483" y="721"/>
      <point x="399" y="721" type="curve" smooth="yes"/>
      <point x="282" y="721"/>
      <point x="220" y="633"/>
      <point x="220" y="511" type="curve" smooth="yes"/>
      <point x="220" y="239"/>
      <point x="420" y="47"/>
      <point x="678" y="-53" type="curve"/>
      <point x="707" y="-36"/>
      <point x="729" y="-9"/>
    </contour>
    <contour>
      <point x="631" y="391"/>
      <point x="593" y="391"/>
      <point x="563" y="383" type="curve"/>
      <point x="571" y="348"/>
      <point x="575" y="318"/>
      <point x="575" y="279" type="curve" smooth="yes"/>
      <point x="575" y="132"/>
      <point x="476" y="14"/>
      <point x="348" y="14" type="curve" smooth="yes"/>
      <point x="227" y="14"/>
      <point x="145" y="90"/>
      <point x="145" y="206" type="curve" smooth="yes"/>
      <point x="145" y="302"/>
      <point x="210" y="360"/>
      <point x="294" y="374" type="curve"/>
      <point x="291" y="419" type="line"/>
      <point x="124" y="399"/>
      <point x="40" y="303"/>
      <point x="40" y="183" type="curve" smooth="yes"/>
      <point x="40" y="45"/>
      <point x="148" y="-61"/>
      <point x="331" y="-61" type="curve" smooth="yes"/>
      <point x="513" y="-61"/>
      <point x="656" y="58"/>
      <point x="669" y="278" type="curve" smooth="yes"/>
      <point x="671" y="309"/>
      <point x="672" y="340"/>
      <point x="669" y="376" type="curve"/>
    </contour>
  </outline>
</glyph>
<glyph name="quotesingle" format="1">
  <advance width="164"/>
  <unicode hex="0027"/>
  <outline>
    <contour>
      <point x="122" y="736" type="curve"/>
      <point x="106" y="740"/>
      <point x="93" y="742"/>
      <point x="79" y="742" type="curve" smooth="yes"/>
      <point x="62" y="742"/>
      <point x="43" y="740"/>
      <point x="32" y="735" type="curve"/>
      <point x="36" y="655"/>
      <point x="38" y="589"/>
      <point x="40" y="495" type="curve"/>
      <point x="59" y="493"/>
      <point x="86" y="494"/>
      <point x="99" y="498" type="curve"/>
      <point x="114" y="607"/>
      <point x="120" y="673"/>
    </contour>
  </outline>
</glyph>
<glyph name="asterisk" format="1">
  <advance width="457"/>
  <unicode hex="002A"/>
  <outline>
    <contour>
      <point x="403" y="401" type="curve" smooth="yes"/>
      <point x="412" y="415"/>
      <point x="418" y="434"/>
      <point x="420" y="446" type="curve"/>
      <point x="357" y="474"/>
      <point x="305" y="500"/>
      <point x="233" y="537" type="curve"/>
      <point x="224" y="523"/>
      <point x="215" y="504"/>
      <point x="213" y="492" type="curve"/>
      <point x="290" y="436"/>
      <point x="337" y="403"/>
      <point x="386" y="376" type="curve"/>
      <point x="393" y="385"/>
      <point x="398" y="390"/>
    </contour>
    <contour>
      <point x="411" y="607" type="curve" smooth="yes"/>
      <point x="403" y="622"/>
      <point x="389" y="637"/>
      <point x="380" y="645" type="curve"/>
      <point x="326" y="601"/>
      <point x="281" y="570"/>
      <point x="209" y="528" type="curve"/>
      <point x="216" y="514"/>
      <point x="227" y="496"/>
      <point x="236" y="488" type="curve"/>
      <point x="322" y="526"/>
      <point x="378" y="551"/>
      <point x="423" y="580" type="curve"/>
      <point x="419" y="590"/>
      <point x="417" y="597"/>
    </contour>
    <contour>
      <point x="266" y="714" type="curve"/>
      <point x="254" y="716"/>
      <point x="247" y="717"/>
      <point x="235" y="717" type="curve" smooth="yes"/>
      <point x="219" y="717"/>
      <point x="200" y="713"/>
      <point x="189" y="709" type="curve"/>
      <point x="195" y="638"/>
      <point x="199" y="581"/>
      <point x="203" y="498" type="curve"/>
      <point x="220" y="497"/>
      <point x="241" y="499"/>
      <point x="252" y="503" type="curve"/>
      <point x="263" y="600"/>
      <point x="266" y="657"/>
    </contour>
    <contour>
      <point x="268" y="312" type="curve"/>
      <point x="258" y="381"/>
      <point x="253" y="434"/>
      <point x="253" y="520" type="curve"/>
      <point x="237" y="520"/>
      <point x="216" y="518"/>
      <point x="205" y="515" type="curve"/>
      <point x="194" y="422"/>
      <point x="189" y="360"/>
      <point x="191" y="307" type="curve"/>
      <point x="202" y="305"/>
      <point x="209" y="304"/>
      <point x="221" y="304" type="curve" smooth="yes"/>
      <point x="237" y="304"/>
      <point x="257" y="308"/>
    </contour>
    <contour>
      <point x="71" y="645" type="curve"/>
      <point x="64" y="636"/>
      <point x="59" y="631"/>
      <point x="53" y="620" type="curve" smooth="yes"/>
      <point x="44" y="606"/>
      <point x="39" y="587"/>
      <point x="36" y="575" type="curve"/>
      <point x="102" y="548"/>
      <point x="151" y="526"/>
      <point x="226" y="482" type="curve"/>
      <point x="235" y="496"/>
      <point x="244" y="516"/>
      <point x="247" y="528" type="curve"/>
      <point x="170" y="584"/>
      <point x="119" y="619"/>
    </contour>
    <contour>
      <point x="34" y="441" type="curve"/>
      <point x="37" y="431"/>
      <point x="40" y="424"/>
      <point x="46" y="414" type="curve" smooth="yes"/>
      <point x="53" y="399"/>
      <point x="67" y="384"/>
      <point x="76" y="376" type="curve"/>
      <point x="134" y="417"/>
      <point x="181" y="450"/>
      <point x="252" y="495" type="curve"/>
      <point x="244" y="510"/>
      <point x="233" y="527"/>
      <point x="223" y="536" type="curve"/>
      <point x="133" y="495"/>
      <point x="82" y="470"/>
    </contour>
  </outline>
</glyph>
<glyph name="comma" format="1">
  <advance width="173"/>
  <unicode hex="002C"/>
  <outline>
    <contour>
      <point x="152" y="89" type="curve"/>
      <point x="121" y="96"/>
      <point x="86" y="98"/>
      <point x="51" y="96" type="curve"/>
      <point x="49" y="-7"/>
      <point x="37" y="-101"/>
      <point x="9" y="-212" type="curve"/>
      <point x="32" y="-219"/>
      <point x="55" y="-223"/>
      <point x="81" y="-225" type="curve"/>
      <point x="127" y="-110"/>
      <point x="148" y="-13"/>
    </contour>
  </outline>
</glyph>
<glyph name="hyphen" format="1">
  <advance width="306"/>
  <unicode hex="002D"/>
  <outline>
    <contour>
      <point x="28" y="302"/>
      <point x="27" y="277"/>
      <point x="28" y="246" type="curve"/>
      <point x="74" y="229"/>
      <point x="180" y="226"/>
      <point x="269" y="240" type="curve"/>
      <point x="277" y="270"/>
      <point x="278" y="303"/>
      <point x="278" y="327" type="curve"/>
      <point x="249" y="323"/>
      <point x="217" y="322"/>
      <point x="167" y="322" type="curve" smooth="yes"/>
      <point x="129" y="322"/>
      <point x="72" y="325"/>
      <point x="37" y="333" type="curve"/>
    </contour>
  </outline>
</glyph>
<glyph name="period" format="1">
  <advance width="191"/>
  <unicode hex="002E"/>
  <outline>
    <contour>
      <point x="156" y="27"/>
      <point x="158" y="58"/>
      <point x="160" y="94" type="curve"/>
      <point x="110" y="102"/>
      <point x="70" y="96"/>
      <point x="42" y="90" type="curve"/>
      <point x="42" y="54"/>
      <point x="44" y="31"/>
      <point x="46" y="-7" type="curve"/>
      <point x="80" y="-11"/>
      <point x="110" y="-12"/>
      <point x="151" y="-7" type="curve"/>
    </contour>
  </outline>
</glyph>
<glyph name="slash" format="1">
  <advance width="464"/>
  <unicode hex="002F"/>
  <outline>
    <contour>
      <point x="177" y="66"/>
      <point x="346" y="412"/>
      <point x="470" y="707" type="curve"/>
      <point x="445" y="729"/>
      <point x="417" y="744"/>
      <point x="394" y="749" type="curve"/>
      <point x="272" y="457"/>
      <point x="87" y="52"/>
      <point x="-37" y="-167" type="curve"/>
      <point x="-20" y="-181"/>
      <point x="8" y="-194"/>
      <point x="34" y="-203" type="curve"/>
    </contour>
  </outline>
</glyph>
<glyph name="one" format="1">
  <advance width="375"/>
  <unicode hex="0031"/>
  <outline>
    <contour>
      <point x="250" y="-34" type="curve"/>
      <point x="271" y="213"/>
      <point x="321" y="518"/>
      <point x="374" y="654" type="curve"/>
      <point x="263" y="649" type="line"/>
      <point x="224" y="514"/>
      <point x="188" y="311"/>
      <point x="177" y="150" type="curve" smooth="yes"/>
      <point x="168" y="74"/>
      <point x="165" y="24"/>
      <point x="163" y="-42" type="curve"/>
      <point x="175" y="-44"/>
      <point x="186" y="-45"/>
      <point x="201" y="-44" type="curve" smooth="yes"/>
      <point x="222" y="-44"/>
      <point x="239" y="-40"/>
    </contour>
    <contour>
      <point x="312" y="695" type="curve"/>
      <point x="221" y="613"/>
      <point x="118" y="546"/>
      <point x="19" y="495" type="curve"/>
      <point x="34" y="461"/>
      <point x="51" y="439"/>
      <point x="77" y="418" type="curve"/>
      <point x="204" y="498"/>
      <point x="294" y="570"/>
      <point x="374" y="654" type="curve"/>
      <point x="357" y="672"/>
      <point x="338" y="684"/>
    </contour>
  </outline>
</glyph>
<glyph name="two" format="1">
  <advance width="432"/>
  <unicode hex="0032"/>
  <outline>
    <contour>
      <point x="408" y="466" type="curve" smooth="yes"/>
      <point x="408" y="570"/>
      <point x="335" y="641"/>
      <point x="229" y="641" type="curve" smooth="yes"/>
      <point x="134" y="641"/>
      <point x="56" y="582"/>
      <point x="24" y="444" type="curve"/>
      <point x="54" y="430"/>
      <point x="87" y="423"/>
      <point x="122" y="423" type="curve"/>
      <point x="141" y="525"/>
      <point x="177" y="574"/>
      <point x="225" y="574" type="curve" smooth="yes"/>
      <point x="273" y="574"/>
      <point x="300" y="533"/>
      <point x="300" y="474" type="curve" smooth="yes"/>
      <point x="300" y="356"/>
      <point x="220" y="238"/>
      <point x="10" y="85" type="curve"/>
      <point x="2" y="64"/>
      <point x="0" y="42"/>
      <point x="0" y="19" type="curve"/>
      <point x="97" y="-8"/>
      <point x="234" y="-27"/>
      <point x="383" y="-36" type="curve"/>
      <point x="395" y="-9"/>
      <point x="402" y="21"/>
      <point x="403" y="55" type="curve"/>
      <point x="283" y="54"/>
      <point x="202" y="61"/>
      <point x="93" y="73" type="curve"/>
      <point x="84" y="46" type="line"/>
      <point x="312" y="204"/>
      <point x="408" y="335"/>
    </contour>
  </outline>
</glyph>
<glyph name="three" format="1">
  <advance width="446"/>
  <unicode hex="0033"/>
  <outline>
    <contour>
      <point x="418" y="552" type="curve"/>
      <point x="418" y="583"/>
      <point x="415" y="613"/>
      <point x="407" y="637" type="curve"/>
      <point x="295" y="636"/>
      <point x="152" y="621"/>
      <point x="16" y="591" type="curve"/>
      <point x="14" y="562"/>
      <point x="16" y="530"/>
      <point x="24" y="503" type="curve"/>
      <point x="175" y="540"/>
      <point x="306" y="547"/>
    </contour>
    <contour>
      <point x="231" y="-57" type="curve" smooth="yes"/>
      <point x="344" y="-57"/>
      <point x="434" y="32"/>
      <point x="434" y="162" type="curve" smooth="yes"/>
      <point x="434" y="277"/>
      <point x="362" y="349"/>
      <point x="221" y="373" type="curve"/>
      <point x="209" y="343" type="line"/>
      <point x="319" y="420"/>
      <point x="369" y="476"/>
      <point x="418" y="552" type="curve"/>
      <point x="342" y="596" type="line"/>
      <point x="290" y="510"/>
      <point x="223" y="441"/>
      <point x="122" y="378" type="curve"/>
      <point x="122" y="353"/>
      <point x="125" y="337"/>
      <point x="130" y="314" type="curve"/>
      <point x="264" y="320"/>
      <point x="326" y="245"/>
      <point x="326" y="137" type="curve" smooth="yes"/>
      <point x="326" y="52"/>
      <point x="289" y="10"/>
      <point x="234" y="10" type="curve" smooth="yes"/>
      <point x="181" y="10"/>
      <point x="129" y="62"/>
      <point x="129" y="186" type="curve"/>
      <point x="92" y="185"/>
      <point x="60" y="179"/>
      <point x="31" y="167" type="curve"/>
      <point x="39" y="11"/>
      <point x="127" y="-57"/>
    </contour>
  </outline>
</glyph>
<glyph name="seven" format="1">
  <advance width="416"/>
  <unicode hex="0037"/>
  <outline>
    <contour>
      <point x="111" y="-17" type="curve"/>
      <point x="197" y="234"/>
      <point x="279" y="385"/>
      <point x="411" y="566" type="curve"/>
      <point x="413" y="590"/>
      <point x="414" y="611"/>
      <point x="408" y="639" type="curve"/>
      <point x="260" y="638"/>
      <point x="152" y="651"/>
      <point x="7" y="677" type="curve"/>
      <point x="-5" y="647"/>
      <point x="-10" y="616"/>
      <point x="-9" y="583" type="curve"/>
      <point x="112" y="567"/>
      <point x="201" y="566"/>
      <point x="336" y="570" type="curve"/>
      <point x="333" y="601" type="line"/>
      <point x="207" y="436"/>
      <point x="103" y="257"/>
      <point x="7" y="-1" type="curve"/>
      <point x="41" y="-14"/>
      <point x="74" y="-19"/>
    </contour>
  </outline>
</glyph>
<glyph name="colon" format="1">
  <advance width="195"/>
  <unicode hex="003A"/>
  <outline>
    <contour>
      <point x="163" y="32"/>
      <point x="163" y="64"/>
      <point x="163" y="101" type="curve"/>
      <point x="115" y="105"/>
      <point x="75" y="101"/>
      <point x="44" y="96" type="curve"/>
      <point x="44" y="60"/>
      <point x="46" y="38"/>
      <point x="47" y="0" type="curve"/>
      <point x="74" y="-5"/>
      <point x="119" y="-7"/>
      <point x="160" y="-5" type="curve"/>
    </contour>
    <contour>
      <point x="158" y="466"/>
      <point x="158" y="502"/>
      <point x="157" y="540" type="curve"/>
      <point x="142" y="545"/>
      <point x="123" y="548"/>
      <point x="102" y="548" type="curve" smooth="yes"/>
      <point x="79" y="548"/>
      <point x="58" y="546"/>
      <point x="38" y="542" type="curve"/>
      <point x="40" y="506"/>
      <point x="42" y="479"/>
      <point x="44" y="441" type="curve"/>
      <point x="81" y="438"/>
      <point x="114" y="437"/>
      <point x="156" y="438" type="curve"/>
    </contour>
  </outline>
</glyph>
<glyph name="semicolon" format="1">
  <advance width="194"/>
  <unicode hex="003B"/>
  <outline>
    <contour>
      <point x="163" y="438" type="curve"/>
      <point x="165" y="466"/>
      <point x="165" y="502"/>
      <point x="164" y="540" type="curve"/>
      <point x="149" y="545"/>
      <point x="130" y="548"/>
      <point x="109" y="548" type="curve" smooth="yes"/>
      <point x="86" y="548"/>
      <point x="65" y="546"/>
      <point x="45" y="542" type="curve"/>
      <point x="47" y="506"/>
      <point x="49" y="479"/>
      <point x="51" y="441" type="curve"/>
      <point x="88" y="438"/>
      <point x="121" y="437"/>
    </contour>
    <contour>
      <point x="155" y="91" type="curve"/>
      <point x="125" y="95"/>
      <point x="88" y="97"/>
      <point x="54" y="97" type="curve"/>
      <point x="55" y="-1"/>
      <point x="43" y="-88"/>
      <point x="12" y="-210" type="curve"/>
      <point x="35" y="-217"/>
      <point x="56" y="-221"/>
      <point x="82" y="-224" type="curve"/>
      <point x="132" y="-110"/>
      <point x="155" y="-12"/>
    </contour>
  </outline>
</glyph>
<glyph name="greater" format="1">
  <advance width="396"/>
  <unicode hex="003E"/>
  <outline>
    <contour>
      <point x="327" y="377" type="line"/>
      <point x="240" y="314"/>
      <point x="148" y="262"/>
      <point x="29" y="212" type="curve"/>
      <point x="34" y="187"/>
      <point x="40" y="173"/>
      <point x="51" y="149" type="curve"/>
      <point x="162" y="193"/>
      <point x="278" y="255"/>
      <point x="364" y="319" type="curve"/>
      <point x="366" y="364" type="line"/>
      <point x="286" y="426"/>
      <point x="165" y="490"/>
      <point x="53" y="533" type="curve"/>
      <point x="41" y="512"/>
      <point x="35" y="494"/>
      <point x="31" y="471" type="curve"/>
      <point x="150" y="420"/>
      <point x="249" y="368"/>
      <point x="328" y="305" type="curve"/>
    </contour>
  </outline>
</glyph>
<glyph name="question" format="1">
  <advance width="423"/>
  <unicode hex="003F"/>
  <outline>
    <contour>
      <point x="203" y="361" type="line"/>
      <point x="325" y="386"/>
      <point x="394" y="468"/>
      <point x="394" y="573" type="curve" smooth="yes"/>
      <point x="394" y="686"/>
      <point x="316" y="763"/>
      <point x="210" y="763" type="curve" smooth="yes"/>
      <point x="81" y="763"/>
      <point x="23" y="679"/>
      <point x="15" y="545" type="curve"/>
      <point x="42" y="534"/>
      <point x="75" y="528"/>
      <point x="111" y="528" type="curve"/>
      <point x="111" y="635"/>
      <point x="146" y="698"/>
      <point x="204" y="698" type="curve" smooth="yes"/>
      <point x="257" y="698"/>
      <point x="285" y="645"/>
      <point x="285" y="571" type="curve" smooth="yes"/>
      <point x="285" y="482"/>
      <point x="238" y="416"/>
      <point x="138" y="395" type="curve"/>
    </contour>
    <contour>
      <point x="138" y="395" type="line"/>
      <point x="140" y="335"/>
      <point x="148" y="268"/>
      <point x="155" y="213" type="curve"/>
      <point x="181" y="213"/>
      <point x="210" y="214"/>
      <point x="230" y="218" type="curve"/>
      <point x="231" y="291"/>
      <point x="232" y="351"/>
      <point x="233" y="409" type="curve"/>
    </contour>
    <contour>
      <point x="253" y="-2" type="curve"/>
      <point x="250" y="33"/>
      <point x="249" y="59"/>
      <point x="246" y="96" type="curve"/>
      <point x="212" y="97"/>
      <point x="188" y="98"/>
      <point x="149" y="96" type="curve"/>
      <point x="148" y="66"/>
      <point x="148" y="34"/>
      <point x="151" y="-1" type="curve"/>
      <point x="164" y="-5"/>
      <point x="182" y="-9"/>
      <point x="202" y="-8" type="curve" smooth="yes"/>
      <point x="219" y="-8"/>
      <point x="234" y="-7"/>
    </contour>
  </outline>
</glyph>
<glyph name="at" format="1">
  <advance width="889"/>
  <unicode hex="0040"/>
  <outline>
    <contour>
      <point x="521" y="453" type="curve"/>
      <point x="529" y="508" type="line"/>
      <point x="517" y="516"/>
      <point x="475" y="531"/>
      <point x="441" y="531" type="curve" smooth="yes"/>
      <point x="332" y="531"/>
      <point x="256" y="440"/>
      <point x="256" y="290" type="curve" smooth="yes"/>
      <point x="256" y="175"/>
      <point x="307" y="96"/>
      <point x="388" y="96" type="curve" smooth="yes"/>
      <point x="464" y="96"/>
      <point x="518" y="158"/>
      <point x="533" y="349" type="curve"/>
      <point x="504" y="379" type="line"/>
      <point x="496" y="213"/>
      <point x="454" y="161"/>
      <point x="409" y="161" type="curve" smooth="yes"/>
      <point x="370" y="161"/>
      <point x="343" y="210"/>
      <point x="343" y="303" type="curve" smooth="yes"/>
      <point x="343" y="413"/>
      <point x="390" y="473"/>
      <point x="449" y="473" type="curve" smooth="yes"/>
      <point x="485" y="473"/>
      <point x="503" y="462"/>
    </contour>
    <contour>
      <point x="835" y="358" type="curve" smooth="yes"/>
      <point x="835" y="543"/>
      <point x="728" y="723"/>
      <point x="468" y="723" type="curve" smooth="yes"/>
      <point x="203" y="723"/>
      <point x="38" y="547"/>
      <point x="38" y="286" type="curve" smooth="yes"/>
      <point x="38" y="52"/>
      <point x="186" y="-103"/>
      <point x="416" y="-103" type="curve" smooth="yes"/>
      <point x="505" y="-103"/>
      <point x="582" y="-82"/>
      <point x="649" y="-42" type="curve"/>
      <point x="637" y="-18"/>
      <point x="625" y="0"/>
      <point x="604" y="18" type="curve"/>
      <point x="557" y="-19"/>
      <point x="502" y="-37"/>
      <point x="424" y="-37" type="curve" smooth="yes"/>
      <point x="230" y="-37"/>
      <point x="119" y="97"/>
      <point x="119" y="305" type="curve" smooth="yes"/>
      <point x="119" y="519"/>
      <point x="253" y="659"/>
      <point x="456" y="659" type="curve" smooth="yes"/>
      <point x="657" y="659"/>
      <point x="758" y="529"/>
      <point x="758" y="360" type="curve" smooth="yes"/>
      <point x="758" y="226"/>
      <point x="704" y="141"/>
      <point x="640" y="141" type="curve" smooth="yes"/>
      <point x="592" y="141"/>
      <point x="570" y="188"/>
      <point x="570" y="309" type="curve" smooth="yes"/>
      <point x="570" y="372"/>
      <point x="572" y="439"/>
      <point x="579" y="552" type="curve"/>
      <point x="551" y="558"/>
      <point x="521" y="558"/>
      <point x="484" y="549" type="curve"/>
      <point x="486" y="440"/>
      <point x="490" y="324"/>
      <point x="493" y="253" type="curve" smooth="yes"/>
      <point x="495" y="143"/>
      <point x="546" y="85"/>
      <point x="633" y="85" type="curve" smooth="yes"/>
      <point x="738" y="85"/>
      <point x="835" y="186"/>
    </contour>
  </outline>
</glyph>
<glyph name="A" format="1">
  <advance width="628"/>
  <unicode hex="0041"/>
  <outline>
    <contour>
      <point x="613" y="-74" type="curve"/>
      <point x="565" y="246"/>
      <point x="495" y="463"/>
      <point x="369" y="694" type="curve"/>
      <point x="337" y="702"/>
      <point x="309" y="705"/>
      <point x="267" y="706" type="curve"/>
      <point x="205" y="448"/>
      <point x="146" y="262"/>
      <point x="13" y="24" type="curve"/>
      <point x="33" y="2"/>
      <point x="62" y="-16"/>
      <point x="103" y="-24" type="curve"/>
      <point x="212" y="188"/>
      <point x="276" y="391"/>
      <point x="328" y="622" type="curve"/>
      <point x="296" y="627" type="line"/>
      <point x="401" y="416"/>
      <point x="462" y="214"/>
      <point x="507" y="-107" type="curve"/>
      <point x="550" y="-101"/>
      <point x="583" y="-92"/>
    </contour>
    <contour>
      <point x="486" y="201" type="curve"/>
      <point x="478" y="279" type="line"/>
      <point x="373" y="279"/>
      <point x="260" y="270"/>
      <point x="162" y="251" type="curve"/>
      <point x="166" y="179" type="line"/>
      <point x="259" y="196"/>
      <point x="373" y="203"/>
    </contour>
    <contour>
      <point x="309" y="745" type="move" name="top"/>
    </contour>
  </outline>
</glyph>
<glyph name="C" format="1">
  <advance width="564"/>
  <unicode hex="0043"/>
  <outline>
    <contour>
      <point x="512" y="208" type="curve"/>
      <point x="491" y="221"/>
      <point x="460" y="227"/>
      <point x="427" y="225" type="curve"/>
      <point x="433" y="112"/>
      <point x="387" y="39"/>
      <point x="301" y="39" type="curve" smooth="yes"/>
      <point x="209" y="39"/>
      <point x="159" y="133"/>
      <point x="159" y="300" type="curve" smooth="yes"/>
      <point x="159" y="502"/>
      <point x="239" y="620"/>
      <point x="319" y="620" type="curve" smooth="yes"/>
      <point x="388" y="620"/>
      <point x="419" y="570"/>
      <point x="412" y="445" type="curve"/>
      <point x="458" y="445"/>
      <point x="487" y="451"/>
      <point x="516" y="467" type="curve"/>
      <point x="516" y="615"/>
      <point x="457" y="693"/>
      <point x="338" y="693" type="curve" smooth="yes"/>
      <point x="161" y="693"/>
      <point x="43" y="516"/>
      <point x="43" y="276" type="curve" smooth="yes"/>
      <point x="43" y="68"/>
      <point x="138" y="-35"/>
      <point x="280" y="-35" type="curve" smooth="yes"/>
      <point x="425" y="-35"/>
      <point x="504" y="54"/>
    </contour>
  </outline>
</glyph>
<glyph name="E" format="1">
  <advance width="541"/>
  <unicode hex="0045"/>
  <outline>
    <contour>
      <point x="503" y="-12" type="curve"/>
      <point x="504" y="12"/>
      <point x="502" y="52"/>
      <point x="495" y="74" type="curve"/>
      <point x="410" y="55"/>
      <point x="303" y="44"/>
      <point x="216" y="42" type="curve"/>
      <point x="201" y="151"/>
      <point x="191" y="259"/>
      <point x="186" y="343" type="curve" smooth="yes"/>
      <point x="178" y="481"/>
      <point x="178" y="591"/>
      <point x="183" y="682" type="curve"/>
      <point x="60" y="688" type="line"/>
      <point x="63" y="494"/>
      <point x="91" y="198"/>
      <point x="128" y="-41" type="curve"/>
      <point x="248" y="-39"/>
      <point x="400" y="-28"/>
    </contour>
    <contour>
      <point x="434" y="342" type="curve"/>
      <point x="435" y="375"/>
      <point x="432" y="401"/>
      <point x="426" y="427" type="curve"/>
      <point x="326" y="420"/>
      <point x="247" y="405"/>
      <point x="157" y="386" type="curve"/>
      <point x="161" y="311" type="line"/>
      <point x="253" y="327"/>
      <point x="323" y="335"/>
    </contour>
    <contour>
      <point x="471" y="646" type="curve"/>
      <point x="476" y="671"/>
      <point x="480" y="702"/>
      <point x="479" y="735" type="curve"/>
      <point x="316" y="732"/>
      <point x="198" y="714"/>
      <point x="60" y="688" type="curve"/>
      <point x="84" y="611" type="line"/>
      <point x="205" y="633"/>
      <point x="330" y="646"/>
    </contour>
  </outline>
</glyph>
<glyph name="G" format="1">
  <advance width="586"/>
  <unicode hex="0047"/>
  <outline>
    <contour>
      <point x="489" y="222" type="curve"/>
      <point x="426" y="253" type="line"/>
      <point x="402" y="131"/>
      <point x="348" y="64"/>
      <point x="275" y="64" type="curve" smooth="yes"/>
      <point x="205" y="64"/>
      <point x="155" y="144"/>
      <point x="155" y="323" type="curve" smooth="yes"/>
      <point x="155" y="519"/>
      <point x="217" y="651"/>
      <point x="299" y="651" type="curve" smooth="yes"/>
      <point x="359" y="651"/>
      <point x="392" y="595"/>
      <point x="398" y="478" type="curve"/>
      <point x="440" y="479"/>
      <point x="475" y="484"/>
      <point x="507" y="494" type="curve"/>
      <point x="505" y="626"/>
      <point x="442" y="724"/>
      <point x="321" y="724" type="curve" smooth="yes"/>
      <point x="151" y="724"/>
      <point x="43" y="535"/>
      <point x="43" y="290" type="curve" smooth="yes"/>
      <point x="43" y="91"/>
      <point x="126" y="-21"/>
      <point x="246" y="-21" type="curve" smooth="yes"/>
      <point x="364" y="-21"/>
      <point x="437" y="60"/>
    </contour>
    <contour>
      <point x="562" y="-19" type="curve"/>
      <point x="526" y="104"/>
      <point x="511" y="221"/>
      <point x="513" y="349" type="curve"/>
      <point x="471" y="349"/>
      <point x="433" y="345"/>
      <point x="400" y="337" type="curve"/>
      <point x="408" y="197"/>
      <point x="435" y="79"/>
      <point x="481" y="-30" type="curve"/>
      <point x="511" y="-29"/>
      <point x="540" y="-25"/>
    </contour>
  </outline>
</glyph>
<glyph name="J" format="1">
  <advance width="476"/>
  <unicode hex="004A"/>
  <outline>
    <contour>
      <point x="208" y="-88" type="curve" smooth="yes"/>
      <point x="289" y="-88"/>
      <point x="348" y="-29"/>
      <point x="375" y="81" type="curve" smooth="yes"/>
      <point x="398" y="171"/>
      <point x="405" y="270"/>
      <point x="405" y="406" type="curve" smooth="yes"/>
      <point x="405" y="511"/>
      <point x="396" y="622"/>
      <point x="387" y="721" type="curve"/>
      <point x="368" y="724"/>
      <point x="350" y="724"/>
      <point x="332" y="723" type="curve" smooth="yes"/>
      <point x="303" y="722"/>
      <point x="277" y="714"/>
      <point x="262" y="704" type="curve"/>
      <point x="283" y="526"/>
      <point x="293" y="365"/>
      <point x="293" y="227" type="curve" smooth="yes"/>
      <point x="293" y="49"/>
      <point x="260" y="-12"/>
      <point x="207" y="-12" type="curve" smooth="yes"/>
      <point x="159" y="-12"/>
      <point x="134" y="34"/>
      <point x="115" y="185" type="curve"/>
      <point x="82" y="179"/>
      <point x="53" y="169"/>
      <point x="28" y="151" type="curve"/>
      <point x="43" y="6"/>
      <point x="111" y="-88"/>
    </contour>
  </outline>
</glyph>
<glyph name="K" format="1">
  <advance width="584"/>
  <unicode hex="004B"/>
  <outline>
    <contour>
      <point x="194" y="-61" type="curve"/>
      <point x="178" y="61"/>
      <point x="171" y="161"/>
      <point x="171" y="316" type="curve" smooth="yes"/>
      <point x="171" y="440"/>
      <point x="177" y="562"/>
      <point x="199" y="697" type="curve"/>
      <point x="183" y="701"/>
      <point x="165" y="704"/>
      <point x="145" y="704" type="curve" smooth="yes"/>
      <point x="117" y="704"/>
      <point x="91" y="697"/>
      <point x="73" y="689" type="curve"/>
      <point x="67" y="596"/>
      <point x="63" y="513"/>
      <point x="63" y="440" type="curve" smooth="yes"/>
      <point x="63" y="263"/>
      <point x="72" y="121"/>
      <point x="100" y="-71" type="curve"/>
      <point x="130" y="-71"/>
      <point x="172" y="-66"/>
    </contour>
    <contour>
      <point x="154" y="205" type="line"/>
      <point x="331" y="335"/>
      <point x="421" y="438"/>
      <point x="524" y="627" type="curve"/>
      <point x="500" y="654"/>
      <point x="473" y="678"/>
      <point x="439" y="691" type="curve"/>
      <point x="347" y="494"/>
      <point x="287" y="404"/>
      <point x="120" y="259" type="curve"/>
    </contour>
    <contour>
      <point x="493" y="-93" type="curve"/>
      <point x="533" y="-74"/>
      <point x="559" y="-51"/>
      <point x="581" y="-21" type="curve"/>
      <point x="456" y="170"/>
      <point x="390" y="242"/>
      <point x="257" y="356" type="curve"/>
      <point x="197" y="288" type="line"/>
      <point x="339" y="154"/>
      <point x="407" y="60"/>
    </contour>
  </outline>
</glyph>
<glyph name="L" format="1">
  <advance width="492"/>
  <unicode hex="004C"/>
  <outline>
    <contour>
      <point x="486" y="-72" type="curve"/>
      <point x="486" y="-47"/>
      <point x="480" y="-5"/>
      <point x="475" y="14" type="curve"/>
      <point x="387" y="14"/>
      <point x="290" y="4"/>
      <point x="207" y="-11" type="curve"/>
      <point x="186" y="131"/>
      <point x="182" y="257"/>
      <point x="180" y="381" type="curve" smooth="yes"/>
      <point x="180" y="488"/>
      <point x="182" y="586"/>
      <point x="191" y="672" type="curve"/>
      <point x="182" y="673"/>
      <point x="170" y="674"/>
      <point x="159" y="674" type="curve" smooth="yes"/>
      <point x="124" y="674"/>
      <point x="97" y="669"/>
      <point x="69" y="661" type="curve"/>
      <point x="64" y="428"/>
      <point x="85" y="138"/>
      <point x="119" y="-100" type="curve"/>
      <point x="238" y="-83"/>
      <point x="336" y="-73"/>
    </contour>
  </outline>
</glyph>
<glyph name="M" format="1">
  <advance width="763"/>
  <unicode hex="004D"/>
  <outline>
    <contour>
      <point x="690" y="730" type="curve"/>
      <point x="661" y="744"/>
      <point x="629" y="753"/>
      <point x="598" y="758" type="curve"/>
      <point x="501" y="601"/>
      <point x="424" y="442"/>
      <point x="370" y="265" type="curve"/>
      <point x="410" y="268" type="line"/>
      <point x="357" y="455"/>
      <point x="266" y="627"/>
      <point x="173" y="758" type="curve"/>
      <point x="137" y="752"/>
      <point x="99" y="735"/>
      <point x="69" y="716" type="curve"/>
      <point x="200" y="545"/>
      <point x="282" y="376"/>
      <point x="349" y="181" type="curve"/>
      <point x="370" y="178"/>
      <point x="397" y="179"/>
      <point x="418" y="186" type="curve"/>
      <point x="490" y="405"/>
      <point x="575" y="566"/>
    </contour>
    <contour>
      <point x="162" y="495" type="curve" smooth="yes"/>
      <point x="162" y="568"/>
      <point x="162" y="614"/>
      <point x="177" y="708" type="curve"/>
      <point x="69" y="716" type="line"/>
      <point x="62" y="495"/>
      <point x="79" y="202"/>
      <point x="112" y="-4" type="curve"/>
      <point x="145" y="-4"/>
      <point x="188" y="0"/>
      <point x="211" y="8" type="curve"/>
      <point x="179" y="176"/>
      <point x="162" y="347"/>
    </contour>
    <contour>
      <point x="692" y="-36" type="curve"/>
      <point x="698" y="190"/>
      <point x="701" y="504"/>
      <point x="690" y="730" type="curve"/>
      <point x="600" y="720" type="line"/>
      <point x="604" y="418"/>
      <point x="599" y="175"/>
      <point x="583" y="-55" type="curve"/>
      <point x="629" y="-55"/>
      <point x="661" y="-48"/>
    </contour>
  </outline>
</glyph>
<glyph name="N" format="1">
  <advance width="648"/>
  <unicode hex="004E"/>
  <outline>
    <contour>
      <point x="191" y="-30" type="curve"/>
      <point x="184" y="77"/>
      <point x="178" y="189"/>
      <point x="176" y="293" type="curve" smooth="yes"/>
      <point x="174" y="441"/>
      <point x="173" y="562"/>
      <point x="180" y="681" type="curve"/>
      <point x="141" y="688"/>
      <point x="81" y="683"/>
      <point x="65" y="672" type="curve"/>
      <point x="65" y="457"/>
      <point x="78" y="242"/>
      <point x="103" y="-41" type="curve"/>
      <point x="134" y="-41"/>
      <point x="170" y="-36"/>
    </contour>
    <contour>
      <point x="557" y="26" type="curve"/>
      <point x="573" y="211"/>
      <point x="578" y="366"/>
      <point x="578" y="549" type="curve" smooth="yes"/>
      <point x="578" y="622"/>
      <point x="575" y="690"/>
      <point x="572" y="758" type="curve"/>
      <point x="528" y="757"/>
      <point x="493" y="749"/>
      <point x="459" y="739" type="curve"/>
      <point x="473" y="647"/>
      <point x="477" y="495"/>
      <point x="477" y="352" type="curve" smooth="yes"/>
      <point x="477" y="226"/>
      <point x="475" y="105"/>
      <point x="465" y="15" type="curve"/>
      <point x="498" y="17"/>
      <point x="528" y="21"/>
    </contour>
    <contour>
      <point x="522" y="72" type="line"/>
      <point x="410" y="377"/>
      <point x="298" y="556"/>
      <point x="184" y="706" type="curve"/>
      <point x="133" y="701"/>
      <point x="99" y="690"/>
      <point x="65" y="672" type="curve"/>
      <point x="229" y="497"/>
      <point x="346" y="294"/>
      <point x="465" y="15" type="curve"/>
    </contour>
  </outline>
</glyph>
<glyph name="P" format="1">
  <advance width="570"/>
  <unicode hex="0050"/>
  <outline>
    <contour>
      <point x="186" y="-68" type="curve"/>
      <point x="175" y="74"/>
      <point x="170" y="176"/>
      <point x="171" y="309" type="curve"/>
      <point x="171" y="430"/>
      <point x="175" y="551"/>
      <point x="190" y="697" type="curve"/>
      <point x="73" y="708" type="line"/>
      <point x="69" y="659"/>
      <point x="66" y="586"/>
      <point x="66" y="538" type="curve" smooth="yes"/>
      <point x="66" y="340"/>
      <point x="71" y="194"/>
      <point x="94" y="-62" type="curve"/>
      <point x="117" y="-67"/>
      <point x="161" y="-69"/>
    </contour>
    <contour>
      <point x="531" y="547" type="curve" smooth="yes"/>
      <point x="531" y="660"/>
      <point x="450" y="742"/>
      <point x="276" y="742" type="curve" smooth="yes"/>
      <point x="206" y="742"/>
      <point x="135" y="729"/>
      <point x="73" y="708" type="curve"/>
      <point x="75" y="692"/>
      <point x="95" y="648"/>
      <point x="106" y="632" type="curve"/>
      <point x="153" y="653"/>
      <point x="206" y="673"/>
      <point x="265" y="673" type="curve" smooth="yes"/>
      <point x="375" y="673"/>
      <point x="420" y="613"/>
      <point x="420" y="531" type="curve" smooth="yes"/>
      <point x="420" y="412"/>
      <point x="319" y="337"/>
      <point x="150" y="298" type="curve"/>
      <point x="162" y="224" type="line"/>
      <point x="398" y="292"/>
      <point x="531" y="398"/>
    </contour>
  </outline>
</glyph>
<glyph name="Q" format="1">
  <advance width="610"/>
  <unicode hex="0051"/>
  <outline>
    <contour>
      <point x="564" y="365" type="curve" smooth="yes"/>
      <point x="564" y="549"/>
      <point x="492" y="673"/>
      <point x="335" y="673" type="curve" smooth="yes"/>
      <point x="161" y="673"/>
      <point x="39" y="507"/>
      <point x="39" y="276" type="curve" smooth="yes"/>
      <point x="39" y="87"/>
      <point x="125" y="-40"/>
      <point x="267" y="-40" type="curve" smooth="yes"/>
      <point x="469" y="-40"/>
      <point x="564" y="170"/>
    </contour>
    <contour>
      <point x="320" y="596" type="curve" smooth="yes"/>
      <point x="408" y="596"/>
      <point x="452" y="517"/>
      <point x="452" y="339" type="curve" smooth="yes"/>
      <point x="452" y="176"/>
      <point x="393" y="36"/>
      <point x="283" y="36" type="curve" smooth="yes"/>
      <point x="195" y="36"/>
      <point x="149" y="147"/>
      <point x="149" y="291" type="curve" smooth="yes"/>
      <point x="149" y="474"/>
      <point x="218" y="596"/>
    </contour>
    <contour>
      <point x="530" y="-111" type="curve"/>
      <point x="559" y="-92"/>
      <point x="583" y="-69"/>
      <point x="595" y="-42" type="curve"/>
      <point x="499" y="76"/>
      <point x="433" y="134"/>
      <point x="334" y="199" type="curve"/>
      <point x="316" y="188"/>
      <point x="304" y="170"/>
      <point x="295" y="155" type="curve"/>
      <point x="385" y="81"/>
      <point x="449" y="8"/>
    </contour>
  </outline>
</glyph>
<glyph name="R" format="1">
  <advance width="580"/>
  <unicode hex="0052"/>
  <outline>
    <contour>
      <point x="174" y="-5" type="curve"/>
      <point x="187" y="129"/>
      <point x="192" y="263"/>
      <point x="192" y="394" type="curve" smooth="yes"/>
      <point x="192" y="491"/>
      <point x="189" y="580"/>
      <point x="180" y="694" type="curve"/>
      <point x="159" y="699"/>
      <point x="91" y="703"/>
      <point x="64" y="698" type="curve"/>
      <point x="85" y="509"/>
      <point x="90" y="392"/>
      <point x="90" y="202" type="curve" smooth="yes"/>
      <point x="90" y="128"/>
      <point x="87" y="73"/>
      <point x="84" y="0" type="curve"/>
      <point x="108" y="-5"/>
      <point x="148" y="-7"/>
    </contour>
    <contour>
      <point x="178" y="273" type="line"/>
      <point x="400" y="330"/>
      <point x="512" y="430"/>
      <point x="512" y="574" type="curve" smooth="yes"/>
      <point x="512" y="686"/>
      <point x="435" y="770"/>
      <point x="284" y="770" type="curve" smooth="yes"/>
      <point x="208" y="770"/>
      <point x="124" y="744"/>
      <point x="64" y="698" type="curve"/>
      <point x="68" y="681"/>
      <point x="94" y="643"/>
      <point x="100" y="625" type="curve"/>
      <point x="146" y="668"/>
      <point x="206" y="700"/>
      <point x="272" y="700" type="curve" smooth="yes"/>
      <point x="355" y="700"/>
      <point x="402" y="649"/>
      <point x="402" y="559" type="curve" smooth="yes"/>
      <point x="402" y="445"/>
      <point x="327" y="376"/>
      <point x="164" y="342" type="curve"/>
    </contour>
    <contour>
      <point x="566" y="15" type="curve"/>
      <point x="489" y="184"/>
      <point x="416" y="298"/>
      <point x="345" y="374" type="curve"/>
      <point x="269" y="332" type="line"/>
      <point x="351" y="222"/>
      <point x="400" y="124"/>
      <point x="470" y="-34" type="curve"/>
      <point x="507" y="-24"/>
      <point x="547" y="-4"/>
    </contour>
  </outline>
</glyph>
<glyph name="S" format="1">
  <advance width="495"/>
  <unicode hex="0053"/>
  <outline>
    <contour>
      <point x="456" y="160" type="curve" smooth="yes"/>
      <point x="456" y="407"/>
      <point x="184" y="390"/>
      <point x="184" y="588" type="curve" smooth="yes"/>
      <point x="184" y="656"/>
      <point x="215" y="693"/>
      <point x="269" y="693" type="curve" smooth="yes"/>
      <point x="330" y="693"/>
      <point x="363" y="656"/>
      <point x="376" y="551" type="curve"/>
      <point x="415" y="554"/>
      <point x="444" y="559"/>
      <point x="469" y="575" type="curve"/>
      <point x="447" y="690"/>
      <point x="399" y="767"/>
      <point x="272" y="767" type="curve" smooth="yes"/>
      <point x="150" y="767"/>
      <point x="72" y="688"/>
      <point x="72" y="568" type="curve" smooth="yes"/>
      <point x="72" y="320"/>
      <point x="346" y="332"/>
      <point x="346" y="141" type="curve" smooth="yes"/>
      <point x="346" y="78"/>
      <point x="309" y="31"/>
      <point x="244" y="31" type="curve" smooth="yes"/>
      <point x="154" y="31"/>
      <point x="113" y="125"/>
      <point x="114" y="246" type="curve"/>
      <point x="86" y="245"/>
      <point x="49" y="235"/>
      <point x="22" y="221" type="curve"/>
      <point x="22" y="99"/>
      <point x="89" y="-40"/>
      <point x="251" y="-40" type="curve" smooth="yes"/>
      <point x="365" y="-40"/>
      <point x="456" y="39"/>
    </contour>
  </outline>
</glyph>
<glyph name="U" format="1">
  <advance width="561"/>
  <unicode hex="0055"/>
  <outline>
    <contour>
      <point x="509" y="380" type="curve" smooth="yes"/>
      <point x="509" y="501"/>
      <point x="487" y="615"/>
      <point x="464" y="707" type="curve"/>
      <point x="427" y="706"/>
      <point x="383" y="699"/>
      <point x="350" y="687" type="curve"/>
      <point x="376" y="586"/>
      <point x="396" y="471"/>
      <point x="396" y="327" type="curve" smooth="yes"/>
      <point x="396" y="139"/>
      <point x="355" y="-2"/>
      <point x="265" y="-2" type="curve" smooth="yes"/>
      <point x="198" y="-2"/>
      <point x="164" y="84"/>
      <point x="164" y="297" type="curve" smooth="yes"/>
      <point x="164" y="404"/>
      <point x="181" y="519"/>
      <point x="205" y="627" type="curve"/>
      <point x="196" y="631"/>
      <point x="181" y="634"/>
      <point x="160" y="634" type="curve" smooth="yes"/>
      <point x="141" y="634"/>
      <point x="115" y="631"/>
      <point x="101" y="627" type="curve"/>
      <point x="78" y="564"/>
      <point x="49" y="414"/>
      <point x="49" y="270" type="curve" smooth="yes"/>
      <point x="49" y="34"/>
      <point x="115" y="-80"/>
      <point x="247" y="-80" type="curve" smooth="yes"/>
      <point x="432" y="-80"/>
      <point x="509" y="91"/>
    </contour>
  </outline>
</glyph>
<glyph name="V" format="1">
  <advance width="574"/>
  <unicode hex="0056"/>
  <outline>
    <contour>
      <point x="305" y="-85" type="curve"/>
      <point x="436" y="192"/>
      <point x="508" y="419"/>
      <point x="546" y="743" type="curve"/>
      <point x="512" y="755"/>
      <point x="480" y="762"/>
      <point x="446" y="763" type="curve"/>
      <point x="418" y="479"/>
      <point x="369" y="264"/>
      <point x="273" y="26" type="curve"/>
      <point x="201" y="215"/>
      <point x="154" y="427"/>
      <point x="129" y="635" type="curve"/>
      <point x="87" y="633"/>
      <point x="51" y="624"/>
      <point x="16" y="608" type="curve"/>
      <point x="57" y="352"/>
      <point x="125" y="119"/>
      <point x="216" y="-96" type="curve"/>
      <point x="249" y="-96"/>
      <point x="280" y="-93"/>
    </contour>
  </outline>
</glyph>
<glyph name="X" format="1">
  <advance width="643"/>
  <unicode hex="0058"/>
  <outline>
    <contour>
      <point x="587" y="19" type="curve"/>
      <point x="568" y="-1"/>
      <point x="537" y="-21"/>
      <point x="509" y="-35" type="curve"/>
      <point x="357" y="306"/>
      <point x="246" y="500"/>
      <point x="54" y="708" type="curve"/>
      <point x="83" y="734"/>
      <point x="120" y="758"/>
      <point x="157" y="773" type="curve"/>
      <point x="353" y="526"/>
      <point x="455" y="341"/>
    </contour>
    <contour>
      <point x="68" y="14" type="curve"/>
      <point x="47" y="27"/>
      <point x="23" y="50"/>
      <point x="11" y="69" type="curve"/>
      <point x="119" y="188"/>
      <point x="209" y="291"/>
      <point x="301" y="414" type="curve"/>
      <point x="317" y="421" type="line"/>
      <point x="391" y="522"/>
      <point x="460" y="624"/>
      <point x="527" y="748" type="curve"/>
      <point x="555" y="735"/>
      <point x="585" y="709"/>
      <point x="604" y="681" type="curve"/>
      <point x="530" y="563"/>
      <point x="450" y="455"/>
      <point x="368" y="351" type="curve"/>
      <point x="356" y="342" type="line"/>
      <point x="265" y="226"/>
      <point x="179" y="126"/>
    </contour>
  </outline>
</glyph>
<glyph name="Y" format="1">
  <advance width="525"/>
  <unicode hex="0059"/>
  <outline>
    <contour>
      <point x="294" y="260" type="line"/>
      <point x="212" y="398"/>
      <point x="155" y="536"/>
      <point x="121" y="730" type="curve"/>
      <point x="78" y="727"/>
      <point x="43" y="716"/>
      <point x="9" y="697" type="curve"/>
      <point x="59" y="491"/>
      <point x="123" y="328"/>
      <point x="245" y="171" type="curve"/>
    </contour>
    <contour>
      <point x="179" y="-88" type="curve"/>
      <point x="350" y="152"/>
      <point x="427" y="402"/>
      <point x="497" y="679" type="curve"/>
      <point x="464" y="698"/>
      <point x="428" y="711"/>
      <point x="386" y="718" type="curve"/>
      <point x="335" y="414"/>
      <point x="257" y="189"/>
      <point x="94" y="-49" type="curve"/>
      <point x="116" y="-65"/>
      <point x="151" y="-80"/>
    </contour>
  </outline>
</glyph>
<glyph name="bracketleft" format="1">
  <advance width="373"/>
  <unicode hex="005B"/>
  <outline>
    <contour>
      <point x="362" y="-128" type="curve"/>
      <point x="362" y="-106"/>
      <point x="358" y="-72"/>
      <point x="353" y="-54" type="curve"/>
      <point x="305" y="-62"/>
      <point x="243" y="-68"/>
      <point x="198" y="-68" type="curve"/>
      <point x="154" y="279"/>
      <point x="149" y="508"/>
      <point x="164" y="753" type="curve"/>
      <point x="61" y="754" type="line"/>
      <point x="62" y="465"/>
      <point x="84" y="140"/>
      <point x="127" y="-142" type="curve"/>
      <point x="211" y="-143"/>
      <point x="291" y="-138"/>
    </contour>
    <contour>
      <point x="306" y="788" type="curve"/>
      <point x="222" y="784"/>
      <point x="146" y="773"/>
      <point x="61" y="754" type="curve"/>
      <point x="103" y="697" type="line"/>
      <point x="164" y="708"/>
      <point x="236" y="713"/>
      <point x="302" y="715" type="curve"/>
      <point x="305" y="737"/>
      <point x="306" y="763"/>
    </contour>
  </outline>
</glyph>
<glyph name="bracketright" format="1">
  <advance width="355"/>
  <unicode hex="005D"/>
  <outline>
    <contour>
      <point x="12" y="790" type="curve"/>
      <point x="12" y="767"/>
      <point x="16" y="733"/>
      <point x="21" y="715" type="curve"/>
      <point x="69" y="724"/>
      <point x="125" y="729"/>
      <point x="171" y="729" type="curve"/>
      <point x="204" y="480"/>
      <point x="211" y="211"/>
      <point x="185" y="-81" type="curve"/>
      <point x="271" y="-86" type="line"/>
      <point x="289" y="205"/>
      <point x="294" y="596"/>
      <point x="258" y="804" type="curve"/>
      <point x="170" y="805"/>
      <point x="86" y="800"/>
    </contour>
    <contour>
      <point x="32" y="-117" type="curve"/>
      <point x="111" y="-112"/>
      <point x="187" y="-103"/>
      <point x="271" y="-86" type="curve"/>
      <point x="231" y="-25" type="line"/>
      <point x="176" y="-36"/>
      <point x="105" y="-41"/>
      <point x="36" y="-43" type="curve"/>
      <point x="33" y="-65"/>
      <point x="31" y="-92"/>
    </contour>
  </outline>
</glyph>
<glyph name="g" format="1">
  <advance width="481"/>
  <unicode hex="0067"/>
  <outline>
    <contour>
      <point x="299" y="443" type="curve"/>
      <point x="391" y="496" type="line"/>
      <point x="352" y="512"/>
      <point x="302" y="522"/>
      <point x="261" y="522" type="curve" smooth="yes"/>
      <point x="124" y="522"/>
      <point x="39" y="425"/>
      <point x="39" y="252" type="curve" smooth="yes"/>
      <point x="39" y="101"/>
      <point x="107" y="4"/>
      <point x="215" y="4" type="curve" smooth="yes"/>
      <point x="284" y="4"/>
      <point x="330" y="58"/>
      <point x="362" y="188" type="curve"/>
      <point x="330" y="225" type="line"/>
      <point x="314" y="139"/>
      <point x="286" y="76"/>
      <point x="239" y="76" type="curve" smooth="yes"/>
      <point x="190" y="76"/>
      <point x="147" y="136"/>
      <point x="147" y="264" type="curve" smooth="yes"/>
      <point x="147" y="393"/>
      <point x="183" y="451"/>
      <point x="251" y="451" type="curve" smooth="yes"/>
      <point x="268" y="451"/>
      <point x="286" y="449"/>
    </contour>
    <contour>
      <point x="351" y="496"/>
      <point x="306" y="491"/>
      <point x="279" y="475" type="curve"/>
      <point x="301" y="404"/>
      <point x="320" y="292"/>
      <point x="320" y="150" type="curve" smooth="yes"/>
      <point x="320" y="-97"/>
      <point x="270" y="-178"/>
      <point x="215" y="-178" type="curve" smooth="yes"/>
      <point x="169" y="-178"/>
      <point x="145" y="-140"/>
      <point x="131" y="-48" type="curve"/>
      <point x="98" y="-55"/>
      <point x="65" y="-68"/>
      <point x="39" y="-87" type="curve"/>
      <point x="47" y="-146"/>
      <point x="83" y="-247"/>
      <point x="207" y="-247" type="curve" smooth="yes"/>
      <point x="305" y="-247"/>
      <point x="426" y="-167"/>
      <point x="426" y="169" type="curve" smooth="yes"/>
      <point x="426" y="283"/>
      <point x="409" y="421"/>
      <point x="391" y="496" type="curve"/>
    </contour>
  </outline>
</glyph>
<glyph name="i" format="1">
  <advance width="229"/>
  <unicode hex="0069"/>
  <outline>
    <contour>
      <point x="191" y="655"/>
      <point x="207" y="703"/>
      <point x="219" y="731" type="curve"/>
      <point x="204" y="739"/>
      <point x="186" y="744"/>
      <point x="162" y="744" type="curve" smooth="yes"/>
      <point x="138" y="745"/>
      <point x="120" y="742"/>
      <point x="102" y="733" type="curve"/>
      <point x="93" y="711"/>
      <point x="89" y="678"/>
      <point x="89" y="656" type="curve" smooth="yes"/>
      <point x="89" y="639"/>
      <point x="91" y="625"/>
      <point x="94" y="611" type="curve"/>
      <point x="132" y="610"/>
      <point x="162" y="611"/>
      <point x="183" y="615" type="curve"/>
    </contour>
    <contour>
      <point x="168" y="516"/>
      <point x="155" y="517"/>
      <point x="143" y="517" type="curve" smooth="yes"/>
      <point x="116" y="517"/>
      <point x="90" y="511"/>
      <point x="70" y="500" type="curve"/>
      <point x="44" y="359"/>
      <point x="39" y="169"/>
      <point x="61" y="-7" type="curve"/>
      <point x="68" y="-9"/>
      <point x="76" y="-10"/>
      <point x="87" y="-10" type="curve" smooth="yes"/>
      <point x="108" y="-10"/>
      <point x="131" y="-6"/>
      <point x="146" y="1" type="curve"/>
      <point x="139" y="192"/>
      <point x="157" y="396"/>
      <point x="182" y="513" type="curve"/>
    </contour>
  </outline>
</glyph>
<glyph name="l" format="1">
  <advance width="228"/>
  <unicode hex="006C"/>
  <outline>
    <contour>
      <point x="46" y="458"/>
      <point x="54" y="201"/>
      <point x="73" y="-61" type="curve"/>
      <point x="102" y="-61"/>
      <point x="148" y="-55"/>
      <point x="166" y="-50" type="curve"/>
      <point x="154" y="196"/>
      <point x="156" y="527"/>
      <point x="177" y="735" type="curve"/>
      <point x="159" y="740"/>
      <point x="142" y="742"/>
      <point x="124" y="742" type="curve" smooth="yes"/>
      <point x="97" y="742"/>
      <point x="72" y="733"/>
      <point x="57" y="724" type="curve"/>
    </contour>
  </outline>
</glyph>
<glyph name="n" format="1">
  <advance width="493"/>
  <unicode hex="006E"/>
  <outline>
    <contour>
      <point x="409" y="57"/>
      <point x="436" y="209"/>
      <point x="436" y="339" type="curve" smooth="yes"/>
      <point x="436" y="482"/>
      <point x="388" y="530"/>
      <point x="311" y="530" type="curve" smooth="yes"/>
      <point x="242" y="530"/>
      <point x="181" y="478"/>
      <point x="131" y="362" type="curve"/>
      <point x="149" y="298" type="line"/>
      <point x="180" y="395"/>
      <point x="229" y="444"/>
      <point x="272" y="444" type="curve" smooth="yes"/>
      <point x="315" y="444"/>
      <point x="331" y="411"/>
      <point x="331" y="340" type="curve" smooth="yes"/>
      <point x="331" y="240"/>
      <point x="315" y="129"/>
      <point x="296" y="25" type="curve"/>
      <point x="327" y="18"/>
      <point x="365" y="11"/>
      <point x="396" y="11" type="curve"/>
    </contour>
    <contour>
      <point x="48" y="353"/>
      <point x="60" y="91"/>
      <point x="70" y="-37" type="curve"/>
      <point x="100" y="-37"/>
      <point x="137" y="-32"/>
      <point x="159" y="-25" type="curve"/>
      <point x="154" y="20"/>
      <point x="153" y="110"/>
      <point x="153" y="151" type="curve" smooth="yes"/>
      <point x="153" y="266"/>
      <point x="163" y="442"/>
      <point x="172" y="530" type="curve"/>
      <point x="154" y="534"/>
      <point x="138" y="535"/>
      <point x="124" y="535" type="curve" smooth="yes"/>
      <point x="95" y="535"/>
      <point x="65" y="529"/>
      <point x="48" y="521" type="curve"/>
    </contour>
  </outline>
</glyph>
<glyph name="q" format="1">
  <advance width="515"/>
  <unicode hex="0071"/>
  <outline>
    <contour>
      <point x="345" y="435" type="curve"/>
      <point x="362" y="499" type="line"/>
      <point x="348" y="507"/>
      <point x="308" y="516"/>
      <point x="282" y="516" type="curve" smooth="yes"/>
      <point x="130" y="516"/>
      <point x="37" y="389"/>
      <point x="37" y="196" type="curve" smooth="yes"/>
      <point x="37" y="61"/>
      <point x="91" y="-50"/>
      <point x="199" y="-50" type="curve" smooth="yes"/>
      <point x="267" y="-50"/>
      <point x="322" y="14"/>
      <point x="358" y="168" type="curve"/>
      <point x="323" y="194" type="line"/>
      <point x="300" y="63"/>
      <point x="267" y="27"/>
      <point x="222" y="27" type="curve" smooth="yes"/>
      <point x="177" y="27"/>
      <point x="141" y="87"/>
      <point x="141" y="208" type="curve" smooth="yes"/>
      <point x="141" y="380"/>
      <point x="210" y="448"/>
      <point x="280" y="448" type="curve" smooth="yes"/>
      <point x="314" y="448"/>
      <point x="331" y="442"/>
    </contour>
    <contour>
      <point x="390" y="568"/>
      <point x="371" y="562"/>
      <point x="354" y="553" type="curve"/>
      <point x="330" y="448"/>
      <point x="309" y="232"/>
      <point x="309" y="91" type="curve" smooth="yes"/>
      <point x="309" y="-18"/>
      <point x="315" y="-210"/>
      <point x="318" y="-236" type="curve"/>
      <point x="328" y="-240"/>
      <point x="335" y="-241"/>
      <point x="350" y="-241" type="curve" smooth="yes"/>
      <point x="372" y="-241"/>
      <point x="394" y="-237"/>
      <point x="407" y="-231" type="curve"/>
      <point x="397" y="75"/>
      <point x="429" y="407"/>
      <point x="475" y="561" type="curve"/>
      <point x="459" y="565"/>
      <point x="439" y="568"/>
      <point x="424" y="568" type="curve" smooth="yes"/>
    </contour>
  </outline>
</glyph>
<glyph name="t" format="1">
  <advance width="392"/>
  <unicode hex="0074"/>
  <outline>
    <contour>
      <point x="225" y="9" type="curve" smooth="yes"/>
      <point x="319" y="9"/>
      <point x="354" y="97"/>
      <point x="356" y="186" type="curve"/>
      <point x="335" y="200"/>
      <point x="307" y="210"/>
      <point x="281" y="213" type="curve"/>
      <point x="279" y="117"/>
      <point x="262" y="77"/>
      <point x="233" y="77" type="curve" smooth="yes"/>
      <point x="196" y="77"/>
      <point x="181" y="155"/>
      <point x="181" y="277" type="curve" smooth="yes"/>
      <point x="181" y="402"/>
      <point x="205" y="547"/>
      <point x="235" y="644" type="curve"/>
      <point x="205" y="654"/>
      <point x="164" y="659"/>
      <point x="124" y="661" type="curve"/>
      <point x="92" y="537"/>
      <point x="78" y="417"/>
      <point x="78" y="291" type="curve" smooth="yes"/>
      <point x="78" y="100"/>
      <point x="135" y="9"/>
    </contour>
    <contour>
      <point x="29" y="542" type="curve"/>
      <point x="20" y="525"/>
      <point x="15" y="500"/>
      <point x="15" y="478" type="curve"/>
      <point x="106" y="456"/>
      <point x="246" y="453"/>
      <point x="345" y="465" type="curve"/>
      <point x="352" y="485"/>
      <point x="357" y="509"/>
      <point x="357" y="528" type="curve"/>
      <point x="242" y="516"/>
      <point x="109" y="522"/>
    </contour>
  </outline>
</glyph>
<glyph name="v" format="1">
  <advance width="458"/>
  <unicode hex="0076"/>
  <outline>
    <contour>
      <point x="246" y="17" type="curve"/>
      <point x="340" y="197"/>
      <point x="390" y="328"/>
      <point x="436" y="513" type="curve"/>
      <point x="407" y="526"/>
      <point x="373" y="536"/>
      <point x="340" y="540" type="curve"/>
      <point x="324" y="415"/>
      <point x="282" y="267"/>
      <point x="223" y="127" type="curve"/>
      <point x="188" y="318"/>
      <point x="155" y="452"/>
      <point x="111" y="572" type="curve"/>
      <point x="70" y="570"/>
      <point x="30" y="560"/>
      <point x="-1" y="544" type="curve"/>
      <point x="70" y="377"/>
      <point x="122" y="200"/>
      <point x="159" y="8" type="curve"/>
      <point x="190" y="8"/>
      <point x="225" y="9"/>
    </contour>
  </outline>
</glyph>
<glyph name="w" format="1">
  <advance width="697"/>
  <unicode hex="0077"/>
  <outline>
    <contour>
      <point x="390" y="484" type="curve"/>
      <point x="427" y="378"/>
      <point x="461" y="239"/>
      <point x="484" y="69" type="curve"/>
      <point x="467" y="72" type="line"/>
      <point x="536" y="243"/>
      <point x="570" y="387"/>
      <point x="585" y="502" type="curve"/>
      <point x="623" y="498"/>
      <point x="652" y="488"/>
      <point x="678" y="472" type="curve"/>
      <point x="632" y="288"/>
      <point x="588" y="155"/>
      <point x="494" y="-21" type="curve"/>
      <point x="476" y="-27"/>
      <point x="439" y="-34"/>
      <point x="412" y="-35" type="curve"/>
      <point x="388" y="127"/>
      <point x="361" y="249"/>
      <point x="319" y="385" type="curve"/>
      <point x="354" y="386" type="line"/>
      <point x="316" y="247"/>
      <point x="285" y="152"/>
      <point x="225" y="19" type="curve"/>
      <point x="204" y="13"/>
      <point x="165" y="6"/>
      <point x="135" y="5" type="curve"/>
      <point x="69" y="183"/>
      <point x="31" y="341"/>
      <point x="9" y="527" type="curve"/>
      <point x="44" y="540"/>
      <point x="80" y="546"/>
      <point x="120" y="548" type="curve"/>
      <point x="137" y="350"/>
      <point x="162" y="219"/>
      <point x="206" y="79" type="curve"/>
      <point x="180" y="77" type="line"/>
      <point x="239" y="215"/>
      <point x="272" y="332"/>
      <point x="295" y="471" type="curve"/>
      <point x="324" y="478"/>
      <point x="358" y="484"/>
    </contour>
  </outline>
</glyph>
<glyph name="z" format="1">
  <advance width="467"/>
  <unicode hex="007A"/>
  <outline>
    <contour>
      <point x="387" y="-25" type="curve"/>
      <point x="398" y="1"/>
      <point x="406" y="32"/>
      <point x="407" y="66" type="curve"/>
      <point x="289" y="54"/>
      <point x="210" y="58"/>
      <point x="115" y="66" type="curve"/>
      <point x="215" y="200"/>
      <point x="316" y="308"/>
      <point x="422" y="414" type="curve"/>
      <point x="431" y="434"/>
      <point x="435" y="461"/>
      <point x="437" y="483" type="curve"/>
      <point x="313" y="523"/>
      <point x="213" y="538"/>
      <point x="81" y="547" type="curve"/>
      <point x="67" y="516"/>
      <point x="63" y="495"/>
      <point x="61" y="458" type="curve"/>
      <point x="159" y="455"/>
      <point x="238" y="451"/>
      <point x="329" y="438" type="curve"/>
      <point x="219" y="333"/>
      <point x="123" y="224"/>
      <point x="20" y="87" type="curve"/>
      <point x="15" y="68"/>
      <point x="13" y="45"/>
      <point x="13" y="22" type="curve"/>
      <point x="112" y="-7"/>
      <point x="237" y="-24"/>
    </contour>
  </outline>
</glyph>
<glyph name="braceleft" format="1">
  <advance width="310"/>
  <unicode hex="007B"/>
  <outline>
    <contour>
      <point x="279" y="-154" type="curve"/>
      <point x="281" y="-135"/>
      <point x="276" y="-111"/>
      <point x="266" y="-89" type="curve"/>
      <point x="251" y="-96"/>
      <point x="239" y="-100"/>
      <point x="220" y="-100" type="curve" smooth="yes"/>
      <point x="181" y="-100"/>
      <point x="157" y="-71"/>
      <point x="157" y="-23" type="curve" smooth="yes"/>
      <point x="157" y="72"/>
      <point x="243" y="116"/>
      <point x="243" y="217" type="curve" smooth="yes"/>
      <point x="243" y="279"/>
      <point x="197" y="330"/>
      <point x="124" y="334" type="curve"/>
      <point x="121" y="318" type="line"/>
      <point x="193" y="324"/>
      <point x="238" y="376"/>
      <point x="238" y="436" type="curve" smooth="yes"/>
      <point x="238" y="537"/>
      <point x="148" y="584"/>
      <point x="148" y="672" type="curve" smooth="yes"/>
      <point x="148" y="719"/>
      <point x="173" y="748"/>
      <point x="212" y="748" type="curve" smooth="yes"/>
      <point x="231" y="748"/>
      <point x="242" y="745"/>
      <point x="257" y="738" type="curve"/>
      <point x="267" y="760"/>
      <point x="272" y="784"/>
      <point x="269" y="802" type="curve"/>
      <point x="248" y="811"/>
      <point x="224" y="816"/>
      <point x="189" y="816" type="curve" smooth="yes"/>
      <point x="112" y="816"/>
      <point x="57" y="760"/>
      <point x="57" y="679" type="curve" smooth="yes"/>
      <point x="57" y="625"/>
      <point x="75" y="588"/>
      <point x="108" y="539" type="curve" smooth="yes"/>
      <point x="138" y="494"/>
      <point x="156" y="468"/>
      <point x="156" y="435" type="curve" smooth="yes"/>
      <point x="156" y="395"/>
      <point x="132" y="369"/>
      <point x="92" y="369" type="curve" smooth="yes"/>
      <point x="75" y="369"/>
      <point x="60" y="371"/>
      <point x="44" y="374" type="curve"/>
      <point x="38" y="348"/>
      <point x="38" y="307"/>
      <point x="46" y="275" type="curve"/>
      <point x="63" y="279"/>
      <point x="78" y="280"/>
      <point x="96" y="280" type="curve" smooth="yes"/>
      <point x="135" y="280"/>
      <point x="161" y="254"/>
      <point x="161" y="216" type="curve" smooth="yes"/>
      <point x="161" y="184"/>
      <point x="144" y="152"/>
      <point x="114" y="106" type="curve" smooth="yes"/>
      <point x="80" y="55"/>
      <point x="65" y="18"/>
      <point x="65" y="-34" type="curve" smooth="yes"/>
      <point x="65" y="-113"/>
      <point x="122" y="-168"/>
      <point x="198" y="-168" type="curve" smooth="yes"/>
      <point x="234" y="-168"/>
      <point x="255" y="-164"/>
    </contour>
  </outline>
</glyph>
<glyph name="bar" format="1">
  <advance width="268"/>
  <unicode hex="007C"/>
  <outline>
    <contour>
      <point x="85" y="443"/>
      <point x="90" y="96"/>
      <point x="106" y="-169" type="curve"/>
      <point x="126" y="-171"/>
      <point x="158" y="-167"/>
      <point x="176" y="-162" type="curve"/>
      <point x="167" y="37"/>
      <point x="166" y="492"/>
      <point x="181" y="725" type="curve"/>
      <point x="151" y="730"/>
      <point x="114" y="726"/>
      <point x="86" y="713" type="curve"/>
    </contour>
  </outline>
</glyph>
<glyph name="braceright" format="1">
  <advance width="318"/>
  <unicode hex="007D"/>
  <outline>
    <contour>
      <point x="193" y="314" type="curve"/>
      <point x="196" y="330" type="line"/>
      <point x="123" y="326"/>
      <point x="76" y="275"/>
      <point x="75" y="210" type="curve" smooth="yes"/>
      <point x="74" y="113"/>
      <point x="158" y="67"/>
      <point x="157" y="-27" type="curve" smooth="yes"/>
      <point x="157" y="-71"/>
      <point x="134" y="-98"/>
      <point x="95" y="-97" type="curve" smooth="yes"/>
      <point x="78" y="-97"/>
      <point x="66" y="-94"/>
      <point x="52" y="-88" type="curve"/>
      <point x="43" y="-109"/>
      <point x="40" y="-133"/>
      <point x="44" y="-154" type="curve"/>
      <point x="62" y="-160"/>
      <point x="79" y="-163"/>
      <point x="105" y="-164" type="curve" smooth="yes"/>
      <point x="184" y="-165"/>
      <point x="246" y="-110"/>
      <point x="247" y="-30" type="curve" smooth="yes"/>
      <point x="247" y="20"/>
      <point x="235" y="57"/>
      <point x="202" y="108" type="curve" smooth="yes"/>
      <point x="173" y="155"/>
      <point x="157" y="181"/>
      <point x="158" y="213" type="curve" smooth="yes"/>
      <point x="158" y="253"/>
      <point x="183" y="279"/>
      <point x="221" y="278" type="curve" smooth="yes"/>
      <point x="239" y="278"/>
      <point x="250" y="276"/>
      <point x="265" y="271" type="curve"/>
      <point x="273" y="296"/>
      <point x="274" y="338"/>
      <point x="266" y="371" type="curve"/>
      <point x="250" y="367"/>
      <point x="237" y="367"/>
      <point x="222" y="367" type="curve" smooth="yes"/>
      <point x="183" y="368"/>
      <point x="159" y="393"/>
      <point x="159" y="433" type="curve" smooth="yes"/>
      <point x="159" y="465"/>
      <point x="179" y="500"/>
      <point x="210" y="547" type="curve" smooth="yes"/>
      <point x="247" y="602"/>
      <point x="262" y="635"/>
      <point x="262" y="686" type="curve" smooth="yes"/>
      <point x="264" y="764"/>
      <point x="211" y="819"/>
      <point x="128" y="820" type="curve" smooth="yes"/>
      <point x="97" y="821"/>
      <point x="80" y="817"/>
      <point x="62" y="810" type="curve"/>
      <point x="59" y="787"/>
      <point x="61" y="765"/>
      <point x="68" y="745" type="curve"/>
      <point x="82" y="751"/>
      <point x="92" y="753"/>
      <point x="110" y="753" type="curve" smooth="yes"/>
      <point x="146" y="752"/>
      <point x="172" y="724"/>
      <point x="171" y="678" type="curve" smooth="yes"/>
      <point x="170" y="579"/>
      <point x="79" y="537"/>
      <point x="77" y="437" type="curve" smooth="yes"/>
      <point x="76" y="368"/>
      <point x="121" y="321"/>
    </contour>
  </outline>
</glyph>
<glyph name="cent" format="1">
  <advance width="451"/>
  <unicode hex="00A2"/>
  <outline>
    <contour>
      <point x="325" y="422" type="curve"/>
      <point x="364" y="422"/>
      <point x="397" y="428"/>
      <point x="424" y="441" type="curve"/>
      <point x="424" y="545"/>
      <point x="372" y="613"/>
      <point x="267" y="613" type="curve" smooth="yes"/>
      <point x="124" y="613"/>
      <point x="34" y="451"/>
      <point x="34" y="271" type="curve" smooth="yes"/>
      <point x="34" y="152"/>
      <point x="84" y="46"/>
      <point x="215" y="46" type="curve" smooth="yes"/>
      <point x="329" y="46"/>
      <point x="406" y="131"/>
      <point x="422" y="190" type="curve"/>
      <point x="411" y="209"/>
      <point x="382" y="227"/>
      <point x="358" y="230" type="curve"/>
      <point x="329" y="169"/>
      <point x="287" y="114"/>
      <point x="233" y="114" type="curve" smooth="yes"/>
      <point x="166" y="114"/>
      <point x="140" y="188"/>
      <point x="140" y="277" type="curve" smooth="yes"/>
      <point x="140" y="410"/>
      <point x="191" y="550"/>
      <point x="260" y="550" type="curve" smooth="yes"/>
      <point x="308" y="550"/>
      <point x="325" y="497"/>
    </contour>
    <contour>
      <point x="372" y="524" type="line"/>
      <point x="387" y="578"/>
      <point x="411" y="625"/>
      <point x="436" y="670" type="curve"/>
      <point x="413" y="685"/>
      <point x="387" y="695"/>
      <point x="365" y="696" type="curve"/>
      <point x="345" y="659"/>
      <point x="329" y="609"/>
      <point x="316" y="562" type="curve"/>
    </contour>
    <contour>
      <point x="174" y="84" type="curve"/>
      <point x="115" y="123" type="line"/>
      <point x="98" y="64"/>
      <point x="76" y="19"/>
      <point x="49" y="-28" type="curve"/>
      <point x="71" y="-43"/>
      <point x="101" y="-51"/>
      <point x="123" y="-52" type="curve"/>
      <point x="144" y="-12"/>
      <point x="163" y="38"/>
    </contour>
  </outline>
</glyph>
<glyph name="sterling" format="1">
  <advance width="463"/>
  <unicode hex="00A3"/>
  <outline>
    <contour>
      <point x="390" y="288" type="curve" smooth="yes"/>
      <point x="391" y="297"/>
      <point x="390" y="307"/>
      <point x="388" y="317" type="curve"/>
      <point x="278" y="298"/>
      <point x="113" y="288"/>
      <point x="22" y="295" type="curve"/>
      <point x="18" y="279"/>
      <point x="20" y="253"/>
      <point x="22" y="230" type="curve"/>
      <point x="111" y="226"/>
      <point x="269" y="230"/>
      <point x="385" y="247" type="curve"/>
      <point x="388" y="259"/>
      <point x="390" y="274"/>
    </contour>
    <contour>
      <point x="238" y="181" type="curve" smooth="yes"/>
      <point x="238" y="291"/>
      <point x="143" y="322"/>
      <point x="143" y="464" type="curve" smooth="yes"/>
      <point x="143" y="550"/>
      <point x="180" y="604"/>
      <point x="242" y="604" type="curve" smooth="yes"/>
      <point x="301" y="604"/>
      <point x="336" y="554"/>
      <point x="330" y="433" type="curve"/>
      <point x="365" y="425"/>
      <point x="401" y="424"/>
      <point x="432" y="433" type="curve"/>
      <point x="430" y="587"/>
      <point x="361" y="673"/>
      <point x="243" y="673" type="curve" smooth="yes"/>
      <point x="118" y="673"/>
      <point x="35" y="582"/>
      <point x="35" y="469" type="curve" smooth="yes"/>
      <point x="35" y="372"/>
      <point x="91" y="304"/>
      <point x="128" y="257" type="curve" smooth="yes"/>
      <point x="153" y="223"/>
      <point x="163" y="198"/>
      <point x="163" y="160" type="curve" smooth="yes"/>
      <point x="163" y="111"/>
      <point x="139" y="73"/>
      <point x="75" y="37" type="curve"/>
      <point x="117" y="13" type="line"/>
      <point x="187" y="57"/>
      <point x="238" y="103"/>
    </contour>
    <contour>
      <point x="39" y="-21" type="curve"/>
      <point x="75" y="-6"/>
      <point x="99" y="1"/>
      <point x="128" y="1" type="curve" smooth="yes"/>
      <point x="204" y="1"/>
      <point x="290" y="-31"/>
      <point x="452" y="-11" type="curve"/>
      <point x="457" y="22"/>
      <point x="452" y="56"/>
      <point x="440" y="85" type="curve"/>
      <point x="378" y="66"/>
      <point x="317" y="57"/>
      <point x="262" y="56" type="curve" smooth="yes"/>
      <point x="199" y="55"/>
      <point x="171" y="67"/>
      <point x="126" y="67" type="curve" smooth="yes"/>
      <point x="97" y="67"/>
      <point x="58" y="57"/>
      <point x="19" y="37" type="curve"/>
      <point x="20" y="17"/>
      <point x="26" y="-1"/>
    </contour>
  </outline>
</glyph>
<glyph name="currency" format="1">
  <advance width="564"/>
  <unicode hex="00A4"/>
  <outline>
    <contour>
      <point x="305" y="593" type="curve" smooth="yes"/>
      <point x="181" y="593"/>
      <point x="90" y="496"/>
      <point x="90" y="335" type="curve" smooth="yes"/>
      <point x="90" y="217"/>
      <point x="149" y="119"/>
      <point x="261" y="119" type="curve" smooth="yes"/>
      <point x="403" y="119"/>
      <point x="471" y="259"/>
      <point x="471" y="405" type="curve" smooth="yes"/>
      <point x="471" y="526"/>
      <point x="402" y="593"/>
    </contour>
    <contour>
      <point x="288" y="531" type="curve" smooth="yes"/>
      <point x="346" y="531"/>
      <point x="376" y="477"/>
      <point x="376" y="371" type="curve" smooth="yes"/>
      <point x="376" y="275"/>
      <point x="337" y="181"/>
      <point x="278" y="181" type="curve" smooth="yes"/>
      <point x="222" y="181"/>
      <point x="183" y="257"/>
      <point x="183" y="349" type="curve" smooth="yes"/>
      <point x="183" y="457"/>
      <point x="226" y="531"/>
    </contour>
    <contour>
      <point x="438" y="477" type="line"/>
      <point x="476" y="531"/>
      <point x="511" y="569"/>
      <point x="556" y="609" type="curve"/>
      <point x="539" y="631"/>
      <point x="517" y="648"/>
      <point x="497" y="656" type="curve"/>
      <point x="461" y="622"/>
      <point x="426" y="577"/>
      <point x="397" y="533" type="curve"/>
    </contour>
    <contour>
      <point x="168" y="182" type="curve"/>
      <point x="123" y="238" type="line"/>
      <point x="85" y="184"/>
      <point x="48" y="145"/>
      <point x="4" y="106" type="curve"/>
      <point x="21" y="84"/>
      <point x="46" y="67"/>
      <point x="66" y="59" type="curve"/>
      <point x="102" y="93"/>
      <point x="139" y="138"/>
    </contour>
    <contour>
      <point x="487" y="80" type="curve"/>
      <point x="510" y="94"/>
      <point x="530" y="114"/>
      <point x="541" y="132" type="curve"/>
      <point x="511" y="173"/>
      <point x="470" y="214"/>
      <point x="429" y="248" type="curve"/>
      <point x="383" y="201" type="line"/>
      <point x="431" y="157"/>
      <point x="453" y="128"/>
    </contour>
    <contour>
      <point x="205" y="538" type="line"/>
      <point x="156" y="582"/>
      <point x="130" y="615"/>
      <point x="97" y="665" type="curve"/>
      <point x="74" y="650"/>
      <point x="53" y="627"/>
      <point x="44" y="608" type="curve"/>
      <point x="72" y="568"/>
      <point x="113" y="526"/>
      <point x="152" y="493" type="curve"/>
    </contour>
  </outline>
</glyph>
<glyph name="brokenbar" format="1">
  <advance width="270"/>
  <unicode hex="00A6"/>
  <outline>
    <contour>
      <point x="170" y="377" type="curve"/>
      <point x="172" y="508"/>
      <point x="176" y="633"/>
      <point x="181" y="725" type="curve"/>
      <point x="151" y="730"/>
      <point x="114" y="726"/>
      <point x="86" y="713" type="curve"/>
      <point x="84" y="607"/>
      <point x="84" y="491"/>
      <point x="88" y="371" type="curve"/>
      <point x="116" y="370"/>
      <point x="144" y="371"/>
    </contour>
    <contour>
      <point x="106" y="-169" type="curve"/>
      <point x="126" y="-171"/>
      <point x="158" y="-167"/>
      <point x="176" y="-162" type="curve"/>
      <point x="172" y="-71"/>
      <point x="169" y="69"/>
      <point x="169" y="219" type="curve"/>
      <point x="141" y="224"/>
      <point x="114" y="224"/>
      <point x="91" y="221" type="curve"/>
      <point x="94" y="84"/>
      <point x="98" y="-50"/>
    </contour>
  </outline>
</glyph>
<glyph name="copyright" format="1">
  <advance width="777"/>
  <unicode hex="00A9"/>
  <outline>
    <contour>
      <point x="525" y="267" type="curve"/>
      <point x="512" y="276"/>
      <point x="485" y="281"/>
      <point x="459" y="278" type="curve"/>
      <point x="465" y="223"/>
      <point x="443" y="188"/>
      <point x="401" y="188" type="curve" smooth="yes"/>
      <point x="357" y="188"/>
      <point x="333" y="236"/>
      <point x="333" y="320" type="curve" smooth="yes"/>
      <point x="333" y="415"/>
      <point x="367" y="480"/>
      <point x="406" y="480" type="curve"/>
      <point x="435" y="480"/>
      <point x="452" y="457"/>
      <point x="450" y="395" type="curve"/>
      <point x="489" y="395"/>
      <point x="506" y="400"/>
      <point x="530" y="411" type="curve"/>
      <point x="527" y="490"/>
      <point x="488" y="533"/>
      <point x="421" y="533" type="curve"/>
      <point x="312" y="533"/>
      <point x="241" y="429"/>
      <point x="241" y="301" type="curve" smooth="yes"/>
      <point x="241" y="186"/>
      <point x="300" y="134"/>
      <point x="380" y="134" type="curve" smooth="yes"/>
      <point x="472" y="134"/>
      <point x="520" y="185"/>
    </contour>
    <contour>
      <point x="658" y="338" type="curve" smooth="yes"/>
      <point x="658" y="142"/>
      <point x="560" y="26"/>
      <point x="389" y="26" type="curve" smooth="yes"/>
      <point x="222" y="26"/>
      <point x="119" y="139"/>
      <point x="119" y="323" type="curve" smooth="yes"/>
      <point x="119" y="502"/>
      <point x="244" y="635"/>
      <point x="402" y="635" type="curve" smooth="yes"/>
      <point x="569" y="635"/>
      <point x="658" y="516"/>
    </contour>
    <contour>
      <point x="739" y="336" type="curve" smooth="yes"/>
      <point x="739" y="531"/>
      <point x="638" y="701"/>
      <point x="414" y="701" type="curve" smooth="yes"/>
      <point x="193" y="701"/>
      <point x="38" y="543"/>
      <point x="38" y="313" type="curve" smooth="yes"/>
      <point x="38" y="96"/>
      <point x="178" y="-39"/>
      <point x="381" y="-39" type="curve" smooth="yes"/>
      <point x="609" y="-39"/>
      <point x="739" y="108"/>
    </contour>
  </outline>
</glyph>
<glyph name="logicalnot" format="1">
  <advance width="396"/>
  <unicode hex="00AC"/>
  <outline>
    <contour>
      <point x="32" y="402" type="curve"/>
      <point x="28" y="378"/>
      <point x="26" y="358"/>
      <point x="26" y="332" type="curve"/>
      <point x="128" y="318"/>
      <point x="253" y="317"/>
      <point x="358" y="332" type="curve"/>
      <point x="366" y="400" type="line"/>
      <point x="234" y="388"/>
      <point x="134" y="389"/>
    </contour>
    <contour>
      <point x="291" y="201" type="curve"/>
      <point x="314" y="197"/>
      <point x="334" y="195"/>
      <point x="360" y="195" type="curve"/>
      <point x="368" y="258"/>
      <point x="372" y="331"/>
      <point x="366" y="400" type="curve"/>
      <point x="296" y="369" type="line"/>
      <point x="300" y="310"/>
      <point x="299" y="263"/>
    </contour>
  </outline>
</glyph>
<glyph name="registered" format="1">
  <advance width="777"/>
  <unicode hex="00AE"/>
  <outline>
    <contour>
      <point x="658" y="142"/>
      <point x="560" y="26"/>
      <point x="389" y="26" type="curve" smooth="yes"/>
      <point x="222" y="26"/>
      <point x="119" y="139"/>
      <point x="119" y="323" type="curve" smooth="yes"/>
      <point x="119" y="502"/>
      <point x="244" y="635"/>
      <point x="402" y="635" type="curve" smooth="yes"/>
      <point x="569" y="635"/>
      <point x="658" y="516"/>
      <point x="658" y="338" type="curve" smooth="yes"/>
    </contour>
    <contour>
      <point x="609" y="-39"/>
      <point x="739" y="108"/>
      <point x="739" y="336" type="curve" smooth="yes"/>
      <point x="739" y="531"/>
      <point x="638" y="701"/>
      <point x="414" y="701" type="curve" smooth="yes"/>
      <point x="193" y="701"/>
      <point x="38" y="543"/>
      <point x="38" y="313" type="curve" smooth="yes"/>
      <point x="38" y="96"/>
      <point x="178" y="-39"/>
      <point x="381" y="-39" type="curve" smooth="yes"/>
    </contour>
    <contour>
      <point x="340" y="129" type="curve"/>
      <point x="347" y="203"/>
      <point x="350" y="277"/>
      <point x="350" y="349" type="curve" smooth="yes"/>
      <point x="350" y="401"/>
      <point x="348" y="452"/>
      <point x="344" y="508" type="curve"/>
      <point x="323" y="513"/>
      <point x="281" y="516"/>
      <point x="253" y="512" type="curve"/>
      <point x="265" y="408"/>
      <point x="270" y="326"/>
      <point x="270" y="223" type="curve" smooth="yes"/>
      <point x="270" y="191"/>
      <point x="269" y="165"/>
      <point x="267" y="135" type="curve"/>
      <point x="288" y="130"/>
      <point x="318" y="129"/>
    </contour>
    <contour>
      <point x="337" y="278" type="line"/>
      <point x="455" y="309"/>
      <point x="528" y="365"/>
      <point x="528" y="443" type="curve" smooth="yes"/>
      <point x="528" y="506"/>
      <point x="479" y="554"/>
      <point x="388" y="554" type="curve" smooth="yes"/>
      <point x="338" y="554"/>
      <point x="288" y="537"/>
      <point x="253" y="512" type="curve"/>
      <point x="257" y="495"/>
      <point x="269" y="474"/>
      <point x="276" y="456" type="curve"/>
      <point x="305" y="483"/>
      <point x="343" y="506"/>
      <point x="380" y="506" type="curve" smooth="yes"/>
      <point x="420" y="506"/>
      <point x="443" y="479"/>
      <point x="443" y="434" type="curve" smooth="yes"/>
      <point x="443" y="376"/>
      <point x="408" y="340"/>
      <point x="331" y="326" type="curve"/>
    </contour>
    <contour>
      <point x="556" y="148" type="curve"/>
      <point x="517" y="230"/>
      <point x="477" y="295"/>
      <point x="428" y="343" type="curve"/>
      <point x="370" y="311" type="line"/>
      <point x="416" y="249"/>
      <point x="443" y="192"/>
      <point x="480" y="109" type="curve"/>
      <point x="511" y="117"/>
      <point x="539" y="132"/>
    </contour>
  </outline>
</glyph>
<glyph name="macron" format="1">
  <advance width="260"/>
  <unicode hex="00AF"/>
  <outline>
    <contour>
      <point x="24" y="688"/>
      <point x="24" y="657"/>
      <point x="25" y="639" type="curve"/>
      <point x="63" y="625"/>
      <point x="135" y="620"/>
      <point x="232" y="632" type="curve"/>
      <point x="235" y="655"/>
      <point x="235" y="676"/>
      <point x="233" y="699" type="curve"/>
      <point x="164" y="691"/>
      <point x="98" y="693"/>
      <point x="28" y="705" type="curve"/>
    </contour>
    <contour>
      <point x="127" y="560" type="move" name="_top"/>
    </contour>
  </outline>
</glyph>
<glyph name="degree" format="1">
  <advance width="255"/>
  <unicode hex="00B0"/>
  <outline>
    <contour>
      <point x="136" y="743" type="curve" smooth="yes"/>
      <point x="55" y="743"/>
      <point x="10" y="696"/>
      <point x="10" y="630" type="curve" smooth="yes"/>
      <point x="10" y="564"/>
      <point x="53" y="519"/>
      <point x="121" y="519" type="curve" smooth="yes"/>
      <point x="201" y="519"/>
      <point x="245" y="568"/>
      <point x="245" y="648" type="curve" smooth="yes"/>
      <point x="245" y="704"/>
      <point x="204" y="743"/>
    </contour>
    <contour>
      <point x="130" y="699" type="curve" smooth="yes"/>
      <point x="154" y="699"/>
      <point x="179" y="683"/>
      <point x="179" y="639" type="curve" smooth="yes"/>
      <point x="179" y="593"/>
      <point x="154" y="566"/>
      <point x="125" y="566" type="curve" smooth="yes"/>
      <point x="94" y="566"/>
      <point x="73" y="589"/>
      <point x="73" y="628" type="curve" smooth="yes"/>
      <point x="73" y="671"/>
      <point x="97" y="699"/>
    </contour>
  </outline>
</glyph>
<glyph name="acute" format="1">
  <advance width="260"/>
  <unicode hex="00B4"/>
  <outline>
    <contour>
      <point x="125" y="571" type="curve"/>
      <point x="163" y="630"/>
      <point x="184" y="685"/>
      <point x="191" y="741" type="curve"/>
      <point x="163" y="751"/>
      <point x="122" y="751"/>
      <point x="97" y="748" type="curve"/>
      <point x="92" y="694"/>
      <point x="80" y="639"/>
      <point x="59" y="580" type="curve"/>
      <point x="81" y="574"/>
      <point x="101" y="571"/>
    </contour>
    <contour>
      <point x="88" y="560" type="move" name="_top"/>
    </contour>
  </outline>
</glyph>
<glyph name="uni00B5" format="1">
  <advance width="474"/>
  <unicode hex="00B5"/>
  <outline>
    <contour>
      <point x="353" y="-9" type="curve" smooth="yes"/>
      <point x="381" y="-9"/>
      <point x="411" y="-3"/>
      <point x="429" y="5" type="curve"/>
      <point x="429" y="172"/>
      <point x="417" y="435"/>
      <point x="407" y="563" type="curve"/>
      <point x="377" y="563"/>
      <point x="336" y="558"/>
      <point x="315" y="551" type="curve"/>
      <point x="331" y="376"/>
      <point x="321" y="116"/>
      <point x="308" y="-4" type="curve"/>
      <point x="326" y="-7"/>
      <point x="338" y="-9"/>
    </contour>
    <contour>
      <point x="83" y="117" type="line"/>
      <point x="94" y="35"/>
      <point x="125" y="-2"/>
      <point x="180" y="-2" type="curve" smooth="yes"/>
      <point x="239" y="-2"/>
      <point x="296" y="49"/>
      <point x="346" y="164" type="curve"/>
      <point x="328" y="227" type="line"/>
      <point x="297" y="131"/>
      <point x="247" y="82"/>
      <point x="204" y="82" type="curve" smooth="yes"/>
      <point x="162" y="82"/>
      <point x="146" y="114"/>
      <point x="146" y="185" type="curve" smooth="yes"/>
      <point x="146" y="285"/>
      <point x="162" y="396"/>
      <point x="181" y="500" type="curve"/>
      <point x="150" y="508"/>
      <point x="112" y="514"/>
      <point x="80" y="514" type="curve"/>
      <point x="65" y="442"/>
      <point x="42" y="313"/>
      <point x="39" y="179" type="curve" smooth="yes"/>
      <point x="35" y="62"/>
      <point x="36" y="-39"/>
      <point x="40" y="-190" type="curve"/>
      <point x="56" y="-197"/>
      <point x="77" y="-203"/>
      <point x="102" y="-203" type="curve" smooth="yes"/>
      <point x="117" y="-203"/>
      <point x="129" y="-202"/>
      <point x="145" y="-198" type="curve"/>
      <point x="119" y="-97"/>
      <point x="101" y="62"/>
      <point x="101" y="188" type="curve"/>
    </contour>
  </outline>
</glyph>
<glyph name="paragraph" format="1">
  <advance width="669"/>
  <unicode hex="00B6"/>
  <outline>
    <contour>
      <point x="568" y="-280" type="curve"/>
      <point x="598" y="62"/>
      <point x="606" y="407"/>
      <point x="598" y="708" type="curve"/>
      <point x="488" y="746"/>
      <point x="426" y="762"/>
      <point x="329" y="762" type="curve" smooth="yes"/>
      <point x="155" y="762"/>
      <point x="61" y="676"/>
      <point x="61" y="556" type="curve" smooth="yes"/>
      <point x="61" y="404"/>
      <point x="170" y="301"/>
      <point x="394" y="234" type="curve"/>
      <point x="393" y="97"/>
      <point x="381" y="-89"/>
      <point x="369" y="-285" type="curve"/>
      <point x="398" y="-286"/>
      <point x="422" y="-284"/>
      <point x="440" y="-280" type="curve"/>
      <point x="474" y="116"/>
      <point x="479" y="349"/>
      <point x="473" y="669" type="curve"/>
      <point x="489" y="666"/>
      <point x="505" y="662"/>
      <point x="520" y="656" type="curve"/>
      <point x="535" y="273"/>
      <point x="523" y="107"/>
      <point x="498" y="-287" type="curve"/>
      <point x="527" y="-288"/>
      <point x="551" y="-284"/>
    </contour>
  </outline>
</glyph>
<glyph name="guillemotright" format="1">
  <advance width="502"/>
  <unicode hex="00BB"/>
  <outline>
    <contour>
      <point x="87" y="53" type="curve"/>
      <point x="165" y="115"/>
      <point x="225" y="182"/>
      <point x="269" y="265" type="curve"/>
      <point x="203" y="292" type="line"/>
      <point x="163" y="230"/>
      <point x="107" y="172"/>
      <point x="22" y="114" type="curve"/>
      <point x="41" y="85"/>
      <point x="59" y="68"/>
    </contour>
    <contour>
      <point x="24" y="399" type="curve"/>
      <point x="83" y="325"/>
      <point x="141" y="271"/>
      <point x="221" y="225" type="curve"/>
      <point x="269" y="265" type="line"/>
      <point x="205" y="311"/>
      <point x="147" y="371"/>
      <point x="93" y="457" type="curve"/>
      <point x="65" y="441"/>
      <point x="39" y="421"/>
    </contour>
    <contour>
      <point x="311" y="53" type="curve"/>
      <point x="389" y="115"/>
      <point x="449" y="182"/>
      <point x="493" y="265" type="curve"/>
      <point x="427" y="292" type="line"/>
      <point x="387" y="230"/>
      <point x="331" y="172"/>
      <point x="246" y="114" type="curve"/>
      <point x="265" y="85"/>
      <point x="282" y="68"/>
    </contour>
    <contour>
      <point x="248" y="399" type="curve"/>
      <point x="307" y="325"/>
      <point x="365" y="271"/>
      <point x="445" y="225" type="curve"/>
      <point x="493" y="265" type="line"/>
      <point x="429" y="311"/>
      <point x="371" y="371"/>
      <point x="317" y="457" type="curve"/>
      <point x="289" y="441"/>
      <point x="263" y="421"/>
    </contour>
  </outline>
</glyph>
<glyph name="AE" format="1">
  <advance width="842"/>
  <unicode hex="00C6"/>
  <outline>
    <contour>
      <point x="387" y="687" type="curve"/>
      <point x="355" y="694"/>
      <point x="324" y="700"/>
      <point x="290" y="702" type="curve"/>
      <point x="219" y="437"/>
      <point x="151" y="253"/>
      <point x="14" y="22" type="curve"/>
      <point x="33" y="0"/>
      <point x="63" y="-19"/>
      <point x="104" y="-27" type="curve"/>
      <point x="221" y="182"/>
      <point x="316" y="405"/>
    </contour>
    <contour>
      <point x="804" y="-15" type="curve"/>
      <point x="805" y="9"/>
      <point x="802" y="50"/>
      <point x="796" y="71" type="curve"/>
      <point x="710" y="53"/>
      <point x="604" y="42"/>
      <point x="517" y="39" type="curve"/>
      <point x="501" y="149"/>
      <point x="492" y="256"/>
      <point x="487" y="341" type="curve" smooth="yes"/>
      <point x="478" y="478"/>
      <point x="479" y="588"/>
      <point x="484" y="679" type="curve"/>
      <point x="365" y="686" type="line"/>
      <point x="368" y="492"/>
      <point x="393" y="205"/>
      <point x="428" y="-44" type="curve"/>
      <point x="548" y="-42"/>
      <point x="700" y="-31"/>
    </contour>
    <contour>
      <point x="735" y="339" type="curve"/>
      <point x="736" y="372"/>
      <point x="733" y="398"/>
      <point x="727" y="424" type="curve"/>
      <point x="626" y="417"/>
      <point x="548" y="403"/>
      <point x="457" y="384" type="curve"/>
      <point x="462" y="309" type="line"/>
      <point x="554" y="325"/>
      <point x="624" y="333"/>
    </contour>
    <contour>
      <point x="771" y="644" type="curve"/>
      <point x="776" y="668"/>
      <point x="780" y="699"/>
      <point x="780" y="732" type="curve"/>
      <point x="616" y="729"/>
      <point x="504" y="711"/>
      <point x="365" y="686" type="curve"/>
      <point x="384" y="609" type="line"/>
      <point x="505" y="630"/>
      <point x="630" y="643"/>
    </contour>
    <contour>
      <point x="435" y="262" type="line"/>
      <point x="345" y="260"/>
      <point x="257" y="252"/>
      <point x="175" y="236" type="curve"/>
      <point x="179" y="164" type="line"/>
      <point x="258" y="178"/>
      <point x="352" y="184"/>
      <point x="445" y="185" type="curve"/>
    </contour>
  </outline>
</glyph>
<glyph name="multiply" format="1">
  <advance width="397"/>
  <unicode hex="00D7"/>
  <outline>
    <contour>
      <point x="301" y="470" type="curve"/>
      <point x="216" y="387"/>
      <point x="135" y="299"/>
      <point x="56" y="219" type="curve"/>
      <point x="70" y="200"/>
      <point x="85" y="184"/>
      <point x="102" y="169" type="curve"/>
      <point x="191" y="257"/>
      <point x="272" y="342"/>
      <point x="345" y="416" type="curve"/>
      <point x="334" y="435"/>
      <point x="320" y="454"/>
    </contour>
    <contour>
      <point x="297" y="168" type="curve"/>
      <point x="315" y="182"/>
      <point x="331" y="197"/>
      <point x="348" y="215" type="curve"/>
      <point x="279" y="306"/>
      <point x="183" y="401"/>
      <point x="99" y="465" type="curve"/>
      <point x="81" y="449"/>
      <point x="66" y="435"/>
      <point x="51" y="416" type="curve"/>
      <point x="156" y="330"/>
      <point x="228" y="255"/>
    </contour>
  </outline>
</glyph>
<glyph name="germandbls" format="1">
  <advance width="615"/>
  <unicode hex="00DF"/>
  <outline>
    <contour>
      <point x="126" y="381" type="line"/>
      <point x="77" y="388"/>
      <point x="39" y="396"/>
      <point x="20" y="404" type="curve"/>
      <point x="20" y="418"/>
      <point x="24" y="452"/>
      <point x="31" y="458" type="curve"/>
      <point x="57" y="455"/>
      <point x="89" y="451"/>
      <point x="126" y="449" type="curve"/>
    </contour>
    <contour>
      <point x="360" y="410" type="curve" smooth="yes"/>
      <point x="360" y="285"/>
      <point x="591" y="287"/>
      <point x="591" y="124" type="curve" smooth="yes"/>
      <point x="591" y="28"/>
      <point x="532" y="-41"/>
      <point x="431" y="-41" type="curve" smooth="yes"/>
      <point x="336" y="-41"/>
      <point x="266" y="29"/>
      <point x="263" y="142" type="curve"/>
      <point x="286" y="151"/>
      <point x="318" y="156"/>
      <point x="342" y="155" type="curve"/>
      <point x="340" y="72"/>
      <point x="372" y="22"/>
      <point x="429" y="22" type="curve" smooth="yes"/>
      <point x="473" y="22"/>
      <point x="495" y="55"/>
      <point x="495" y="102" type="curve" smooth="yes"/>
      <point x="495" y="225"/>
      <point x="277" y="216"/>
      <point x="277" y="367" type="curve" smooth="yes"/>
      <point x="277" y="416"/>
      <point x="293" y="450"/>
      <point x="328" y="488" type="curve" smooth="yes"/>
      <point x="359" y="523"/>
      <point x="368" y="545"/>
      <point x="368" y="585" type="curve" smooth="yes"/>
      <point x="368" y="625"/>
      <point x="342" y="658"/>
      <point x="298" y="658" type="curve" smooth="yes"/>
      <point x="238" y="658"/>
      <point x="182" y="609"/>
      <point x="182" y="448" type="curve" smooth="yes"/>
      <point x="182" y="276"/>
      <point x="210" y="94"/>
      <point x="234" y="-2" type="curve"/>
      <point x="204" y="-12"/>
      <point x="161" y="-21"/>
      <point x="124" y="-21" type="curve"/>
      <point x="111" y="38"/>
      <point x="85" y="236"/>
      <point x="85" y="398" type="curve" smooth="yes"/>
      <point x="85" y="637"/>
      <point x="175" y="727"/>
      <point x="295" y="727" type="curve" smooth="yes"/>
      <point x="386" y="727"/>
      <point x="440" y="662"/>
      <point x="440" y="593" type="curve" smooth="yes"/>
      <point x="440" y="555"/>
      <point x="425" y="529"/>
      <point x="399" y="501" type="curve" smooth="yes"/>
      <point x="372" y="470"/>
      <point x="360" y="446"/>
    </contour>
  </outline>
</glyph>
<glyph name="ae" format="1">
  <advance width="743"/>
  <unicode hex="00E6"/>
  <outline>
    <contour>
      <point x="254" y="531" type="curve" smooth="yes"/>
      <point x="153" y="531"/>
      <point x="69" y="460"/>
      <point x="52" y="380" type="curve"/>
      <point x="66" y="350"/>
      <point x="97" y="333"/>
      <point x="145" y="329" type="curve"/>
      <point x="148" y="409"/>
      <point x="190" y="465"/>
      <point x="243" y="465" type="curve" smooth="yes"/>
      <point x="294" y="465"/>
      <point x="318" y="426"/>
      <point x="318" y="327" type="curve" smooth="yes"/>
      <point x="319" y="305"/>
      <point x="319" y="277"/>
      <point x="317" y="236" type="curve"/>
      <point x="383" y="251"/>
      <point x="393" y="233"/>
      <point x="402" y="241" type="curve"/>
      <point x="411" y="347" type="line"/>
      <point x="405" y="430"/>
      <point x="368" y="531"/>
    </contour>
    <contour>
      <point x="388" y="260" type="line"/>
      <point x="437" y="240"/>
      <point x="489" y="230"/>
      <point x="536" y="230" type="curve" smooth="yes"/>
      <point x="589" y="230"/>
      <point x="636" y="235"/>
      <point x="670" y="249" type="curve"/>
      <point x="683" y="282"/>
      <point x="695" y="332"/>
      <point x="695" y="383" type="curve" smooth="yes"/>
      <point x="695" y="466"/>
      <point x="642" y="526"/>
      <point x="557" y="526" type="curve" smooth="yes"/>
      <point x="416" y="526"/>
      <point x="315" y="347"/>
      <point x="315" y="207" type="curve" smooth="yes"/>
      <point x="315" y="80"/>
      <point x="380" y="-26"/>
      <point x="497" y="-26" type="curve" smooth="yes"/>
      <point x="608" y="-26"/>
      <point x="690" y="61"/>
      <point x="709" y="120" type="curve"/>
      <point x="689" y="141"/>
      <point x="657" y="158"/>
      <point x="629" y="163" type="curve"/>
      <point x="612" y="102"/>
      <point x="558" y="42"/>
      <point x="509" y="42" type="curve" smooth="yes"/>
      <point x="448" y="42"/>
      <point x="418" y="115"/>
      <point x="418" y="206" type="curve" smooth="yes"/>
      <point x="418" y="321"/>
      <point x="471" y="461"/>
      <point x="545" y="461" type="curve" smooth="yes"/>
      <point x="586" y="461"/>
      <point x="597" y="433"/>
      <point x="597" y="389" type="curve" smooth="yes"/>
      <point x="597" y="357"/>
      <point x="590" y="321"/>
      <point x="583" y="295" type="curve"/>
      <point x="575" y="293"/>
      <point x="555" y="291"/>
      <point x="542" y="291" type="curve" smooth="yes"/>
      <point x="506" y="291"/>
      <point x="445" y="296"/>
      <point x="390" y="326" type="curve"/>
    </contour>
    <contour>
      <point x="331" y="263" type="line"/>
      <point x="308" y="265"/>
      <point x="288" y="266"/>
      <point x="247" y="266" type="curve" smooth="yes"/>
      <point x="91" y="266"/>
      <point x="26" y="210"/>
      <point x="26" y="128" type="curve" smooth="yes"/>
      <point x="26" y="48"/>
      <point x="84" y="-6"/>
      <point x="179" y="-6" type="curve" smooth="yes"/>
      <point x="250" y="-6"/>
      <point x="311" y="19"/>
      <point x="366" y="87" type="curve"/>
      <point x="365" y="141" type="line"/>
      <point x="321" y="83"/>
      <point x="259" y="54"/>
      <point x="205" y="54" type="curve" smooth="yes"/>
      <point x="158" y="54"/>
      <point x="133" y="81"/>
      <point x="133" y="123" type="curve" smooth="yes"/>
      <point x="133" y="178"/>
      <point x="178" y="223"/>
      <point x="330" y="212" type="curve"/>
    </contour>
  </outline>
</glyph>
<glyph name="ccedilla" format="1">
  <advance width="447"/>
  <unicode hex="00E7"/>
  <outline>
    <contour>
      <point x="317" y="351" type="curve"/>
      <point x="356" y="351"/>
      <point x="389" y="357"/>
      <point x="416" y="370" type="curve"/>
      <point x="416" y="468"/>
      <point x="366" y="543"/>
      <point x="256" y="543" type="curve" smooth="yes"/>
      <point x="116" y="543"/>
      <point x="26" y="382"/>
      <point x="26" y="201" type="curve" smooth="yes"/>
      <point x="26" y="81"/>
      <point x="76" y="-24"/>
      <point x="207" y="-24" type="curve" smooth="yes"/>
      <point x="320" y="-24"/>
      <point x="394" y="56"/>
      <point x="411" y="119" type="curve"/>
      <point x="396" y="139"/>
      <point x="374" y="153"/>
      <point x="350" y="160" type="curve"/>
      <point x="323" y="99"/>
      <point x="280" y="43"/>
      <point x="225" y="43" type="curve" smooth="yes"/>
      <point x="159" y="43"/>
      <point x="132" y="118"/>
      <point x="132" y="206" type="curve" smooth="yes"/>
      <point x="132" y="340"/>
      <point x="183" y="479"/>
      <point x="252" y="479" type="curve" smooth="yes"/>
      <point x="301" y="479"/>
      <point x="317" y="427"/>
    </contour>
    <contour>
      <point x="210" y="-231" type="curve" smooth="yes"/>
      <point x="282" y="-231"/>
      <point x="329" y="-193"/>
      <point x="329" y="-133" type="curve" smooth="yes"/>
      <point x="329" y="-86"/>
      <point x="293" y="-54"/>
      <point x="241" y="-54" type="curve" smooth="yes"/>
      <point x="215" y="-54"/>
      <point x="195" y="-62"/>
      <point x="170" y="-76" type="curve"/>
      <point x="199" y="-90" type="line"/>
      <point x="220" y="-58"/>
      <point x="229" y="-30"/>
      <point x="232" y="-4" type="curve"/>
      <point x="181" y="6" type="line"/>
      <point x="179" y="-25"/>
      <point x="168" y="-57"/>
      <point x="151" y="-85" type="curve"/>
      <point x="156" y="-93"/>
      <point x="167" y="-103"/>
      <point x="176" y="-110" type="curve"/>
      <point x="188" y="-104"/>
      <point x="199" y="-101"/>
      <point x="210" y="-101" type="curve" smooth="yes"/>
      <point x="236" y="-101"/>
      <point x="252" y="-117"/>
      <point x="252" y="-139" type="curve" smooth="yes"/>
      <point x="252" y="-165"/>
      <point x="235" y="-180"/>
      <point x="208" y="-180" type="curve" smooth="yes"/>
      <point x="183" y="-180"/>
      <point x="163" y="-160"/>
      <point x="153" y="-132" type="curve"/>
      <point x="134" y="-140"/>
      <point x="131" y="-142"/>
      <point x="105" y="-158" type="curve"/>
      <point x="123" y="-207"/>
      <point x="160" y="-231"/>
    </contour>
  </outline>
</glyph>
<glyph name="divide" format="1">
  <advance width="397"/>
  <unicode hex="00F7"/>
  <outline>
    <contour>
      <point x="34" y="360" type="curve"/>
      <point x="30" y="336"/>
      <point x="28" y="316"/>
      <point x="28" y="290" type="curve"/>
      <point x="130" y="277"/>
      <point x="255" y="276"/>
      <point x="360" y="290" type="curve"/>
      <point x="365" y="312"/>
      <point x="368" y="335"/>
      <point x="368" y="358" type="curve"/>
      <point x="236" y="346"/>
      <point x="136" y="347"/>
    </contour>
    <contour>
      <point x="266" y="406" type="curve"/>
      <point x="272" y="441"/>
      <point x="274" y="472"/>
      <point x="275" y="508" type="curve"/>
      <point x="226" y="515"/>
      <point x="186" y="510"/>
      <point x="157" y="503" type="curve"/>
      <point x="157" y="468"/>
      <point x="159" y="445"/>
      <point x="161" y="406" type="curve"/>
      <point x="195" y="401"/>
      <point x="225" y="401"/>
    </contour>
    <contour>
      <point x="262" y="125" type="curve"/>
      <point x="267" y="161"/>
      <point x="269" y="192"/>
      <point x="271" y="228" type="curve"/>
      <point x="221" y="235"/>
      <point x="181" y="230"/>
      <point x="153" y="223" type="curve"/>
      <point x="153" y="187"/>
      <point x="155" y="165"/>
      <point x="157" y="126" type="curve"/>
      <point x="191" y="121"/>
      <point x="221" y="121"/>
    </contour>
  </outline>
</glyph>
<glyph name="oslash" format="1">
  <advance width="474"/>
  <unicode hex="00F8"/>
  <outline>
    <contour>
      <point x="260" y="540" type="curve" smooth="yes"/>
      <point x="124" y="540"/>
      <point x="28" y="417"/>
      <point x="28" y="240" type="curve" smooth="yes"/>
      <point x="28" y="106"/>
      <point x="87" y="-10"/>
      <point x="210" y="-10" type="curve" smooth="yes"/>
      <point x="365" y="-10"/>
      <point x="436" y="158"/>
      <point x="436" y="325" type="curve" smooth="yes"/>
      <point x="436" y="457"/>
      <point x="371" y="540"/>
    </contour>
    <contour>
      <point x="237" y="470" type="curve" smooth="yes"/>
      <point x="295" y="470"/>
      <point x="328" y="417"/>
      <point x="328" y="280" type="curve" smooth="yes"/>
      <point x="328" y="160"/>
      <point x="284" y="59"/>
      <point x="230" y="59" type="curve" smooth="yes"/>
      <point x="160" y="59"/>
      <point x="132" y="168"/>
      <point x="132" y="254" type="curve" smooth="yes"/>
      <point x="132" y="381"/>
      <point x="183" y="470"/>
    </contour>
    <contour>
      <point x="93" y="-67" type="curve"/>
      <point x="213" y="135"/>
      <point x="317" y="333"/>
      <point x="420" y="559" type="curve"/>
      <point x="398" y="579"/>
      <point x="383" y="588"/>
      <point x="358" y="599" type="curve"/>
      <point x="243" y="358"/>
      <point x="144" y="171"/>
      <point x="31" y="-31" type="curve"/>
      <point x="49" y="-47"/>
      <point x="68" y="-59"/>
    </contour>
  </outline>
</glyph>
<glyph name="Aogonek" format="1">
  <advance width="628"/>
  <unicode hex="0104"/>
  <outline>
    <contour>
      <point x="613" y="-74" type="curve"/>
      <point x="565" y="246"/>
      <point x="495" y="463"/>
      <point x="369" y="694" type="curve"/>
      <point x="337" y="702"/>
      <point x="309" y="705"/>
      <point x="267" y="706" type="curve"/>
      <point x="205" y="448"/>
      <point x="146" y="262"/>
      <point x="13" y="24" type="curve"/>
      <point x="33" y="2"/>
      <point x="62" y="-16"/>
      <point x="103" y="-24" type="curve"/>
      <point x="212" y="188"/>
      <point x="276" y="391"/>
      <point x="328" y="622" type="curve"/>
      <point x="296" y="627" type="line"/>
      <point x="401" y="416"/>
      <point x="462" y="214"/>
      <point x="507" y="-107" type="curve"/>
      <point x="550" y="-101"/>
      <point x="583" y="-92"/>
    </contour>
    <contour>
      <point x="486" y="201" type="curve"/>
      <point x="478" y="279" type="line"/>
      <point x="373" y="279"/>
      <point x="260" y="270"/>
      <point x="162" y="251" type="curve"/>
      <point x="166" y="179" type="line"/>
      <point x="259" y="196"/>
      <point x="373" y="203"/>
    </contour>
    <contour>
      <point x="585" y="-85" type="curve"/>
      <point x="552" y="-73" type="line"/>
      <point x="483" y="-116"/>
      <point x="446" y="-161"/>
      <point x="446" y="-216" type="curve" smooth="yes"/>
      <point x="446" y="-262"/>
      <point x="480" y="-292"/>
      <point x="533" y="-292" type="curve" smooth="yes"/>
      <point x="581" y="-292"/>
      <point x="614" y="-270"/>
      <point x="638" y="-233" type="curve"/>
      <point x="631" y="-215"/>
      <point x="623" y="-200"/>
      <point x="610" y="-190" type="curve"/>
      <point x="593" y="-220"/>
      <point x="575" y="-233"/>
      <point x="552" y="-233" type="curve" smooth="yes"/>
      <point x="531" y="-233"/>
      <point x="519" y="-219"/>
      <point x="519" y="-196" type="curve" smooth="yes"/>
      <point x="519" y="-161"/>
      <point x="539" y="-124"/>
    </contour>
  </outline>
</glyph>
<glyph name="aogonek" format="1">
  <advance width="474"/>
  <unicode hex="0105"/>
  <outline>
    <contour>
      <point x="362" y="-35" type="curve"/>
      <point x="335" y="-35"/>
      <point x="304" y="-30"/>
      <point x="277" y="-22" type="curve"/>
      <point x="310" y="131"/>
      <point x="319" y="197"/>
      <point x="319" y="319" type="curve" smooth="yes"/>
      <point x="319" y="430"/>
      <point x="297" y="477"/>
      <point x="243" y="477" type="curve" smooth="yes"/>
      <point x="190" y="477"/>
      <point x="148" y="422"/>
      <point x="145" y="341" type="curve"/>
      <point x="97" y="345"/>
      <point x="66" y="362"/>
      <point x="52" y="392" type="curve"/>
      <point x="68" y="469"/>
      <point x="147" y="543"/>
      <point x="254" y="543" type="curve" smooth="yes"/>
      <point x="391" y="543"/>
      <point x="423" y="444"/>
      <point x="423" y="345" type="curve" smooth="yes"/>
      <point x="423" y="245"/>
      <point x="391" y="72"/>
    </contour>
    <contour>
      <point x="330" y="225" type="line"/>
      <point x="173" y="234"/>
      <point x="133" y="190"/>
      <point x="133" y="139" type="curve" smooth="yes"/>
      <point x="133" y="94"/>
      <point x="164" y="66"/>
      <point x="211" y="66" type="curve" smooth="yes"/>
      <point x="254" y="66"/>
      <point x="291" y="83"/>
      <point x="321" y="113" type="curve"/>
      <point x="315" y="56" type="line"/>
      <point x="288" y="27"/>
      <point x="242" y="6"/>
      <point x="186" y="6" type="curve" smooth="yes"/>
      <point x="90" y="6"/>
      <point x="26" y="60"/>
      <point x="26" y="144" type="curve" smooth="yes"/>
      <point x="26" y="227"/>
      <point x="92" y="279"/>
      <point x="247" y="279" type="curve" smooth="yes"/>
      <point x="288" y="279"/>
      <point x="308" y="278"/>
      <point x="331" y="276" type="curve"/>
    </contour>
    <contour>
      <point x="320" y="-26" type="line"/>
      <point x="274" y="-65"/>
      <point x="254" y="-101"/>
      <point x="254" y="-137" type="curve" smooth="yes"/>
      <point x="254" y="-159"/>
      <point x="266" y="-173"/>
      <point x="287" y="-173" type="curve" smooth="yes"/>
      <point x="310" y="-173"/>
      <point x="328" y="-161"/>
      <point x="345" y="-131" type="curve"/>
      <point x="358" y="-141"/>
      <point x="366" y="-156"/>
      <point x="373" y="-174" type="curve"/>
      <point x="349" y="-210"/>
      <point x="316" y="-232"/>
      <point x="267" y="-232" type="curve" smooth="yes"/>
      <point x="215" y="-232"/>
      <point x="180" y="-202"/>
      <point x="180" y="-157" type="curve" smooth="yes"/>
      <point x="180" y="-101"/>
      <point x="218" y="-57"/>
      <point x="287" y="-13" type="curve"/>
    </contour>
  </outline>
</glyph>
<glyph name="Eogonek" format="1">
  <advance width="541"/>
  <unicode hex="0118"/>
  <outline>
    <contour>
      <point x="503" y="-12" type="curve"/>
      <point x="504" y="12"/>
      <point x="502" y="52"/>
      <point x="495" y="74" type="curve"/>
      <point x="410" y="55"/>
      <point x="303" y="44"/>
      <point x="216" y="42" type="curve"/>
      <point x="201" y="151"/>
      <point x="191" y="259"/>
      <point x="186" y="343" type="curve" smooth="yes"/>
      <point x="178" y="481"/>
      <point x="178" y="591"/>
      <point x="183" y="682" type="curve"/>
      <point x="60" y="688" type="line"/>
      <point x="63" y="494"/>
      <point x="91" y="198"/>
      <point x="128" y="-41" type="curve"/>
      <point x="248" y="-39"/>
      <point x="400" y="-28"/>
    </contour>
    <contour>
      <point x="434" y="342" type="curve"/>
      <point x="435" y="375"/>
      <point x="432" y="401"/>
      <point x="426" y="427" type="curve"/>
      <point x="326" y="420"/>
      <point x="247" y="405"/>
      <point x="157" y="386" type="curve"/>
      <point x="161" y="311" type="line"/>
      <point x="253" y="327"/>
      <point x="323" y="335"/>
    </contour>
    <contour>
      <point x="471" y="646" type="curve"/>
      <point x="476" y="671"/>
      <point x="480" y="702"/>
      <point x="479" y="735" type="curve"/>
      <point x="316" y="732"/>
      <point x="198" y="713"/>
      <point x="60" y="688" type="curve"/>
      <point x="84" y="611" type="line"/>
      <point x="205" y="633"/>
      <point x="330" y="646"/>
    </contour>
    <contour>
      <point x="503" y="-12" type="curve"/>
      <point x="471" y="0" type="line"/>
      <point x="401" y="-44"/>
      <point x="364" y="-88"/>
      <point x="364" y="-141" type="curve" smooth="yes"/>
      <point x="364" y="-189"/>
      <point x="397" y="-219"/>
      <point x="449" y="-219" type="curve" smooth="yes"/>
      <point x="498" y="-219"/>
      <point x="532" y="-197"/>
      <point x="557" y="-161" type="curve"/>
      <point x="550" y="-142"/>
      <point x="541" y="-128"/>
      <point x="528" y="-117" type="curve"/>
      <point x="511" y="-147"/>
      <point x="493" y="-160"/>
      <point x="470" y="-160" type="curve" smooth="yes"/>
      <point x="449" y="-160"/>
      <point x="438" y="-146"/>
      <point x="438" y="-123" type="curve" smooth="yes"/>
      <point x="438" y="-88"/>
      <point x="457" y="-51"/>
    </contour>
  </outline>
</glyph>
<glyph name="eogonek" format="1">
  <advance width="461"/>
  <unicode hex="0119"/>
  <outline>
    <contour>
      <point x="347" y="18" type="curve" smooth="yes"/>
      <point x="308" y="-9"/>
      <point x="291" y="-49"/>
      <point x="291" y="-82" type="curve" smooth="yes"/>
      <point x="291" y="-106"/>
      <point x="304" y="-124"/>
      <point x="324" y="-124" type="curve" smooth="yes"/>
      <point x="346" y="-124"/>
      <point x="364" y="-112"/>
      <point x="382" y="-81" type="curve"/>
      <point x="394" y="-92"/>
      <point x="403" y="-107"/>
      <point x="410" y="-125" type="curve"/>
      <point x="385" y="-161"/>
      <point x="350" y="-180"/>
      <point x="305" y="-180" type="curve" smooth="yes"/>
      <point x="253" y="-180"/>
      <point x="217" y="-150"/>
      <point x="217" y="-101" type="curve" smooth="yes"/>
      <point x="217" y="-59"/>
      <point x="241" y="-23"/>
      <point x="293" y="14" type="curve"/>
      <point x="287" y="-14" type="line"/>
      <point x="265" y="-22"/>
      <point x="241" y="-26"/>
      <point x="215" y="-26" type="curve" smooth="yes"/>
      <point x="89" y="-26"/>
      <point x="30" y="78"/>
      <point x="30" y="205" type="curve" smooth="yes"/>
      <point x="30" y="358"/>
      <point x="132" y="526"/>
      <point x="271" y="526" type="curve" smooth="yes"/>
      <point x="362" y="526"/>
      <point x="412" y="466"/>
      <point x="412" y="383" type="curve" smooth="yes"/>
      <point x="412" y="332"/>
      <point x="401" y="282"/>
      <point x="388" y="249" type="curve"/>
      <point x="353" y="235"/>
      <point x="307" y="230"/>
      <point x="254" y="230" type="curve" smooth="yes"/>
      <point x="207" y="230"/>
      <point x="154" y="240"/>
      <point x="106" y="260" type="curve"/>
      <point x="108" y="326" type="line"/>
      <point x="163" y="296"/>
      <point x="224" y="291"/>
      <point x="260" y="291" type="curve" smooth="yes"/>
      <point x="272" y="291"/>
      <point x="293" y="293"/>
      <point x="301" y="295" type="curve"/>
      <point x="308" y="321"/>
      <point x="315" y="357"/>
      <point x="315" y="389" type="curve" smooth="yes"/>
      <point x="315" y="433"/>
      <point x="304" y="461"/>
      <point x="263" y="461" type="curve" smooth="yes"/>
      <point x="189" y="461"/>
      <point x="135" y="321"/>
      <point x="135" y="206" type="curve" smooth="yes"/>
      <point x="135" y="115"/>
      <point x="166" y="42"/>
      <point x="227" y="42" type="curve" smooth="yes"/>
      <point x="275" y="42"/>
      <point x="329" y="102"/>
      <point x="347" y="163" type="curve"/>
      <point x="375" y="158"/>
      <point x="407" y="141"/>
      <point x="427" y="120" type="curve"/>
      <point x="408" y="73"/>
      <point x="385" y="46"/>
    </contour>
  </outline>
</glyph>
<glyph name="Iogonek" format="1">
  <advance width="258"/>
  <unicode hex="012E"/>
  <outline>
    <contour>
      <point x="173" y="-18" type="curve"/>
      <point x="182" y="181"/>
      <point x="183" y="340"/>
      <point x="183" y="496" type="curve" smooth="yes"/>
      <point x="183" y="562"/>
      <point x="182" y="618"/>
      <point x="179" y="677" type="curve"/>
      <point x="162" y="680"/>
      <point x="150" y="682"/>
      <point x="132" y="682" type="curve" smooth="yes"/>
      <point x="103" y="682"/>
      <point x="79" y="674"/>
      <point x="62" y="664" type="curve"/>
      <point x="81" y="447"/>
      <point x="86" y="205"/>
      <point x="83" y="-29" type="curve"/>
      <point x="116" y="-28"/>
      <point x="154" y="-23"/>
    </contour>
    <contour>
      <point x="162" y="-20" type="curve"/>
      <point x="130" y="-8" type="line"/>
      <point x="60" y="-52"/>
      <point x="23" y="-96"/>
      <point x="23" y="-151" type="curve" smooth="yes"/>
      <point x="23" y="-197"/>
      <point x="57" y="-227"/>
      <point x="110" y="-227" type="curve" smooth="yes"/>
      <point x="159" y="-227"/>
      <point x="191" y="-205"/>
      <point x="216" y="-169" type="curve"/>
      <point x="209" y="-150"/>
      <point x="200" y="-136"/>
      <point x="188" y="-125" type="curve"/>
      <point x="170" y="-155"/>
      <point x="152" y="-168"/>
      <point x="130" y="-168" type="curve" smooth="yes"/>
      <point x="108" y="-168"/>
      <point x="97" y="-154"/>
      <point x="97" y="-131" type="curve" smooth="yes"/>
      <point x="97" y="-96"/>
      <point x="116" y="-59"/>
    </contour>
  </outline>
</glyph>
<glyph name="dotlessi" format="1">
  <advance width="229"/>
  <unicode hex="0131"/>
  <outline>
    <contour>
      <point x="168" y="516"/>
      <point x="155" y="517"/>
      <point x="143" y="517" type="curve" smooth="yes"/>
      <point x="116" y="517"/>
      <point x="90" y="511"/>
      <point x="70" y="500" type="curve"/>
      <point x="45" y="364"/>
      <point x="40" y="149"/>
      <point x="61" y="-7" type="curve"/>
      <point x="68" y="-9"/>
      <point x="76" y="-10"/>
      <point x="87" y="-10" type="curve" smooth="yes"/>
      <point x="108" y="-10"/>
      <point x="131" y="-6"/>
      <point x="146" y="1" type="curve"/>
      <point x="139" y="192"/>
      <point x="157" y="396"/>
      <point x="182" y="513" type="curve"/>
    </contour>
  </outline>
</glyph>
<glyph name="Lslash" format="1">
  <advance width="482"/>
  <unicode hex="0141"/>
  <outline>
    <contour>
      <point x="480" y="-72" type="curve"/>
      <point x="480" y="-47"/>
      <point x="474" y="-5"/>
      <point x="470" y="14" type="curve"/>
      <point x="382" y="14"/>
      <point x="285" y="4"/>
      <point x="202" y="-11" type="curve"/>
      <point x="181" y="131"/>
      <point x="176" y="257"/>
      <point x="175" y="381" type="curve" smooth="yes"/>
      <point x="174" y="488"/>
      <point x="177" y="586"/>
      <point x="186" y="672" type="curve"/>
      <point x="176" y="673"/>
      <point x="165" y="674"/>
      <point x="153" y="674" type="curve" smooth="yes"/>
      <point x="119" y="674"/>
      <point x="92" y="669"/>
      <point x="63" y="661" type="curve"/>
      <point x="59" y="428"/>
      <point x="80" y="138"/>
      <point x="113" y="-100" type="curve"/>
      <point x="232" y="-83"/>
      <point x="330" y="-73"/>
    </contour>
    <contour>
      <point x="-11" y="100" type="curve"/>
      <point x="134" y="185"/>
      <point x="257" y="268"/>
      <point x="390" y="370" type="curve"/>
      <point x="378" y="399"/>
      <point x="363" y="423"/>
      <point x="345" y="439" type="curve"/>
      <point x="209" y="332"/>
      <point x="89" y="249"/>
      <point x="-53" y="166" type="curve"/>
      <point x="-43" y="139"/>
      <point x="-32" y="120"/>
    </contour>
  </outline>
</glyph>
<glyph name="oe" format="1">
  <advance width="777"/>
  <unicode hex="0153"/>
  <outline>
    <contour>
      <point x="234" y="455" type="curve" smooth="yes"/>
      <point x="180" y="455"/>
      <point x="130" y="366"/>
      <point x="130" y="239" type="curve" smooth="yes"/>
      <point x="130" y="153"/>
      <point x="157" y="44"/>
      <point x="227" y="44" type="curve" smooth="yes"/>
      <point x="281" y="44"/>
      <point x="326" y="145"/>
      <point x="326" y="265" type="curve" smooth="yes"/>
      <point x="326" y="402"/>
      <point x="293" y="455"/>
    </contour>
    <contour>
      <point x="381" y="106" type="line" smooth="yes"/>
      <point x="340" y="23"/>
      <point x="283" y="-25"/>
      <point x="206" y="-25" type="curve" smooth="yes"/>
      <point x="89" y="-25"/>
      <point x="26" y="85"/>
      <point x="26" y="224" type="curve" smooth="yes"/>
      <point x="26" y="402"/>
      <point x="121" y="524"/>
      <point x="253" y="524" type="curve" smooth="yes"/>
      <point x="341" y="524"/>
      <point x="403" y="465"/>
      <point x="426" y="367" type="curve" smooth="yes"/>
      <point x="375" y="376" type="line" smooth="yes"/>
      <point x="417" y="460"/>
      <point x="486" y="519"/>
      <point x="567" y="519" type="curve" smooth="yes"/>
      <point x="654" y="519"/>
      <point x="705" y="460"/>
      <point x="705" y="376" type="curve" smooth="yes"/>
      <point x="705" y="326"/>
      <point x="693" y="275"/>
      <point x="681" y="242" type="curve"/>
      <point x="646" y="228"/>
      <point x="599" y="224"/>
      <point x="546" y="224" type="curve" smooth="yes"/>
      <point x="499" y="224"/>
      <point x="447" y="233"/>
      <point x="398" y="253" type="curve"/>
      <point x="400" y="319" type="line"/>
      <point x="455" y="290"/>
      <point x="517" y="284"/>
      <point x="552" y="284" type="curve" smooth="yes"/>
      <point x="565" y="284"/>
      <point x="586" y="286"/>
      <point x="593" y="288" type="curve"/>
      <point x="600" y="315"/>
      <point x="608" y="350"/>
      <point x="608" y="382" type="curve" smooth="yes"/>
      <point x="608" y="427"/>
      <point x="597" y="455"/>
      <point x="556" y="455" type="curve" smooth="yes"/>
      <point x="482" y="455"/>
      <point x="428" y="315"/>
      <point x="428" y="199" type="curve" smooth="yes"/>
      <point x="428" y="109"/>
      <point x="458" y="35"/>
      <point x="520" y="35" type="curve" smooth="yes"/>
      <point x="568" y="35"/>
      <point x="622" y="95"/>
      <point x="640" y="157" type="curve"/>
      <point x="667" y="151"/>
      <point x="699" y="134"/>
      <point x="719" y="114" type="curve"/>
      <point x="698" y="46"/>
      <point x="604" y="-32"/>
      <point x="514" y="-32" type="curve" smooth="yes"/>
      <point x="420" y="-32"/>
      <point x="364" y="27"/>
      <point x="341" y="116" type="curve"/>
    </contour>
  </outline>
</glyph>
<glyph name="uogonek" format="1">
  <advance width="443"/>
  <unicode hex="0173"/>
  <outline>
    <contour>
      <point x="290" y="14" type="curve" smooth="yes"/>
      <point x="378" y="69"/>
      <point x="405" y="211"/>
      <point x="405" y="364" type="curve" smooth="yes"/>
      <point x="405" y="410"/>
      <point x="402" y="457"/>
      <point x="395" y="488" type="curve"/>
      <point x="365" y="488"/>
      <point x="318" y="482"/>
      <point x="287" y="469" type="curve"/>
      <point x="291" y="452"/>
      <point x="299" y="388"/>
      <point x="299" y="321" type="curve" smooth="yes"/>
      <point x="299" y="195"/>
      <point x="281" y="61"/>
      <point x="217" y="61" type="curve" smooth="yes"/>
      <point x="164" y="61"/>
      <point x="143" y="170"/>
      <point x="143" y="276" type="curve" smooth="yes"/>
      <point x="143" y="372"/>
      <point x="154" y="451"/>
      <point x="171" y="514" type="curve"/>
      <point x="162" y="519"/>
      <point x="147" y="523"/>
      <point x="127" y="523" type="curve" smooth="yes"/>
      <point x="108" y="523"/>
      <point x="90" y="519"/>
      <point x="78" y="515" type="curve"/>
      <point x="58" y="477"/>
      <point x="37" y="366"/>
      <point x="37" y="268" type="curve" smooth="yes"/>
      <point x="37" y="129"/>
      <point x="71" y="-10"/>
      <point x="201" y="-10" type="curve" smooth="yes"/>
      <point x="221" y="-10"/>
      <point x="237" y="-6"/>
      <point x="250" y="-1" type="curve"/>
      <point x="231" y="15" type="line"/>
      <point x="161" y="-32"/>
      <point x="131" y="-80"/>
      <point x="131" y="-123" type="curve" smooth="yes"/>
      <point x="131" y="-176"/>
      <point x="168" y="-201"/>
      <point x="219" y="-201" type="curve" smooth="yes"/>
      <point x="264" y="-201"/>
      <point x="299" y="-182"/>
      <point x="324" y="-146" type="curve"/>
      <point x="317" y="-128"/>
      <point x="308" y="-113"/>
      <point x="296" y="-102" type="curve"/>
      <point x="278" y="-133"/>
      <point x="260" y="-145"/>
      <point x="238" y="-145" type="curve" smooth="yes"/>
      <point x="218" y="-145"/>
      <point x="205" y="-129"/>
      <point x="205" y="-108" type="curve" smooth="yes"/>
      <point x="205" y="-71"/>
      <point x="232" y="-23"/>
    </contour>
  </outline>
</glyph>
<glyph name="florin" format="1">
  <advance width="382"/>
  <unicode hex="0192"/>
  <outline>
    <contour>
      <point x="344" y="367" type="curve"/>
      <point x="330" y="364"/>
      <point x="303" y="361"/>
      <point x="263" y="361" type="curve" smooth="yes"/>
      <point x="160" y="361"/>
      <point x="63" y="374"/>
      <point x="9" y="391" type="curve"/>
      <point x="9" y="405"/>
      <point x="15" y="435"/>
      <point x="21" y="447" type="curve"/>
      <point x="81" y="438"/>
      <point x="165" y="432"/>
      <point x="260" y="432" type="curve" smooth="yes"/>
      <point x="296" y="432"/>
      <point x="325" y="434"/>
      <point x="351" y="439" type="curve"/>
      <point x="351" y="417"/>
      <point x="347" y="385"/>
    </contour>
    <contour>
      <point x="92" y="-155" type="curve" smooth="yes"/>
      <point x="13" y="-155"/>
      <point x="-24" y="-94"/>
      <point x="-24" y="-25" type="curve" smooth="yes"/>
      <point x="-24" y="-5"/>
      <point x="-19" y="18"/>
      <point x="-12" y="32" type="curve"/>
      <point x="16" y="32"/>
      <point x="44" y="27"/>
      <point x="68" y="19" type="curve"/>
      <point x="63" y="7"/>
      <point x="60" y="-9"/>
      <point x="60" y="-30" type="curve" smooth="yes"/>
      <point x="60" y="-65"/>
      <point x="75" y="-87"/>
      <point x="101" y="-87" type="curve" smooth="yes"/>
      <point x="139" y="-87"/>
      <point x="158" y="-46"/>
      <point x="158" y="41" type="curve" smooth="yes"/>
      <point x="158" y="217"/>
      <point x="91" y="333"/>
      <point x="88" y="483" type="curve" smooth="yes"/>
      <point x="85" y="648"/>
      <point x="158" y="724"/>
      <point x="255" y="726" type="curve" smooth="yes"/>
      <point x="339" y="727"/>
      <point x="381" y="667"/>
      <point x="382" y="598" type="curve" smooth="yes"/>
      <point x="382" y="578"/>
      <point x="377" y="553"/>
      <point x="370" y="539" type="curve"/>
      <point x="341" y="539"/>
      <point x="314" y="544"/>
      <point x="289" y="551" type="curve"/>
      <point x="294" y="563"/>
      <point x="297" y="580"/>
      <point x="297" y="601" type="curve" smooth="yes"/>
      <point x="297" y="636"/>
      <point x="279" y="658"/>
      <point x="251" y="658" type="curve" smooth="yes"/>
      <point x="210" y="657"/>
      <point x="189" y="611"/>
      <point x="189" y="515" type="curve" smooth="yes"/>
      <point x="191" y="324"/>
      <point x="263" y="224"/>
      <point x="244" y="42" type="curve" smooth="yes"/>
      <point x="234" y="-95"/>
      <point x="179" y="-155"/>
    </contour>
  </outline>
</glyph>
<glyph name="uni02C9" format="1">
  <advance width="259"/>
  <unicode hex="02C9"/>
  <outline>
    <contour>
      <point x="28" y="705" type="curve"/>
      <point x="24" y="688"/>
      <point x="24" y="657"/>
      <point x="25" y="639" type="curve"/>
      <point x="63" y="625"/>
      <point x="135" y="620"/>
      <point x="232" y="632" type="curve"/>
      <point x="235" y="655"/>
      <point x="235" y="676"/>
      <point x="233" y="699" type="curve"/>
      <point x="164" y="691"/>
      <point x="98" y="693"/>
    </contour>
  </outline>
</glyph>
<glyph name="breve" format="1">
  <advance width="260"/>
  <unicode hex="02D8"/>
  <outline>
    <contour>
      <point x="52" y="736"/>
      <point x="31" y="733"/>
      <point x="14" y="727" type="curve"/>
      <point x="14" y="691"/>
      <point x="20" y="669"/>
      <point x="34" y="650" type="curve" smooth="yes"/>
      <point x="55" y="623"/>
      <point x="87" y="607"/>
      <point x="131" y="607" type="curve" smooth="yes"/>
      <point x="178" y="607"/>
      <point x="213" y="623"/>
      <point x="231" y="654" type="curve" smooth="yes"/>
      <point x="243" y="677"/>
      <point x="247" y="702"/>
      <point x="244" y="737" type="curve"/>
      <point x="225" y="741"/>
      <point x="200" y="740"/>
      <point x="184" y="736" type="curve"/>
      <point x="195" y="695"/>
      <point x="181" y="667"/>
      <point x="132" y="667" type="curve" smooth="yes"/>
      <point x="80" y="667"/>
      <point x="69" y="693"/>
      <point x="74" y="736" type="curve"/>
    </contour>
    <contour>
      <point x="137" y="560" type="move" name="_top"/>
    </contour>
  </outline>
</glyph>
<glyph name="dotaccent" format="1">
  <advance width="261"/>
  <unicode hex="02D9"/>
  <outline>
    <contour>
      <point x="179" y="658"/>
      <point x="195" y="706"/>
      <point x="207" y="735" type="curve"/>
      <point x="193" y="743"/>
      <point x="174" y="747"/>
      <point x="150" y="748" type="curve" smooth="yes"/>
      <point x="126" y="748"/>
      <point x="109" y="745"/>
      <point x="91" y="736" type="curve"/>
      <point x="81" y="714"/>
      <point x="77" y="682"/>
      <point x="77" y="659" type="curve" smooth="yes"/>
      <point x="77" y="643"/>
      <point x="79" y="628"/>
      <point x="82" y="614" type="curve"/>
      <point x="120" y="613"/>
      <point x="150" y="615"/>
      <point x="171" y="618" type="curve"/>
    </contour>
    <contour>
      <point x="130" y="560" type="move" name="_top"/>
    </contour>
  </outline>
</glyph>
<glyph name="ring" format="1">
  <advance width="260"/>
  <unicode hex="02DA"/>
  <outline>
    <contour>
      <point x="140" y="766" type="curve" smooth="yes"/>
      <point x="74" y="766"/>
      <point x="29" y="726"/>
      <point x="29" y="664" type="curve" smooth="yes"/>
      <point x="29" y="613"/>
      <point x="65" y="576"/>
      <point x="119" y="576" type="curve" smooth="yes"/>
      <point x="187" y="576"/>
      <point x="229" y="621"/>
      <point x="229" y="686" type="curve" smooth="yes"/>
      <point x="229" y="735"/>
      <point x="196" y="766"/>
    </contour>
    <contour>
      <point x="131" y="729" type="curve" smooth="yes"/>
      <point x="149" y="729"/>
      <point x="164" y="716"/>
      <point x="164" y="678" type="curve" smooth="yes"/>
      <point x="164" y="641"/>
      <point x="150" y="616"/>
      <point x="127" y="616" type="curve" smooth="yes"/>
      <point x="108" y="616"/>
      <point x="92" y="633"/>
      <point x="92" y="665" type="curve" smooth="yes"/>
      <point x="92" y="706"/>
      <point x="109" y="729"/>
    </contour>
    <contour>
      <point x="130" y="560" type="move" name="_top"/>
    </contour>
  </outline>
</glyph>
<glyph name="tilde" format="1">
  <advance width="260"/>
  <unicode hex="02DC"/>
  <outline>
    <contour>
      <point x="172" y="695" type="curve" smooth="yes"/>
      <point x="141" y="695"/>
      <point x="116" y="729"/>
      <point x="75" y="729" type="curve" smooth="yes"/>
      <point x="29" y="729"/>
      <point x="5" y="692"/>
      <point x="10" y="635" type="curve"/>
      <point x="25" y="630"/>
      <point x="45" y="627"/>
      <point x="61" y="628" type="curve"/>
      <point x="59" y="654"/>
      <point x="69" y="665"/>
      <point x="86" y="665" type="curve" smooth="yes"/>
      <point x="114" y="665"/>
      <point x="138" y="631"/>
      <point x="183" y="631" type="curve" smooth="yes"/>
      <point x="228" y="631"/>
      <point x="253" y="663"/>
      <point x="248" y="725" type="curve"/>
      <point x="233" y="732"/>
      <point x="218" y="735"/>
      <point x="198" y="734" type="curve"/>
      <point x="199" y="704"/>
      <point x="190" y="695"/>
    </contour>
    <contour>
      <point x="130" y="560" type="move" name="_top"/>
    </contour>
  </outline>
</glyph>
<glyph name="pi" format="1">
  <advance width="647"/>
  <unicode hex="03C0"/>
  <outline>
    <contour>
      <point x="606" y="433" type="curve"/>
      <point x="613" y="464"/>
      <point x="615" y="504"/>
      <point x="610" y="535" type="curve"/>
      <point x="462" y="541"/>
      <point x="168" y="544"/>
      <point x="29" y="539" type="curve"/>
      <point x="21" y="513"/>
      <point x="16" y="472"/>
      <point x="28" y="422" type="curve"/>
      <point x="115" y="433"/>
      <point x="250" y="442"/>
      <point x="345" y="442" type="curve" smooth="yes"/>
      <point x="423" y="442"/>
      <point x="532" y="438"/>
    </contour>
    <contour>
      <point x="505" y="9" type="curve" smooth="yes"/>
      <point x="592" y="9"/>
      <point x="618" y="89"/>
      <point x="620" y="163" type="curve"/>
      <point x="599" y="177"/>
      <point x="571" y="187"/>
      <point x="544" y="189" type="curve"/>
      <point x="542" y="111"/>
      <point x="534" y="77"/>
      <point x="513" y="77" type="curve" smooth="yes"/>
      <point x="474" y="77"/>
      <point x="463" y="168"/>
      <point x="463" y="274" type="curve" smooth="yes"/>
      <point x="463" y="338"/>
      <point x="473" y="407"/>
      <point x="483" y="474" type="curve"/>
      <point x="376" y="479" type="line"/>
      <point x="369" y="415"/>
      <point x="361" y="352"/>
      <point x="361" y="288" type="curve" smooth="yes"/>
      <point x="361" y="113"/>
      <point x="413" y="9"/>
    </contour>
    <contour>
      <point x="231" y="500" type="curve"/>
      <point x="140" y="500" type="line"/>
      <point x="148" y="438"/>
      <point x="153" y="392"/>
      <point x="149" y="298" type="curve" smooth="yes"/>
      <point x="145" y="195"/>
      <point x="132" y="130"/>
      <point x="98" y="16" type="curve"/>
      <point x="129" y="5"/>
      <point x="179" y="1"/>
      <point x="205" y="7" type="curve"/>
      <point x="235" y="128"/>
      <point x="246" y="206"/>
      <point x="246" y="317" type="curve" smooth="yes"/>
      <point x="245" y="374"/>
      <point x="240" y="445"/>
    </contour>
  </outline>
</glyph>
<glyph name="bn_ka" format="1">
  <advance width="622"/>
  <unicode hex="0995"/>
  <outline>
    <contour>
      <point x="334" y="14" type="line"/>
      <point x="283" y="155"/>
      <point x="192" y="238"/>
      <point x="98" y="280" type="curve"/>
      <point x="97" y="245" type="line"/>
      <point x="157" y="314"/>
      <point x="269" y="387"/>
      <point x="341" y="414" type="curve"/>
      <point x="333" y="513" type="line"/>
      <point x="208" y="463"/>
      <point x="90" y="382"/>
      <point x="27" y="310" type="curve"/>
      <point x="29" y="274"/>
      <point x="40" y="243"/>
      <point x="67" y="209" type="curve"/>
      <point x="162" y="185"/>
      <point x="243" y="113"/>
      <point x="306" y="-23" type="curve"/>
    </contour>
    <contour>
      <point x="338" y="-23"/>
      <point x="374" y="-20"/>
      <point x="399" y="-10" type="curve"/>
      <point x="383" y="69"/>
      <point x="379" y="196"/>
      <point x="379" y="286" type="curve" smooth="yes"/>
      <point x="379" y="399"/>
      <point x="382" y="469"/>
      <point x="391" y="560" type="curve"/>
      <point x="322" y="574" type="line"/>
      <point x="306" y="425"/>
      <point x="300" y="319"/>
      <point x="300" y="169" type="curve" smooth="yes"/>
      <point x="300" y="64"/>
      <point x="303" y="15"/>
      <point x="306" y="-23" type="curve"/>
    </contour>
    <contour>
      <point x="555" y="161"/>
      <point x="599" y="220"/>
      <point x="599" y="292" type="curve" smooth="yes"/>
      <point x="599" y="389"/>
      <point x="507" y="481"/>
      <point x="365" y="507" type="curve"/>
      <point x="363" y="408" type="line"/>
      <point x="459" y="396"/>
      <point x="542" y="365"/>
      <point x="542" y="304" type="curve" smooth="yes"/>
      <point x="542" y="260"/>
      <point x="498" y="222"/>
      <point x="442" y="202" type="curve"/>
      <point x="457" y="165"/>
      <point x="484" y="139"/>
      <point x="508" y="133" type="curve"/>
    </contour>
    <contour>
      <point x="79" y="540"/>
      <point x="183" y="555"/>
      <point x="305" y="555" type="curve" smooth="yes"/>
      <point x="426" y="555"/>
      <point x="543" y="540"/>
      <point x="622" y="524" type="curve"/>
      <point x="625" y="534"/>
      <point x="629" y="549"/>
      <point x="629" y="567" type="curve" smooth="yes"/>
      <point x="629" y="580"/>
      <point x="626" y="592"/>
      <point x="622" y="601" type="curve"/>
      <point x="553" y="620"/>
      <point x="432" y="636"/>
      <point x="309" y="636" type="curve" smooth="yes"/>
      <point x="186" y="636"/>
      <point x="77" y="620"/>
      <point x="0" y="601" type="curve"/>
      <point x="-4" y="592"/>
      <point x="-7" y="579"/>
      <point x="-7" y="566" type="curve" smooth="yes"/>
      <point x="-7" y="551"/>
      <point x="-4" y="534"/>
      <point x="0" y="524" type="curve"/>
    </contour>
    <contour>
      <point x="335" y="-5" type="move" name="blwm"/>
    </contour>
    <contour>
      <point x="122" y="0" type="move" name="nukt"/>
    </contour>
    <contour>
      <point x="349" y="690" type="move" name="reph"/>
    </contour>
    <contour>
      <point x="349" y="690" type="move" name="chandrabindu"/>
    </contour>
    <contour>
      <point x="251" y="-3" type="move" name="haln"/>
    </contour>
  </outline>
</glyph>
<glyph name="bn_gha" format="1">
  <advance width="501"/>
  <unicode hex="0998"/>
  <outline>
    <contour>
      <point x="376" y="19" type="line"/>
      <point x="323" y="142"/>
      <point x="227" y="216"/>
      <point x="128" y="253" type="curve"/>
      <point x="130" y="206" type="line"/>
      <point x="288" y="330" type="line"/>
      <point x="285" y="361"/>
      <point x="275" y="397"/>
      <point x="260" y="419" type="curve"/>
      <point x="227" y="390"/>
      <point x="198" y="380"/>
      <point x="177" y="380" type="curve" smooth="yes"/>
      <point x="144" y="380"/>
      <point x="118" y="404"/>
      <point x="118" y="442" type="curve" smooth="yes"/>
      <point x="118" y="480"/>
      <point x="146" y="521"/>
      <point x="232" y="554" type="curve"/>
      <point x="116" y="573" type="line"/>
      <point x="64" y="538"/>
      <point x="40" y="498"/>
      <point x="40" y="449" type="curve" smooth="yes"/>
      <point x="40" y="373"/>
      <point x="99" y="335"/>
      <point x="169" y="333" type="curve" smooth="yes"/>
      <point x="221" y="331"/>
      <point x="246" y="350"/>
      <point x="257" y="359" type="curve"/>
      <point x="188" y="368" type="line"/>
      <point x="64" y="270" type="line"/>
      <point x="64" y="238"/>
      <point x="76" y="205"/>
      <point x="106" y="177" type="curve"/>
      <point x="205" y="157"/>
      <point x="288" y="95"/>
      <point x="354" y="-22" type="curve"/>
    </contour>
    <contour>
      <point x="384" y="-22"/>
      <point x="421" y="-18"/>
      <point x="445" y="-7" type="curve"/>
      <point x="426" y="71"/>
      <point x="422" y="196"/>
      <point x="422" y="288" type="curve" smooth="yes"/>
      <point x="422" y="395"/>
      <point x="426" y="463"/>
      <point x="439" y="550" type="curve"/>
      <point x="364" y="567" type="line"/>
      <point x="346" y="431"/>
      <point x="340" y="319"/>
      <point x="340" y="180" type="curve" smooth="yes"/>
      <point x="340" y="75"/>
      <point x="345" y="23"/>
      <point x="354" y="-22" type="curve"/>
    </contour>
    <contour>
      <point x="60" y="538"/>
      <point x="153" y="551"/>
      <point x="256" y="551" type="curve" smooth="yes"/>
      <point x="355" y="551"/>
      <point x="441" y="538"/>
      <point x="501" y="524" type="curve"/>
      <point x="504" y="534"/>
      <point x="507" y="551"/>
      <point x="507" y="567" type="curve" smooth="yes"/>
      <point x="507" y="580"/>
      <point x="505" y="592"/>
      <point x="501" y="601" type="curve"/>
      <point x="445" y="618"/>
      <point x="358" y="632"/>
      <point x="259" y="632" type="curve" smooth="yes"/>
      <point x="154" y="632"/>
      <point x="58" y="618"/>
      <point x="0" y="601" type="curve"/>
      <point x="-4" y="593"/>
      <point x="-6" y="580"/>
      <point x="-6" y="567" type="curve" smooth="yes"/>
      <point x="-6" y="551"/>
      <point x="-4" y="536"/>
      <point x="0" y="524" type="curve"/>
    </contour>
    <contour>
      <point x="384" y="0" type="move" name="blwm"/>
    </contour>
    <contour>
      <point x="134" y="0" type="move" name="nukt"/>
    </contour>
    <contour>
      <point x="291" y="690" type="move" name="reph"/>
    </contour>
    <contour>
      <point x="291" y="690" type="move" name="chandrabindu"/>
    </contour>
    <contour>
      <point x="243" y="0" type="move" name="haln"/>
    </contour>
  </outline>
</glyph>
<glyph name="bn_jha" format="1">
  <advance width="637"/>
  <unicode hex="099D"/>
  <outline>
    <contour>
      <point x="333" y="-23"/>
      <point x="367" y="-19"/>
      <point x="391" y="-7" type="curve"/>
      <point x="381" y="40"/>
      <point x="377" y="103"/>
      <point x="377" y="169" type="curve" smooth="yes"/>
      <point x="377" y="393"/>
      <point x="413" y="560"/>
      <point x="413" y="577" type="curve" smooth="yes"/>
      <point x="413" y="602"/>
      <point x="400" y="618"/>
      <point x="374" y="622" type="curve" smooth="yes"/>
      <point x="344" y="628"/>
      <point x="297" y="633"/>
      <point x="254" y="633" type="curve" smooth="yes"/>
      <point x="164" y="633"/>
      <point x="56" y="618"/>
      <point x="0" y="601" type="curve"/>
      <point x="-3" y="593"/>
      <point x="-5" y="581"/>
      <point x="-5" y="569" type="curve" smooth="yes"/>
      <point x="-5" y="552"/>
      <point x="-3" y="534"/>
      <point x="0" y="524" type="curve"/>
      <point x="60" y="538"/>
      <point x="161" y="551"/>
      <point x="254" y="551" type="curve" smooth="yes"/>
      <point x="294" y="551"/>
      <point x="335" y="548"/>
      <point x="372" y="542" type="curve"/>
      <point x="351" y="572" type="line"/>
      <point x="312" y="415"/>
      <point x="290" y="232"/>
      <point x="290" y="92" type="curve" smooth="yes"/>
      <point x="290" y="28"/>
      <point x="294" y="0"/>
      <point x="299" y="-23" type="curve"/>
    </contour>
    <contour>
      <point x="318" y="18" type="line"/>
      <point x="276" y="151"/>
      <point x="187" y="234"/>
      <point x="95" y="280" type="curve"/>
      <point x="92" y="243" type="line"/>
      <point x="159" y="314"/>
      <point x="278" y="388"/>
      <point x="353" y="413" type="curve"/>
      <point x="349" y="513" type="line"/>
      <point x="220" y="466"/>
      <point x="95" y="385"/>
      <point x="27" y="311" type="curve"/>
      <point x="28" y="275"/>
      <point x="37" y="244"/>
      <point x="61" y="208" type="curve"/>
      <point x="159" y="181"/>
      <point x="239" y="108"/>
      <point x="299" y="-23" type="curve"/>
    </contour>
    <contour>
      <point x="537" y="57" type="line"/>
      <point x="497" y="155"/>
      <point x="431" y="226"/>
      <point x="362" y="269" type="curve"/>
      <point x="349" y="199" type="line"/>
      <point x="413" y="165"/>
      <point x="471" y="107"/>
      <point x="521" y="16" type="curve"/>
    </contour>
    <contour>
      <point x="551" y="14"/>
      <point x="588" y="21"/>
      <point x="610" y="34" type="curve"/>
      <point x="575" y="127"/>
      <point x="555" y="249"/>
      <point x="555" y="380" type="curve" smooth="yes"/>
      <point x="555" y="403"/>
      <point x="555" y="434"/>
      <point x="556" y="464" type="curve" smooth="yes"/>
      <point x="556" y="483"/>
      <point x="562" y="495"/>
      <point x="578" y="502" type="curve" smooth="yes"/>
      <point x="593" y="509"/>
      <point x="612" y="517"/>
      <point x="637" y="524" type="curve"/>
      <point x="641" y="533"/>
      <point x="644" y="550"/>
      <point x="644" y="564" type="curve" smooth="yes"/>
      <point x="644" y="580"/>
      <point x="641" y="594"/>
      <point x="637" y="601" type="curve"/>
      <point x="592" y="591"/>
      <point x="561" y="580"/>
      <point x="535" y="569" type="curve" smooth="yes"/>
      <point x="509" y="557"/>
      <point x="492" y="534"/>
      <point x="490" y="501" type="curve" smooth="yes"/>
      <point x="488" y="448"/>
      <point x="485" y="384"/>
      <point x="485" y="336" type="curve" smooth="yes"/>
      <point x="485" y="217"/>
      <point x="496" y="88"/>
      <point x="521" y="16" type="curve"/>
    </contour>
    <contour>
      <point x="330" y="-1" type="move" name="blwm"/>
    </contour>
    <contour>
      <point x="90" y="0" type="move" name="nukt"/>
    </contour>
    <contour>
      <point x="407" y="690" type="move" name="reph"/>
    </contour>
    <contour>
      <point x="407" y="690" type="move" name="chandrabindu"/>
    </contour>
    <contour>
      <point x="234" y="0" type="move" name="haln"/>
    </contour>
  </outline>
</glyph>
<glyph name="bn_ta" format="1">
  <advance width="589"/>
  <unicode hex="09A4"/>
  <outline>
    <contour>
      <point x="501" y="-25"/>
      <point x="568" y="62"/>
      <point x="568" y="197" type="curve" smooth="yes"/>
      <point x="568" y="359"/>
      <point x="473" y="485"/>
      <point x="367" y="485" type="curve" smooth="yes"/>
      <point x="294" y="485"/>
      <point x="247" y="425"/>
      <point x="247" y="348" type="curve" smooth="yes"/>
      <point x="247" y="307"/>
      <point x="261" y="265"/>
      <point x="282" y="235" type="curve"/>
      <point x="292" y="229"/>
      <point x="313" y="226"/>
      <point x="327" y="226" type="curve" smooth="yes"/>
      <point x="347" y="226"/>
      <point x="366" y="231"/>
      <point x="379" y="238" type="curve"/>
      <point x="351" y="268"/>
      <point x="336" y="305"/>
      <point x="336" y="340" type="curve" smooth="yes"/>
      <point x="336" y="380"/>
      <point x="352" y="409"/>
      <point x="388" y="409" type="curve" smooth="yes"/>
      <point x="444" y="409"/>
      <point x="497" y="343"/>
      <point x="497" y="226" type="curve" smooth="yes"/>
      <point x="497" y="125"/>
      <point x="454" y="72"/>
      <point x="376" y="72" type="curve" smooth="yes"/>
      <point x="248" y="72"/>
      <point x="144" y="231"/>
      <point x="80" y="453" type="curve"/>
      <point x="58" y="444"/>
      <point x="36" y="434"/>
      <point x="17" y="421" type="curve"/>
      <point x="69" y="236"/>
      <point x="169" y="-25"/>
      <point x="380" y="-25" type="curve" smooth="yes"/>
    </contour>
    <contour>
      <point x="73" y="538"/>
      <point x="169" y="551"/>
      <point x="294" y="551" type="curve" smooth="yes"/>
      <point x="412" y="551"/>
      <point x="514" y="538"/>
      <point x="589" y="524" type="curve"/>
      <point x="593" y="534"/>
      <point x="596" y="550"/>
      <point x="596" y="565" type="curve" smooth="yes"/>
      <point x="596" y="579"/>
      <point x="593" y="593"/>
      <point x="589" y="601" type="curve"/>
      <point x="515" y="618"/>
      <point x="413" y="632"/>
      <point x="294" y="632" type="curve" smooth="yes"/>
      <point x="168" y="632"/>
      <point x="71" y="618"/>
      <point x="0" y="601" type="curve"/>
      <point x="-5" y="593"/>
      <point x="-7" y="579"/>
      <point x="-7" y="565" type="curve" smooth="yes"/>
      <point x="-7" y="549"/>
      <point x="-4" y="533"/>
      <point x="0" y="524" type="curve"/>
    </contour>
    <contour>
      <point x="350" y="-3" type="move" name="blwm"/>
    </contour>
    <contour>
      <point x="325" y="-120" type="move" name="nukt"/>
    </contour>
    <contour>
      <point x="292" y="690" type="move" name="reph"/>
    </contour>
    <contour>
      <point x="292" y="690" type="move" name="chandrabindu"/>
    </contour>
    <contour>
      <point x="239" y="0" type="move" name="haln"/>
    </contour>
  </outline>
</glyph>
<glyph name="bn_tha" format="1">
  <advance width="551"/>
  <unicode hex="09A5"/>
  <outline>
    <contour>
      <point x="366" y="29" type="line"/>
      <point x="329" y="144"/>
      <point x="255" y="240"/>
      <point x="147" y="274" type="curve"/>
      <point x="153" y="217" type="line"/>
      <point x="217" y="255" type="line" smooth="yes"/>
      <point x="299" y="306"/>
      <point x="343" y="370"/>
      <point x="343" y="454" type="curve" smooth="yes"/>
      <point x="343" y="551"/>
      <point x="280" y="627"/>
      <point x="181" y="627" type="curve" smooth="yes"/>
      <point x="85" y="627"/>
      <point x="30" y="556"/>
      <point x="30" y="481" type="curve" smooth="yes"/>
      <point x="30" y="444"/>
      <point x="45" y="410"/>
      <point x="66" y="386" type="curve"/>
      <point x="99" y="389"/>
      <point x="131" y="398"/>
      <point x="155" y="417" type="curve"/>
      <point x="135" y="430"/>
      <point x="124" y="452"/>
      <point x="124" y="481" type="curve" smooth="yes"/>
      <point x="124" y="517"/>
      <point x="146" y="553"/>
      <point x="195" y="553" type="curve" smooth="yes"/>
      <point x="240" y="553"/>
      <point x="272" y="525"/>
      <point x="272" y="481" type="curve" smooth="yes"/>
      <point x="272" y="427"/>
      <point x="242" y="383"/>
      <point x="167" y="340" type="curve" smooth="yes"/>
      <point x="84" y="293" type="line"/>
      <point x="86" y="259"/>
      <point x="99" y="228"/>
      <point x="120" y="200" type="curve"/>
      <point x="214" y="179"/>
      <point x="276" y="114"/>
      <point x="329" y="-4" type="curve"/>
    </contour>
    <contour>
      <point x="466" y="94"/>
      <point x="486" y="281"/>
      <point x="486" y="458" type="curve" smooth="yes"/>
      <point x="486" y="487"/>
      <point x="489" y="500"/>
      <point x="509" y="509" type="curve" smooth="yes"/>
      <point x="518" y="514"/>
      <point x="532" y="519"/>
      <point x="551" y="524" type="curve"/>
      <point x="555" y="533"/>
      <point x="558" y="551"/>
      <point x="558" y="566" type="curve" smooth="yes"/>
      <point x="558" y="581"/>
      <point x="555" y="594"/>
      <point x="551" y="601" type="curve"/>
      <point x="510" y="592"/>
      <point x="476" y="582"/>
      <point x="447" y="568" type="curve" smooth="yes"/>
      <point x="421" y="555"/>
      <point x="404" y="531"/>
      <point x="404" y="499" type="curve"/>
      <point x="404" y="480"/>
      <point x="407" y="450"/>
      <point x="407" y="413" type="curve" smooth="yes"/>
      <point x="407" y="264"/>
      <point x="392" y="136"/>
      <point x="352" y="38" type="curve"/>
      <point x="329" y="-4" type="line"/>
      <point x="350" y="-16"/>
      <point x="387" y="-26"/>
      <point x="419" y="-26" type="curve"/>
    </contour>
    <contour>
      <point x="368" y="-3" type="move" name="blwm"/>
    </contour>
    <contour>
      <point x="159" y="0" type="move" name="nukt"/>
    </contour>
    <contour>
      <point x="443" y="690" type="move" name="reph"/>
    </contour>
    <contour>
      <point x="443" y="690" type="move" name="chandrabindu"/>
    </contour>
    <contour>
      <point x="267" y="0" type="move" name="haln"/>
    </contour>
  </outline>
</glyph>
<glyph name="bn_sha" format="1">
  <advance width="563"/>
  <unicode hex="09B6"/>
  <outline>
    <contour>
      <point x="491" y="149"/>
      <point x="494" y="279"/>
      <point x="498" y="466" type="curve" smooth="yes"/>
      <point x="498" y="490"/>
      <point x="502" y="500"/>
      <point x="521" y="509" type="curve" smooth="yes"/>
      <point x="530" y="514"/>
      <point x="546" y="519"/>
      <point x="563" y="524" type="curve"/>
      <point x="567" y="533"/>
      <point x="570" y="550"/>
      <point x="570" y="566" type="curve" smooth="yes"/>
      <point x="570" y="580"/>
      <point x="567" y="594"/>
      <point x="563" y="601" type="curve"/>
      <point x="525" y="593"/>
      <point x="491" y="582"/>
      <point x="470" y="570" type="curve" smooth="yes"/>
      <point x="445" y="556"/>
      <point x="432" y="536"/>
      <point x="432" y="512" type="curve" smooth="yes"/>
      <point x="432" y="446" type="line"/>
      <point x="415" y="437" type="line"/>
      <point x="415" y="238"/>
      <point x="397" y="117"/>
      <point x="356" y="-10" type="curve"/>
      <point x="380" y="-18"/>
      <point x="421" y="-23"/>
      <point x="453" y="-23" type="curve"/>
    </contour>
    <contour>
      <point x="177" y="268"/>
      <point x="217" y="346"/>
      <point x="217" y="417" type="curve" smooth="yes"/>
      <point x="217" y="450"/>
      <point x="206" y="483"/>
      <point x="193" y="507" type="curve"/>
      <point x="152" y="485" type="line"/>
      <point x="165" y="466"/>
      <point x="170" y="440"/>
      <point x="170" y="417" type="curve" smooth="yes"/>
      <point x="170" y="363"/>
      <point x="150" y="323"/>
      <point x="121" y="323" type="curve" smooth="yes"/>
      <point x="105" y="323"/>
      <point x="94" y="334"/>
      <point x="94" y="358" type="curve" smooth="yes"/>
      <point x="94" y="404"/>
      <point x="132" y="467"/>
      <point x="183" y="465" type="curve"/>
      <point x="202" y="493" type="line"/>
      <point x="167" y="522" type="line"/>
      <point x="80" y="512"/>
      <point x="24" y="434"/>
      <point x="24" y="359" type="curve" smooth="yes"/>
      <point x="24" y="298"/>
      <point x="63" y="268"/>
      <point x="107" y="268" type="curve" smooth="yes"/>
    </contour>
    <contour>
      <point x="201" y="557"/>
      <point x="164" y="614"/>
      <point x="90" y="614" type="curve" smooth="yes"/>
      <point x="67" y="614"/>
      <point x="29" y="608"/>
      <point x="0" y="601" type="curve"/>
      <point x="-4" y="592"/>
      <point x="-6" y="579"/>
      <point x="-6" y="565" type="curve" smooth="yes"/>
      <point x="-6" y="550"/>
      <point x="-4" y="535"/>
      <point x="0" y="524" type="curve"/>
      <point x="23" y="529"/>
      <point x="67" y="537"/>
      <point x="92" y="537" type="curve" smooth="yes"/>
      <point x="150" y="537"/>
      <point x="178" y="502"/>
      <point x="178" y="456" type="curve"/>
      <point x="207" y="457" type="line"/>
    </contour>
    <contour>
      <point x="327" y="270"/>
      <point x="361" y="309"/>
      <point x="361" y="368" type="curve" smooth="yes"/>
      <point x="361" y="446"/>
      <point x="305" y="510"/>
      <point x="237" y="521" type="curve"/>
      <point x="208" y="474" type="line"/>
      <point x="263" y="474"/>
      <point x="310" y="427"/>
      <point x="310" y="369" type="curve" smooth="yes"/>
      <point x="310" y="343"/>
      <point x="302" y="330"/>
      <point x="285" y="330" type="curve" smooth="yes"/>
      <point x="255" y="330"/>
      <point x="236" y="373"/>
      <point x="236" y="420" type="curve" smooth="yes"/>
      <point x="236" y="447"/>
      <point x="243" y="473"/>
      <point x="256" y="490" type="curve"/>
      <point x="213" y="524" type="line"/>
      <point x="191" y="496"/>
      <point x="172" y="456"/>
      <point x="172" y="408" type="curve" smooth="yes"/>
      <point x="172" y="332"/>
      <point x="210" y="270"/>
      <point x="275" y="270" type="curve" smooth="yes"/>
    </contour>
    <contour>
      <point x="448" y="488"/>
      <point x="395" y="626"/>
      <point x="304" y="626" type="curve" smooth="yes"/>
      <point x="244" y="626"/>
      <point x="199" y="567"/>
      <point x="186" y="488" type="curve"/>
      <point x="236" y="473" type="line"/>
      <point x="250" y="506"/>
      <point x="274" y="535"/>
      <point x="310" y="535" type="curve" smooth="yes"/>
      <point x="363" y="535"/>
      <point x="415" y="468"/>
      <point x="415" y="356" type="curve"/>
      <point x="447" y="318" type="line"/>
    </contour>
    <contour>
      <point x="400" y="0" type="move" name="blwm"/>
    </contour>
    <contour>
      <point x="173" y="0" type="move" name="nukt"/>
    </contour>
    <contour>
      <point x="487" y="690" type="move" name="reph"/>
    </contour>
    <contour>
      <point x="487" y="690" type="move" name="chandrabindu"/>
    </contour>
    <contour>
      <point x="282" y="0" type="move" name="haln"/>
    </contour>
  </outline>
</glyph>
<glyph name="bn_aakaar" format="1">
  <advance width="246"/>
  <unicode hex="09BE"/>
  <outline>
    <contour>
      <point x="165" y="102"/>
      <point x="175" y="298"/>
      <point x="175" y="501" type="curve"/>
      <point x="122" y="490" type="line"/>
      <point x="93" y="486" type="line"/>
      <point x="92" y="258"/>
      <point x="78" y="96"/>
      <point x="51" y="-46" type="curve"/>
      <point x="72" y="-53"/>
      <point x="119" y="-58"/>
      <point x="154" y="-58" type="curve"/>
    </contour>
    <contour>
      <point x="153" y="509" type="line"/>
      <point x="126" y="555"/>
      <point x="59" y="586"/>
      <point x="0" y="601" type="curve"/>
      <point x="-8" y="586"/>
      <point x="-7" y="544"/>
      <point x="0" y="524" type="curve"/>
      <point x="68" y="510"/>
      <point x="93" y="465"/>
      <point x="93" y="424" type="curve"/>
    </contour>
    <contour>
      <point x="174" y="490"/>
      <point x="199" y="512"/>
      <point x="246" y="524" type="curve"/>
      <point x="253" y="545"/>
      <point x="255" y="586"/>
      <point x="246" y="601" type="curve"/>
      <point x="180" y="586"/>
      <point x="119" y="554"/>
      <point x="99" y="503" type="curve"/>
      <point x="163" y="464" type="line"/>
    </contour>
  </outline>
</glyph>
<glyph name="bn_aumark" format="1">
  <advance width="246"/>
  <unicode hex="09D7"/>
  <outline>
    <contour>
      <point x="173" y="535"/>
      <point x="200" y="573"/>
      <point x="200" y="631" type="curve" smooth="yes"/>
      <point x="200" y="688"/>
      <point x="168" y="731"/>
      <point x="100" y="779" type="curve" smooth="yes"/>
      <point x="45" y="818"/>
      <point x="6" y="837"/>
      <point x="6" y="899" type="curve" smooth="yes"/>
      <point x="6" y="913"/>
      <point x="7" y="927"/>
      <point x="10" y="943" type="curve"/>
      <point x="-10" y="944"/>
      <point x="-35" y="942"/>
      <point x="-58" y="934" type="curve"/>
      <point x="-62" y="916"/>
      <point x="-64" y="899"/>
      <point x="-64" y="885" type="curve" smooth="yes"/>
      <point x="-64" y="800"/>
      <point x="-19" y="780"/>
      <point x="62" y="719" type="curve" smooth="yes"/>
      <point x="126" y="672"/>
      <point x="151" y="647"/>
      <point x="151" y="613" type="curve" smooth="yes"/>
      <point x="151" y="575"/>
      <point x="131" y="543"/>
      <point x="104" y="524" type="curve"/>
      <point x="130" y="495" type="line"/>
    </contour>
    <contour>
      <point x="167" y="105"/>
      <point x="175" y="299"/>
      <point x="175" y="501" type="curve"/>
      <point x="122" y="490" type="line"/>
      <point x="93" y="486" type="line"/>
      <point x="93" y="258"/>
      <point x="80" y="97"/>
      <point x="56" y="-45" type="curve"/>
      <point x="77" y="-51"/>
      <point x="123" y="-55"/>
      <point x="157" y="-55" type="curve"/>
    </contour>
    <contour>
      <point x="153" y="509" type="line"/>
      <point x="126" y="555"/>
      <point x="59" y="586"/>
      <point x="0" y="601" type="curve"/>
      <point x="-3" y="594"/>
      <point x="-5" y="580"/>
      <point x="-5" y="565" type="curve" smooth="yes"/>
      <point x="-5" y="551"/>
      <point x="-3" y="534"/>
      <point x="0" y="524" type="curve"/>
      <point x="68" y="510"/>
      <point x="93" y="465"/>
      <point x="93" y="424" type="curve"/>
    </contour>
    <contour>
      <point x="174" y="490"/>
      <point x="199" y="512"/>
      <point x="246" y="524" type="curve"/>
      <point x="250" y="536"/>
      <point x="252" y="552"/>
      <point x="252" y="568" type="curve" smooth="yes"/>
      <point x="252" y="581"/>
      <point x="250" y="594"/>
      <point x="246" y="601" type="curve"/>
      <point x="180" y="586"/>
      <point x="119" y="554"/>
      <point x="99" y="503" type="curve"/>
      <point x="163" y="464" type="line"/>
    </contour>
  </outline>
</glyph>
<glyph name="bn_likaar" format="1">
  <advance width="300"/>
  <unicode hex="09E2"/>
  <outline>
    <contour>
      <point x="266" y="-301"/>
      <point x="286" y="-230"/>
      <point x="286" y="-171" type="curve" smooth="yes"/>
      <point x="286" y="-101"/>
      <point x="259" y="-60"/>
      <point x="190" y="-43" type="curve" smooth="yes"/>
      <point x="151" y="-34" type="line" smooth="yes"/>
      <point x="108" y="-25"/>
      <point x="89" y="-16"/>
      <point x="80" y="34" type="curve"/>
      <point x="67" y="30"/>
      <point x="49" y="23"/>
      <point x="33" y="13" type="curve"/>
      <point x="46" y="-66"/>
      <point x="83" y="-83"/>
      <point x="155" y="-99" type="curve" smooth="yes"/>
      <point x="205" y="-112"/>
      <point x="237" y="-123"/>
      <point x="237" y="-166" type="curve" smooth="yes"/>
      <point x="237" y="-205"/>
      <point x="221" y="-270"/>
      <point x="200" y="-310" type="curve"/>
      <point x="183" y="-349" type="line"/>
      <point x="200" y="-356"/>
      <point x="220" y="-359"/>
      <point x="238" y="-359" type="curve"/>
    </contour>
    <contour>
      <point x="120" y="-358"/>
      <point x="138" y="-348"/>
      <point x="148" y="-332" type="curve"/>
      <point x="146" y="-312"/>
      <point x="136" y="-282"/>
      <point x="126" y="-262" type="curve"/>
      <point x="117" y="-278"/>
      <point x="106" y="-290"/>
      <point x="90" y="-290" type="curve" smooth="yes"/>
      <point x="76" y="-290"/>
      <point x="63" y="-281"/>
      <point x="63" y="-260" type="curve" smooth="yes"/>
      <point x="63" y="-235"/>
      <point x="80" y="-218"/>
      <point x="106" y="-218" type="curve" smooth="yes"/>
      <point x="145" y="-218"/>
      <point x="184" y="-253"/>
      <point x="183" y="-349" type="curve"/>
      <point x="220" y="-303" type="line"/>
      <point x="220" y="-208"/>
      <point x="175" y="-146"/>
      <point x="105" y="-146" type="curve" smooth="yes"/>
      <point x="49" y="-146"/>
      <point x="13" y="-192"/>
      <point x="13" y="-253" type="curve" smooth="yes"/>
      <point x="13" y="-313"/>
      <point x="51" y="-358"/>
      <point x="99" y="-358" type="curve" smooth="yes"/>
    </contour>
  </outline>
</glyph>
<glyph name="bn_zero" format="1">
  <advance width="550"/>
  <unicode hex="09E6"/>
  <outline>
    <contour>
      <point x="412" y="-26"/>
      <point x="485" y="167"/>
      <point x="485" y="325" type="curve" smooth="yes"/>
      <point x="485" y="489"/>
      <point x="419" y="588"/>
      <point x="294" y="588" type="curve" smooth="yes"/>
      <point x="137" y="588"/>
      <point x="63" y="395"/>
      <point x="63" y="236" type="curve" smooth="yes"/>
      <point x="63" y="73"/>
      <point x="129" y="-26"/>
      <point x="254" y="-26" type="curve" smooth="yes"/>
    </contour>
    <contour>
      <point x="184" y="73"/>
      <point x="129" y="125"/>
      <point x="129" y="247" type="curve" smooth="yes"/>
      <point x="129" y="384"/>
      <point x="194" y="488"/>
      <point x="292" y="488" type="curve" smooth="yes"/>
      <point x="364" y="488"/>
      <point x="419" y="436"/>
      <point x="419" y="314" type="curve" smooth="yes"/>
      <point x="419" y="177"/>
      <point x="354" y="73"/>
      <point x="256" y="73" type="curve" smooth="yes"/>
    </contour>
  </outline>
</glyph>
<glyph name="bn_one" format="1">
  <advance width="550"/>
  <unicode hex="09E7"/>
  <outline>
    <contour>
      <point x="396" y="-26"/>
      <point x="480" y="78"/>
      <point x="480" y="202" type="curve" smooth="yes"/>
      <point x="480" y="434"/>
      <point x="189" y="424"/>
      <point x="162" y="590" type="curve"/>
      <point x="132" y="576"/>
      <point x="104" y="556"/>
      <point x="79" y="532" type="curve"/>
      <point x="108" y="345"/>
      <point x="415" y="384"/>
      <point x="415" y="198" type="curve" smooth="yes"/>
      <point x="415" y="117"/>
      <point x="357" y="54"/>
      <point x="277" y="54" type="curve" smooth="yes"/>
      <point x="221" y="54"/>
      <point x="188" y="87"/>
      <point x="188" y="130" type="curve" smooth="yes"/>
      <point x="188" y="167"/>
      <point x="211" y="195"/>
      <point x="244" y="195" type="curve" smooth="yes"/>
      <point x="272" y="195"/>
      <point x="294" y="175"/>
      <point x="305" y="132" type="curve"/>
      <point x="326" y="144"/>
      <point x="350" y="166"/>
      <point x="362" y="187" type="curve"/>
      <point x="340" y="237"/>
      <point x="302" y="270"/>
      <point x="249" y="270" type="curve" smooth="yes"/>
      <point x="173" y="270"/>
      <point x="126" y="201"/>
      <point x="126" y="126" type="curve" smooth="yes"/>
      <point x="126" y="43"/>
      <point x="185" y="-26"/>
      <point x="281" y="-26" type="curve" smooth="yes"/>
    </contour>
  </outline>
</glyph>
<glyph name="bn_rupeemark" format="1">
  <advance width="566"/>
  <unicode hex="09F2"/>
  <outline>
    <contour>
      <point x="40" y="532" type="curve"/>
      <point x="-3" y="438" type="line"/>
      <point x="222" y="328"/>
      <point x="391" y="169"/>
      <point x="493" y="-41" type="curve"/>
      <point x="511" y="-21"/>
      <point x="526" y="-1"/>
      <point x="538" y="20" type="curve"/>
      <point x="413" y="240"/>
      <point x="247" y="411"/>
    </contour>
  </outline>
</glyph>
<glyph name="bn_currency2" format="1">
  <advance width="542"/>
  <unicode hex="09F5"/>
  <outline>
    <contour>
      <point x="122" y="-28" type="line"/>
      <point x="319" y="129"/>
      <point x="455" y="324"/>
      <point x="528" y="559" type="curve"/>
      <point x="507" y="568"/>
      <point x="485" y="575"/>
      <point x="463" y="579" type="curve"/>
      <point x="376" y="340"/>
      <point x="237" y="169"/>
      <point x="59" y="65" type="curve"/>
    </contour>
    <contour>
      <point x="59" y="65" type="curve"/>
      <point x="258" y="162" type="line"/>
      <point x="283" y="212"/>
      <point x="294" y="257"/>
      <point x="294" y="295" type="curve" smooth="yes"/>
      <point x="294" y="411"/>
      <point x="211" y="468"/>
      <point x="136" y="468" type="curve" smooth="yes"/>
      <point x="57" y="468"/>
      <point x="4" y="419"/>
      <point x="4" y="348" type="curve" smooth="yes"/>
      <point x="4" y="269"/>
      <point x="63" y="211"/>
      <point x="139" y="211" type="curve" smooth="yes"/>
      <point x="162" y="211"/>
      <point x="183" y="216"/>
      <point x="188" y="221" type="curve"/>
      <point x="193" y="243"/>
      <point x="194" y="278"/>
      <point x="192" y="304" type="curve"/>
      <point x="177" y="294"/>
      <point x="152" y="288"/>
      <point x="128" y="288" type="curve" smooth="yes"/>
      <point x="85" y="288"/>
      <point x="61" y="308"/>
      <point x="61" y="338" type="curve" smooth="yes"/>
      <point x="61" y="372"/>
      <point x="89" y="392"/>
      <point x="132" y="392" type="curve" smooth="yes"/>
      <point x="180" y="392"/>
      <point x="241" y="354"/>
      <point x="241" y="286" type="curve" smooth="yes"/>
      <point x="241" y="204"/>
      <point x="166" y="130"/>
    </contour>
  </outline>
</glyph>
<glyph name="bn_currency4" format="1">
  <advance width="279"/>
  <unicode hex="09F7"/>
  <outline>
    <contour>
      <point x="162" y="-81" type="line"/>
      <point x="143" y="2"/>
      <point x="133" y="126"/>
      <point x="133" y="262" type="curve" smooth="yes"/>
      <point x="133" y="387"/>
      <point x="141" y="489"/>
      <point x="148" y="595" type="curve"/>
      <point x="78" y="584" type="line"/>
      <point x="57" y="391"/>
      <point x="56" y="262"/>
      <point x="56" y="60" type="curve" smooth="yes"/>
      <point x="56" y="21"/>
      <point x="59" y="-14"/>
      <point x="60" y="-47" type="curve"/>
    </contour>
  </outline>
</glyph>
<glyph name="endash" format="1">
  <advance width="445"/>
  <unicode hex="2013"/>
  <outline>
    <contour>
      <point x="32" y="300"/>
      <point x="29" y="278"/>
      <point x="28" y="250" type="curve"/>
      <point x="132" y="229"/>
      <point x="282" y="225"/>
      <point x="408" y="242" type="curve"/>
      <point x="413" y="265"/>
      <point x="417" y="291"/>
      <point x="417" y="314" type="curve"/>
      <point x="369" y="310"/>
      <point x="317" y="307"/>
      <point x="262" y="307" type="curve" smooth="yes"/>
      <point x="202" y="307"/>
      <point x="103" y="312"/>
      <point x="36" y="323" type="curve"/>
    </contour>
  </outline>
</glyph>
<glyph name="emdash" format="1">
  <advance width="725"/>
  <unicode hex="2014"/>
  <outline>
    <contour>
      <point x="32" y="294"/>
      <point x="29" y="272"/>
      <point x="28" y="244" type="curve"/>
      <point x="210" y="209"/>
      <point x="471" y="204"/>
      <point x="687" y="236" type="curve"/>
      <point x="693" y="259"/>
      <point x="696" y="285"/>
      <point x="696" y="308" type="curve"/>
      <point x="616" y="300"/>
      <point x="515" y="292"/>
      <point x="408" y="292" type="curve" smooth="yes"/>
      <point x="231" y="292"/>
      <point x="138" y="301"/>
      <point x="36" y="317" type="curve"/>
    </contour>
  </outline>
</glyph>
<glyph name="quoteleft" format="1">
  <advance width="171"/>
  <unicode hex="2018"/>
  <outline>
    <contour>
      <point x="13" y="729" type="curve"/>
      <point x="14" y="648"/>
      <point x="29" y="580"/>
      <point x="64" y="485" type="curve"/>
      <point x="90" y="484"/>
      <point x="114" y="487"/>
      <point x="136" y="492" type="curve"/>
      <point x="110" y="599"/>
      <point x="107" y="673"/>
      <point x="111" y="739" type="curve"/>
      <point x="78" y="741"/>
      <point x="43" y="738"/>
    </contour>
  </outline>
</glyph>
<glyph name="guilsinglright" format="1">
  <advance width="278"/>
  <unicode hex="203A"/>
  <outline>
    <contour>
      <point x="87" y="53" type="curve"/>
      <point x="165" y="115"/>
      <point x="225" y="182"/>
      <point x="269" y="265" type="curve"/>
      <point x="203" y="292" type="line"/>
      <point x="163" y="230"/>
      <point x="107" y="172"/>
      <point x="22" y="114" type="curve"/>
      <point x="41" y="85"/>
      <point x="59" y="68"/>
    </contour>
    <contour>
      <point x="24" y="399" type="curve"/>
      <point x="83" y="325"/>
      <point x="141" y="271"/>
      <point x="221" y="225" type="curve"/>
      <point x="269" y="265" type="line"/>
      <point x="205" y="311"/>
      <point x="147" y="371"/>
      <point x="93" y="457" type="curve"/>
      <point x="65" y="441"/>
      <point x="39" y="421"/>
    </contour>
  </outline>
</glyph>
<glyph name="Euro" format="1">
  <advance width="539"/>
  <unicode hex="20AC"/>
  <outline>
    <contour>
      <point x="433" y="211" type="curve"/>
      <point x="427" y="100"/>
      <point x="390" y="32"/>
      <point x="326" y="32" type="curve" smooth="yes"/>
      <point x="249" y="32"/>
      <point x="214" y="136"/>
      <point x="214" y="284" type="curve" smooth="yes"/>
      <point x="214" y="485"/>
      <point x="278" y="597"/>
      <point x="344" y="597" type="curve" smooth="yes"/>
      <point x="397" y="597"/>
      <point x="422" y="550"/>
      <point x="413" y="425" type="curve"/>
      <point x="458" y="426"/>
      <point x="482" y="432"/>
      <point x="511" y="445" type="curve"/>
      <point x="514" y="596"/>
      <point x="462" y="668"/>
      <point x="363" y="668" type="curve" smooth="yes"/>
      <point x="205" y="668"/>
      <point x="101" y="499"/>
      <point x="101" y="270" type="curve" smooth="yes"/>
      <point x="101" y="63"/>
      <point x="183" y="-40"/>
      <point x="304" y="-40" type="curve" smooth="yes"/>
      <point x="418" y="-40"/>
      <point x="478" y="34"/>
      <point x="510" y="173" type="curve"/>
      <point x="490" y="193"/>
      <point x="463" y="208"/>
    </contour>
    <contour>
      <point x="353" y="341" type="curve"/>
      <point x="359" y="358"/>
      <point x="360" y="387"/>
      <point x="358" y="405" type="curve"/>
      <point x="219" y="386"/>
      <point x="135" y="383"/>
      <point x="14" y="392" type="curve"/>
      <point x="10" y="372"/>
      <point x="12" y="340"/>
      <point x="14" y="322" type="curve"/>
      <point x="124" y="313"/>
      <point x="212" y="318"/>
    </contour>
    <contour>
      <point x="355" y="203" type="curve"/>
      <point x="361" y="220"/>
      <point x="362" y="250"/>
      <point x="360" y="267" type="curve"/>
      <point x="220" y="247"/>
      <point x="138" y="244"/>
      <point x="17" y="253" type="curve"/>
      <point x="13" y="233"/>
      <point x="16" y="201"/>
      <point x="18" y="183" type="curve"/>
      <point x="127" y="173"/>
      <point x="214" y="179"/>
    </contour>
  </outline>
</glyph>
<glyph name="trademark" format="1">
  <advance width="789"/>
  <unicode hex="2122"/>
  <outline>
    <contour>
      <point x="469" y="356" type="curve"/>
      <point x="452" y="432"/>
      <point x="442" y="525"/>
      <point x="442" y="611" type="curve" smooth="yes"/>
      <point x="442" y="644"/>
      <point x="442" y="680"/>
      <point x="451" y="731" type="curve"/>
      <point x="366" y="735" type="line"/>
      <point x="364" y="618"/>
      <point x="375" y="453"/>
      <point x="391" y="348" type="curve"/>
      <point x="414" y="348"/>
      <point x="456" y="352"/>
    </contour>
    <contour>
      <point x="736" y="331" type="curve"/>
      <point x="738" y="447"/>
      <point x="738" y="619"/>
      <point x="732" y="743" type="curve"/>
      <point x="661" y="743" type="line"/>
      <point x="662" y="606"/>
      <point x="655" y="432"/>
      <point x="649" y="317" type="curve"/>
      <point x="689" y="317"/>
      <point x="712" y="323"/>
    </contour>
    <contour>
      <point x="572" y="464" type="curve"/>
      <point x="631" y="548"/>
      <point x="680" y="636"/>
      <point x="732" y="743" type="curve"/>
      <point x="713" y="751"/>
      <point x="689" y="759"/>
      <point x="663" y="763" type="curve"/>
      <point x="634" y="673"/>
      <point x="606" y="614"/>
      <point x="554" y="534" type="curve"/>
      <point x="573" y="532" type="line"/>
      <point x="541" y="621"/>
      <point x="494" y="705"/>
      <point x="448" y="767" type="curve"/>
      <point x="424" y="764"/>
      <point x="386" y="748"/>
      <point x="366" y="735" type="curve"/>
      <point x="435" y="656"/>
      <point x="482" y="565"/>
      <point x="526" y="458" type="curve"/>
      <point x="539" y="458"/>
      <point x="559" y="461"/>
    </contour>
    <contour>
      <point x="312" y="698" type="curve"/>
      <point x="314" y="707"/>
      <point x="316" y="719"/>
      <point x="316" y="733" type="curve" smooth="yes"/>
      <point x="315" y="746"/>
      <point x="314" y="758"/>
      <point x="310" y="768" type="curve"/>
      <point x="195" y="768"/>
      <point x="115" y="760"/>
      <point x="10" y="739" type="curve"/>
      <point x="11" y="720"/>
      <point x="14" y="698"/>
      <point x="21" y="678" type="curve"/>
      <point x="130" y="691"/>
      <point x="203" y="698"/>
    </contour>
    <contour>
      <point x="216" y="356" type="curve"/>
      <point x="220" y="402"/>
      <point x="223" y="452"/>
      <point x="223" y="500" type="curve" smooth="yes"/>
      <point x="223" y="591"/>
      <point x="218" y="668"/>
      <point x="210" y="742" type="curve"/>
      <point x="175" y="742"/>
      <point x="142" y="738"/>
      <point x="114" y="732" type="curve"/>
      <point x="132" y="624"/>
      <point x="140" y="454"/>
      <point x="138" y="348" type="curve"/>
      <point x="172" y="348"/>
      <point x="195" y="351"/>
    </contour>
  </outline>
</glyph>
<glyph name="estimated" format="1">
  <advance width="699"/>
  <unicode hex="212E"/>
  <outline>
    <contour>
      <point x="655" y="267" type="line" name=""/>
      <point x="655" y="274" type="line" smooth="yes" name=""/>
      <point x="655" y="426" name=""/>
      <point x="518" y="551" name=""/>
      <point x="349" y="551" type="curve" smooth="yes" name=""/>
      <point x="180" y="551" name=""/>
      <point x="43" y="426" name=""/>
      <point x="43" y="274" type="curve" smooth="yes" name=""/>
      <point x="43" y="122" name=""/>
      <point x="180" y="-1" name=""/>
      <point x="349" y="-1" type="curve" smooth="yes" name=""/>
      <point x="449" y="-1" name=""/>
      <point x="535" y="42" name=""/>
      <point x="591" y="106" type="curve" name=""/>
      <point x="547" y="106" type="line" name=""/>
      <point x="499" y="50" name=""/>
      <point x="430" y="16" name=""/>
      <point x="350" y="16" type="curve" smooth="yes" name=""/>
      <point x="275" y="16" name=""/>
      <point x="209" y="47" name=""/>
      <point x="162" y="96" type="curve" name=""/>
      <point x="157" y="102" name=""/>
      <point x="155" y="108" name=""/>
      <point x="155" y="114" type="curve" smooth="yes" name=""/>
      <point x="155" y="264" type="line" smooth="yes" name=""/>
      <point x="155" y="266" name=""/>
      <point x="156" y="267" name=""/>
      <point x="159" y="267" type="curve" smooth="yes" name=""/>
    </contour>
    <contour>
      <point x="543" y="286" type="line" smooth="yes" name=""/>
      <point x="543" y="283" name=""/>
      <point x="542" y="282" name=""/>
      <point x="540" y="282" type="curve" smooth="yes" name=""/>
      <point x="159" y="282" type="line" smooth="yes" name=""/>
      <point x="156" y="282" name=""/>
      <point x="155" y="283" name=""/>
      <point x="155" y="286" type="curve" smooth="yes" name=""/>
      <point x="155" y="434" type="line" smooth="yes" name=""/>
      <point x="155" y="443" name=""/>
      <point x="158" y="449" name=""/>
      <point x="163" y="453" type="curve" name=""/>
      <point x="210" y="504" name=""/>
      <point x="277" y="534" name=""/>
      <point x="350" y="534" type="curve" smooth="yes" name=""/>
      <point x="423" y="534" name=""/>
      <point x="488" y="504" name=""/>
      <point x="535" y="456" type="curve" smooth="yes" name=""/>
      <point x="540" y="451" name=""/>
      <point x="543" y="444" name=""/>
      <point x="543" y="437" type="curve" smooth="yes" name=""/>
    </contour>
  </outline>
</glyph>
<glyph name="summation" format="1">
  <advance width="478"/>
  <unicode hex="2211"/>
  <outline>
    <contour>
      <point x="46" y="-41" type="curve"/>
      <point x="180" y="-41"/>
      <point x="361" y="-26"/>
      <point x="474" y="-6" type="curve"/>
      <point x="476" y="18"/>
      <point x="473" y="59"/>
      <point x="466" y="80" type="curve"/>
      <point x="373" y="60"/>
      <point x="253" y="46"/>
      <point x="151" y="43" type="curve"/>
      <point x="237" y="153"/>
      <point x="306" y="252"/>
      <point x="372" y="375" type="curve"/>
      <point x="260" y="464"/>
      <point x="171" y="547"/>
      <point x="106" y="625" type="curve"/>
      <point x="207" y="638"/>
      <point x="305" y="646"/>
      <point x="409" y="646" type="curve"/>
      <point x="414" y="671"/>
      <point x="418" y="702"/>
      <point x="418" y="735" type="curve"/>
      <point x="254" y="732"/>
      <point x="138" y="714"/>
      <point x="0" y="689" type="curve"/>
      <point x="-1" y="665"/>
      <point x="0" y="642"/>
      <point x="2" y="618" type="curve"/>
      <point x="67" y="536"/>
      <point x="157" y="451"/>
      <point x="269" y="359" type="curve"/>
      <point x="201" y="238"/>
      <point x="139" y="151"/>
      <point x="37" y="27" type="curve"/>
      <point x="38" y="3"/>
      <point x="42" y="-18"/>
    </contour>
  </outline>
</glyph>
<glyph name="uni2219" format="1">
  <advance width="210"/>
  <unicode hex="2219"/>
  <outline>
    <contour>
      <point x="182" y="307"/>
      <point x="184" y="349"/>
      <point x="187" y="399" type="curve"/>
      <point x="118" y="409"/>
      <point x="62" y="401"/>
      <point x="23" y="392" type="curve"/>
      <point x="23" y="343"/>
      <point x="26" y="312"/>
      <point x="29" y="259" type="curve"/>
      <point x="76" y="252"/>
      <point x="117" y="251"/>
      <point x="174" y="258" type="curve"/>
    </contour>
  </outline>
</glyph>
<glyph name="infinity" format="1">
  <advance width="623"/>
  <unicode hex="221E"/>
  <outline>
    <contour>
      <point x="598" y="352" type="curve" smooth="yes"/>
      <point x="598" y="447"/>
      <point x="539" y="519"/>
      <point x="451" y="519" type="curve" smooth="yes"/>
      <point x="381" y="519"/>
      <point x="340" y="472"/>
      <point x="299" y="400" type="curve"/>
      <point x="349" y="333" type="line"/>
      <point x="379" y="394"/>
      <point x="412" y="443"/>
      <point x="457" y="444" type="curve" smooth="yes"/>
      <point x="506" y="444"/>
      <point x="531" y="407"/>
      <point x="531" y="350" type="curve" smooth="yes"/>
      <point x="531" y="297"/>
      <point x="506" y="263"/>
      <point x="467" y="263" type="curve" smooth="yes"/>
      <point x="419" y="263"/>
      <point x="389" y="303"/>
      <point x="342" y="378" type="curve" smooth="yes"/>
      <point x="288" y="452"/>
      <point x="242" y="509"/>
      <point x="164" y="509" type="curve" smooth="yes"/>
      <point x="86" y="509"/>
      <point x="25" y="442"/>
      <point x="25" y="344" type="curve" smooth="yes"/>
      <point x="25" y="250"/>
      <point x="80" y="180"/>
      <point x="171" y="180" type="curve" smooth="yes"/>
      <point x="241" y="180"/>
      <point x="289" y="220"/>
      <point x="327" y="291" type="curve"/>
      <point x="279" y="365" type="line"/>
      <point x="245" y="295"/>
      <point x="210" y="259"/>
      <point x="160" y="260" type="curve" smooth="yes"/>
      <point x="114" y="261"/>
      <point x="91" y="297"/>
      <point x="91" y="345" type="curve" smooth="yes"/>
      <point x="91" y="398"/>
      <point x="120" y="430"/>
      <point x="159" y="430" type="curve" smooth="yes"/>
      <point x="207" y="430"/>
      <point x="234" y="386"/>
      <point x="277" y="316" type="curve" smooth="yes"/>
      <point x="329" y="233"/>
      <point x="382" y="183"/>
      <point x="453" y="183" type="curve" smooth="yes"/>
      <point x="538" y="183"/>
      <point x="598" y="255"/>
    </contour>
  </outline>
</glyph>
<glyph name="integral" format="1">
  <advance width="382"/>
  <unicode hex="222B"/>
  <outline>
    <contour>
      <point x="92" y="-155" type="curve" smooth="yes"/>
      <point x="13" y="-155"/>
      <point x="-24" y="-94"/>
      <point x="-24" y="-25" type="curve" smooth="yes"/>
      <point x="-24" y="-5"/>
      <point x="-19" y="18"/>
      <point x="-12" y="32" type="curve"/>
      <point x="16" y="32"/>
      <point x="44" y="27"/>
      <point x="68" y="19" type="curve"/>
      <point x="63" y="7"/>
      <point x="60" y="-9"/>
      <point x="60" y="-30" type="curve" smooth="yes"/>
      <point x="60" y="-65"/>
      <point x="75" y="-87"/>
      <point x="101" y="-87" type="curve" smooth="yes"/>
      <point x="139" y="-87"/>
      <point x="158" y="-46"/>
      <point x="158" y="41" type="curve" smooth="yes"/>
      <point x="158" y="217"/>
      <point x="91" y="333"/>
      <point x="88" y="483" type="curve" smooth="yes"/>
      <point x="85" y="648"/>
      <point x="158" y="724"/>
      <point x="255" y="726" type="curve" smooth="yes"/>
      <point x="339" y="727"/>
      <point x="381" y="667"/>
      <point x="382" y="598" type="curve" smooth="yes"/>
      <point x="382" y="578"/>
      <point x="377" y="553"/>
      <point x="370" y="539" type="curve"/>
      <point x="341" y="539"/>
      <point x="314" y="544"/>
      <point x="289" y="551" type="curve"/>
      <point x="294" y="563"/>
      <point x="297" y="580"/>
      <point x="297" y="601" type="curve" smooth="yes"/>
      <point x="297" y="636"/>
      <point x="279" y="658"/>
      <point x="251" y="658" type="curve" smooth="yes"/>
      <point x="210" y="657"/>
      <point x="189" y="611"/>
      <point x="189" y="515" type="curve" smooth="yes"/>
      <point x="191" y="324"/>
      <point x="263" y="224"/>
      <point x="244" y="42" type="curve" smooth="yes"/>
      <point x="234" y="-95"/>
      <point x="179" y="-155"/>
    </contour>
  </outline>
</glyph>
<glyph name="uni25CC" format="1">
  <advance width="723"/>
  <unicode hex="25CC"/>
  <outline>
    <contour>
      <point x="152" y="112"/>
      <point x="167" y="129"/>
      <point x="167" y="155" type="curve" smooth="yes"/>
      <point x="167" y="181"/>
      <point x="152" y="197"/>
      <point x="128" y="197" type="curve" smooth="yes"/>
      <point x="103" y="197"/>
      <point x="86" y="180"/>
      <point x="86" y="155" type="curve" smooth="yes"/>
      <point x="86" y="130"/>
      <point x="103" y="112"/>
      <point x="128" y="112" type="curve" smooth="yes"/>
    </contour>
    <contour>
      <point x="249" y="15"/>
      <point x="266" y="31"/>
      <point x="266" y="55" type="curve" smooth="yes"/>
      <point x="266" y="81"/>
      <point x="249" y="98"/>
      <point x="224" y="98" type="curve" smooth="yes"/>
      <point x="200" y="98"/>
      <point x="184" y="81"/>
      <point x="184" y="55" type="curve" smooth="yes"/>
      <point x="184" y="31"/>
      <point x="200" y="15"/>
      <point x="224" y="15" type="curve" smooth="yes"/>
    </contour>
    <contour>
      <point x="287" y="77"/>
      <point x="302" y="93"/>
      <point x="302" y="119" type="curve" smooth="yes"/>
      <point x="302" y="145"/>
      <point x="287" y="161"/>
      <point x="261" y="161" type="curve" smooth="yes"/>
      <point x="235" y="161"/>
      <point x="220" y="144"/>
      <point x="220" y="119" type="curve" smooth="yes"/>
      <point x="220" y="93"/>
      <point x="235" y="77"/>
      <point x="261" y="77" type="curve" smooth="yes"/>
    </contour>
    <contour>
      <point x="239" y="229"/>
      <point x="255" y="246"/>
      <point x="255" y="270" type="curve" smooth="yes"/>
      <point x="255" y="297"/>
      <point x="240" y="313"/>
      <point x="215" y="313" type="curve" smooth="yes"/>
      <point x="190" y="313"/>
      <point x="173" y="297"/>
      <point x="173" y="271" type="curve" smooth="yes"/>
      <point x="173" y="246"/>
      <point x="190" y="229"/>
      <point x="215" y="229" type="curve" smooth="yes"/>
    </contour>
    <contour>
      <point x="521" y="15"/>
      <point x="538" y="31"/>
      <point x="538" y="55" type="curve" smooth="yes"/>
      <point x="538" y="81"/>
      <point x="521" y="98"/>
      <point x="496" y="98" type="curve" smooth="yes"/>
      <point x="471" y="98"/>
      <point x="455" y="81"/>
      <point x="455" y="55" type="curve" smooth="yes"/>
      <point x="455" y="31"/>
      <point x="471" y="15"/>
      <point x="496" y="15" type="curve" smooth="yes"/>
    </contour>
    <contour>
      <point x="249" y="478"/>
      <point x="266" y="494"/>
      <point x="266" y="519" type="curve" smooth="yes"/>
      <point x="266" y="544"/>
      <point x="249" y="561"/>
      <point x="224" y="561" type="curve" smooth="yes"/>
      <point x="200" y="561"/>
      <point x="184" y="544"/>
      <point x="184" y="519" type="curve" smooth="yes"/>
      <point x="184" y="494"/>
      <point x="200" y="478"/>
      <point x="224" y="478" type="curve" smooth="yes"/>
    </contour>
    <contour>
      <point x="621" y="112"/>
      <point x="635" y="129"/>
      <point x="635" y="155" type="curve" smooth="yes"/>
      <point x="635" y="181"/>
      <point x="621" y="197"/>
      <point x="596" y="197" type="curve" smooth="yes"/>
      <point x="572" y="197"/>
      <point x="554" y="179"/>
      <point x="554" y="155" type="curve" smooth="yes"/>
      <point x="554" y="130"/>
      <point x="572" y="112"/>
      <point x="596" y="112" type="curve" smooth="yes"/>
    </contour>
    <contour>
      <point x="387" y="515"/>
      <point x="402" y="530"/>
      <point x="402" y="556" type="curve" smooth="yes"/>
      <point x="402" y="583"/>
      <point x="387" y="599"/>
      <point x="361" y="599" type="curve" smooth="yes"/>
      <point x="335" y="599"/>
      <point x="321" y="583"/>
      <point x="321" y="556" type="curve" smooth="yes"/>
      <point x="321" y="530"/>
      <point x="335" y="515"/>
      <point x="361" y="515" type="curve" smooth="yes"/>
    </contour>
    <contour>
      <point x="657" y="246"/>
      <point x="673" y="262"/>
      <point x="673" y="288" type="curve" smooth="yes"/>
      <point x="673" y="314"/>
      <point x="657" y="329"/>
      <point x="632" y="329" type="curve" smooth="yes"/>
      <point x="607" y="329"/>
      <point x="591" y="313"/>
      <point x="591" y="288" type="curve" smooth="yes"/>
      <point x="591" y="263"/>
      <point x="607" y="246"/>
      <point x="632" y="246" type="curve" smooth="yes"/>
    </contour>
    <contour>
      <point x="621" y="378"/>
      <point x="635" y="395"/>
      <point x="635" y="421" type="curve" smooth="yes"/>
      <point x="635" y="446"/>
      <point x="621" y="462"/>
      <point x="596" y="462" type="curve" smooth="yes"/>
      <point x="572" y="462"/>
      <point x="554" y="444"/>
      <point x="554" y="421" type="curve" smooth="yes"/>
      <point x="554" y="397"/>
      <point x="572" y="378"/>
      <point x="596" y="378" type="curve" smooth="yes"/>
    </contour>
    <contour>
      <point x="521" y="478"/>
      <point x="538" y="494"/>
      <point x="538" y="519" type="curve" smooth="yes"/>
      <point x="538" y="544"/>
      <point x="521" y="561"/>
      <point x="496" y="561" type="curve" smooth="yes"/>
      <point x="471" y="561"/>
      <point x="455" y="544"/>
      <point x="455" y="519" type="curve" smooth="yes"/>
      <point x="455" y="494"/>
      <point x="471" y="478"/>
      <point x="496" y="478" type="curve" smooth="yes"/>
    </contour>
    <contour>
      <point x="130" y="295"/>
      <point x="145" y="312"/>
      <point x="145" y="337" type="curve" smooth="yes"/>
      <point x="145" y="363"/>
      <point x="131" y="379"/>
      <point x="106" y="379" type="curve" smooth="yes"/>
      <point x="80" y="379"/>
      <point x="63" y="362"/>
      <point x="63" y="337" type="curve" smooth="yes"/>
      <point x="63" y="312"/>
      <point x="80" y="295"/>
      <point x="106" y="295" type="curve" smooth="yes"/>
    </contour>
  </outline>
</glyph>
<glyph name="fl" format="1">
  <advance width="563"/>
  <unicode hex="FB02"/>
  <outline>
    <contour>
      <point x="90" y="398" type="curve" smooth="yes"/>
      <point x="90" y="630"/>
      <point x="150" y="727"/>
      <point x="253" y="727" type="curve" smooth="yes"/>
      <point x="329" y="727"/>
      <point x="364" y="669"/>
      <point x="364" y="603" type="curve" smooth="yes"/>
      <point x="364" y="583"/>
      <point x="359" y="559"/>
      <point x="352" y="545" type="curve"/>
      <point x="324" y="545"/>
      <point x="296" y="551"/>
      <point x="272" y="558" type="curve"/>
      <point x="276" y="573"/>
      <point x="280" y="590"/>
      <point x="280" y="608" type="curve" smooth="yes"/>
      <point x="280" y="637"/>
      <point x="269" y="658"/>
      <point x="252" y="658" type="curve" smooth="yes"/>
      <point x="209" y="658"/>
      <point x="187" y="579"/>
      <point x="187" y="448" type="curve" smooth="yes"/>
      <point x="187" y="276"/>
      <point x="215" y="94"/>
      <point x="239" y="-2" type="curve"/>
      <point x="210" y="-12"/>
      <point x="166" y="-21"/>
      <point x="129" y="-21" type="curve"/>
      <point x="116" y="38"/>
      <point x="90" y="236"/>
    </contour>
    <contour>
      <point x="250" y="444" type="curve" smooth="yes"/>
      <point x="285" y="444"/>
      <point x="315" y="447"/>
      <point x="335" y="450" type="curve"/>
      <point x="335" y="428"/>
      <point x="331" y="397"/>
      <point x="328" y="379" type="curve"/>
      <point x="314" y="375"/>
      <point x="292" y="373"/>
      <point x="252" y="373" type="curve" smooth="yes"/>
      <point x="149" y="373"/>
      <point x="58" y="391"/>
      <point x="25" y="404" type="curve"/>
      <point x="25" y="418"/>
      <point x="30" y="452"/>
      <point x="36" y="458" type="curve"/>
      <point x="89" y="450"/>
      <point x="172" y="444"/>
    </contour>
    <contour>
      <point x="408" y="-61" type="curve"/>
      <point x="436" y="-61"/>
      <point x="482" y="-55"/>
      <point x="500" y="-50" type="curve"/>
      <point x="489" y="196"/>
      <point x="491" y="527"/>
      <point x="512" y="735" type="curve"/>
      <point x="493" y="740"/>
      <point x="476" y="742"/>
      <point x="458" y="742" type="curve" smooth="yes"/>
      <point x="431" y="742"/>
      <point x="406" y="733"/>
      <point x="392" y="724" type="curve"/>
      <point x="381" y="458"/>
      <point x="389" y="201"/>
    </contour>
  </outline>
</glyph>
<glyph name="asa_ba" format="1">
  <advance width="480"/>
  <outline>
    <contour>
      <point x="25" y="88" type="curve"/>
      <point x="84" y="78"/>
      <point x="162" y="37"/>
      <point x="202" y="-18" type="curve"/>
      <point x="217" y="-11"/>
      <point x="229" y="0"/>
      <point x="235" y="13" type="curve"/>
      <point x="202" y="77"/>
      <point x="115" y="132"/>
      <point x="53" y="152" type="curve"/>
      <point x="39" y="135"/>
      <point x="29" y="112"/>
    </contour>
    <component base="bn_ba"/>
    <contour>
      <point x="358" y="0" type="move" name="blwm"/>
    </contour>
    <contour>
      <point x="250" y="0" type="move" name="haln"/>
    </contour>
    <contour>
      <point x="377" y="690" type="move" name="chandrabindu"/>
    </contour>
    <contour>
      <point x="377" y="690" type="move" name="reph"/>
    </contour>
  </outline>
</glyph>
